<?xml version="1.0" encoding="utf-8"?>
<!-- Generator: Adobe Illustrator 23.1.0, SVG Export Plug-In . SVG Version: 6.00 Build 0)  -->
<svg version="1.1" id="Слой_1" xmlns="http://www.w3.org/2000/svg" xmlns:xlink="http://www.w3.org/1999/xlink" x="0px" y="0px"
	 viewBox="0 0 24 24" enable-background="new 0 0 24 24" xml:space="preserve">
<path id="aboutus" fill="#ccc" d="M13.838,13.626c0,0,3.315-2.401,3.429-8.231c0,0,0-3.658-3.658-4.344S5.95,6.653,6.865,10.54
	s4.344,3.544,4.687,2.858c0,0,0,5.716-1.029,8.688c0,0-0.114,0.114,0.229,0.457S11.437,23,11.437,23s3.315-1.715,4.001-6.63
	C15.438,16.37,15.781,14.884,13.838,13.626z M11.666,11.454c-0.457,1.029-2.058,2.286-3.315,1.029s-0.915-6.059,2.401-9.145
	s7.316-1.029,4.801,5.03c0,0-0.915,2.858-2.744,4.344c0,0-0.229,0,0.343-1.143s2.286-5.716-0.343-6.516V4.367
	c0,0-0.343-0.686-0.8-0.8C12.009,3.567,12.123,10.425,11.666,11.454z M12.809,5.51c0,0,0.572,0,0.686,0.915
	c0.114,1.143-0.572,1.943-0.572,1.943C13.038,7.339,12.809,5.51,12.809,5.51z M12.123,20.599c0.457-2.286,0.572-6.63,0.572-6.63
	s1.715-0.229,1.715,1.6C14.41,17.742,12.123,20.599,12.123,20.599z"/>
</svg>
