<?xml version="1.0" encoding="utf-8"?>
<!-- Generator: Adobe Illustrator 23.1.0, SVG Export Plug-In . SVG Version: 6.00 Build 0)  -->
<svg version="1.1" id="Слой_1" xmlns="http://www.w3.org/2000/svg" xmlns:xlink="http://www.w3.org/1999/xlink" x="0px" y="0px"
	 viewBox="0 0 24 24" enable-background="new 0 0 24 24" xml:space="preserve">
<path id="armchair" fill="#ccc" d="M7,23c0,0.552-0.448,1-1,1s-1-0.448-1-1s0.448-1,1-1S7,22.448,7,23z M18,22
	c-0.552,0-1,0.448-1,1s0.448,1,1,1s1-0.448,1-1S18.552,22,18,22z M12,22c-0.552,0-1,0.448-1,1s0.448,1,1,1s1-0.448,1-1
	S12.552,22,12,22z M20,9v1h-1v3c0,0,0.019,0.624-0.084,0.777l-2,3C16.823,16.917,16.667,17,16.5,17h-4v1.717l4.757,2.854
	l-0.514,0.857L12.5,19.883V21h-1v-1.117l-4.243,2.546l-0.514-0.857l4.757-2.854V17h-4c-0.167,0-0.323-0.083-0.416-0.223l-2-3
	C4.981,13.624,5,13,5,13v-3H4V9h3v1H6v3h1.933l-1-7.985H11.5V4h-0.783C9.771,4,9,3.229,9,2.283V1.717C9,0.771,9.771,0,10.717,0
	h2.566C14.229,0,15,0.771,15,1.717v0.565C15,3.229,14.229,4,13.283,4H12.5v1.015h4.566l-1,7.985H18v-3h-1V9H20z M13.283,3
	C13.679,3,14,2.678,14,2.283V1.717C14,1.322,13.679,1,13.283,1h-2.566C10.321,1,10,1.322,10,1.717v0.565C10,2.678,10.321,3,10.717,3
	H13.283z M8.941,13h6.117l0.875-6.985H8.066L8.941,13z M17.565,14h-1.624H8.059H6.435l1.333,2H11.5h1h3.732L17.565,14z"/>
</svg>
