<?xml version="1.0" encoding="utf-8"?>
<!-- Generator: Adobe Illustrator 23.1.0, SVG Export Plug-In . SVG Version: 6.00 Build 0)  -->
<svg version="1.1" id="Слой_1" xmlns="http://www.w3.org/2000/svg" xmlns:xlink="http://www.w3.org/1999/xlink" x="0px" y="0px"
	 viewBox="0 0 292 242" style="enable-background:new 0 0 292 242;" xml:space="preserve">
<style type="text/css">
	.st0{fill:url(#SVGID_1_);}
	.st1{fill:url(#SVGID_2_);}
	.st2{fill:url(#SVGID_3_);}
	.st3{fill:url(#SVGID_4_);}
	.st4{fill:#FFD554;}
	.st5{fill:url(#SVGID_5_);}
	.st6{fill:url(#SVGID_6_);}
	.st7{fill:#FF3729;}
	.st8{fill:url(#SVGID_7_);}
	.st9{fill:url(#SVGID_8_);}
	.st10{fill:url(#SVGID_9_);}
	.st11{fill:url(#SVGID_10_);}
	.st12{fill:url(#SVGID_11_);}
	.st13{fill:url(#SVGID_12_);}
	.st14{fill:url(#SVGID_13_);}
	.st15{fill:url(#SVGID_14_);}
	.st16{fill:url(#SVGID_15_);}
	.st17{fill:url(#SVGID_16_);}
	.st18{fill:url(#SVGID_17_);}
	.st19{fill:url(#SVGID_18_);}
	.st20{fill:url(#SVGID_19_);}
	.st21{fill:url(#SVGID_20_);}
	.st22{opacity:0.8;fill:url(#SVGID_21_);enable-background:new    ;}
	.st23{opacity:0.8;fill:url(#SVGID_22_);enable-background:new    ;}
	.st24{opacity:0.6;fill:url(#SVGID_23_);enable-background:new    ;}
	.st25{opacity:0.6;fill:url(#SVGID_24_);enable-background:new    ;}
	.st26{opacity:0.5;fill:url(#SVGID_25_);enable-background:new    ;}
	.st27{opacity:0.5;fill:url(#SVGID_26_);enable-background:new    ;}
	.st28{opacity:0.5;fill:url(#SVGID_27_);enable-background:new    ;}
	.st29{opacity:0.5;fill:url(#SVGID_28_);enable-background:new    ;}
	.st30{fill:url(#SVGID_29_);}
	.st31{fill:url(#SVGID_30_);}
	.st32{fill:url(#SVGID_31_);}
	.st33{fill:url(#SVGID_32_);}
	.st34{fill:url(#SVGID_33_);}
	.st35{fill:url(#SVGID_34_);}
	.st36{fill:url(#SVGID_35_);}
	.st37{fill:url(#SVGID_36_);}
	.st38{fill:none;stroke:#006837;stroke-width:0.5;stroke-miterlimit:10;}
	.st39{fill:url(#SVGID_37_);}
	.st40{fill:url(#SVGID_38_);}
	.st41{fill:url(#SVGID_39_);}
	.st42{fill:url(#SVGID_40_);}
	.st43{display:none;fill:#FF3729;}
</style>
<g>
	<g>
		
			<linearGradient id="SVGID_1_" gradientUnits="userSpaceOnUse" x1="20.8869" y1="120.9824" x2="344.3799" y2="111.3486" gradientTransform="matrix(1 0 0 -1 0 247.0529)">
			<stop  offset="0" style="stop-color:#D4A429"/>
			<stop  offset="0.495" style="stop-color:#FFE354"/>
			<stop  offset="1" style="stop-color:#D99C2B"/>
		</linearGradient>
		<path class="st0" d="M143.1,108.7c0,0-5-19-35-4s-24,43-19,48s14,11,27-10c0,0,2,10,12,16c0,0-9-10-7-30l-6-9c0,0-13,36-23,26
			c-6-6,15-34,41-37c0,0,4-5,0,51c0,0,9-7,11-34c0,0,1-11,17-19c0,0-3-5-10-2S143.1,108.7,143.1,108.7z"/>
		
			<linearGradient id="SVGID_2_" gradientUnits="userSpaceOnUse" x1="20.9277" y1="122.3532" x2="344.4207" y2="112.7194" gradientTransform="matrix(1 0 0 -1 0 247.0529)">
			<stop  offset="0" style="stop-color:#D4A429"/>
			<stop  offset="0.495" style="stop-color:#FFE354"/>
			<stop  offset="1" style="stop-color:#D99C2B"/>
		</linearGradient>
		<path class="st1" d="M185.1,99.7c0,0-25,3-25,23s26,9,29,12s-13,19-34,17c0,0,2,8,10,7s30-7,32-17s-8-17-15-17s-14,1-14-1
			s4-10,19-17C187.1,106.7,192.1,103.7,185.1,99.7z"/>
		
			<linearGradient id="SVGID_3_" gradientUnits="userSpaceOnUse" x1="20.5942" y1="111.156" x2="344.0873" y2="101.5222" gradientTransform="matrix(1 0 0 -1 0 247.0529)">
			<stop  offset="0" style="stop-color:#D4A429"/>
			<stop  offset="0.495" style="stop-color:#FFE354"/>
			<stop  offset="1" style="stop-color:#D99C2B"/>
		</linearGradient>
		<path class="st2" d="M200.1,43.7c0,0,5,17,5,49l-2,67c0,0,8,4,9-24c0,0-1-20,9-3s21,17,21,17s10,16,30,5c0,0-2,65-6,86
			c0,0,8-22,16-60s12-55,6-75c0,0-6-5-14-6c0,0-2,49-18,51c-12,2-5-38-5-38l-9-4c0,0-7,15-1,36c0,0-17-12-22-22c0-1-1-1,6-11
			s7-11,8-13s-2-10-2-10s-15,19-16,19s2-44-7-60C208.1,47.7,206.1,44.7,200.1,43.7z"/>
		
			<linearGradient id="SVGID_4_" gradientUnits="userSpaceOnUse" x1="21.7623" y1="150.3755" x2="345.2552" y2="140.7417" gradientTransform="matrix(1 0 0 -1 0 247.0529)">
			<stop  offset="0" style="stop-color:#D4A429"/>
			<stop  offset="0.495" style="stop-color:#FFE354"/>
			<stop  offset="1" style="stop-color:#D99C2B"/>
		</linearGradient>
		<path class="st3" d="M63.1,111.7c0,0,29-21,30-72c0,0,0-32-32-38s-67,49-59,83s38,31,41,25c0,0,0,50-9,76c0,0-1,1,2,4s6,4,6,4
			s29-15,35-58C77.1,135.7,80.1,122.7,63.1,111.7z M44.1,92.7c-4,9-18,20-29,9s-8-53,21-80s64-9,42,44c0,0-8,25-24,38c0,0-2,0,3-10
			s20-50-3-57v-6c0,0-3-6-7-7C47.1,23.7,48.1,83.7,44.1,92.7z M54.1,40.7c0,0,5,0,6,8c1,10-5,17-5,17C56.1,56.7,54.1,40.7,54.1,40.7
			z M48.1,172.7c4-20,5-58,5-58s15-2,15,14C68.1,147.7,48.1,172.7,48.1,172.7z"/>
	</g>
	<g>
		<g>
			<polygon class="st4" points="127.4,68 174.2,68 174,69.6 127.7,69.6 			"/>
			
				<radialGradient id="SVGID_5_" cx="175.816" cy="178.5047" r="21.4687" gradientTransform="matrix(1 0 0 -1 0 247.0529)" gradientUnits="userSpaceOnUse">
				<stop  offset="0" style="stop-color:#A66912"/>
				<stop  offset="0.151" style="stop-color:#B57B1D;stop-opacity:0.849"/>
				<stop  offset="0.7279" style="stop-color:#EABC45;stop-opacity:0.2721"/>
				<stop  offset="1" style="stop-color:#FFD554;stop-opacity:0"/>
			</radialGradient>
			<polygon class="st5" points="127.4,68 174.2,68 174,69.6 127.7,69.6 			"/>
			
				<radialGradient id="SVGID_6_" cx="126.279" cy="178.338" r="21.4687" gradientTransform="matrix(1 0 0 -1 0 247.0529)" gradientUnits="userSpaceOnUse">
				<stop  offset="0" style="stop-color:#A66912"/>
				<stop  offset="0.151" style="stop-color:#B57B1D;stop-opacity:0.849"/>
				<stop  offset="0.7279" style="stop-color:#EABC45;stop-opacity:0.2721"/>
				<stop  offset="1" style="stop-color:#FFD554;stop-opacity:0"/>
			</radialGradient>
			<polygon class="st6" points="127.4,68 174.2,68 174,69.6 127.7,69.6 			"/>
		</g>
		<g>
			<path class="st7" d="M179.3,48.6l0.9-0.6l1-3.4c-0.4-0.1-1-0.2-1.5-0.2c-2.1,0-4,0.9-5.6,2.2c-5.6,4.7-18.9,4.5-22.3,4.4
				c-0.5,0-1,0-1.6,0c-3.4,0.1-16.8,0.3-22.4-4.4c-1.6-1.3-3.5-2.2-5.6-2.2c-0.5,0-1.1,0.1-1.5,0.2l1,3.6l0.6,0.4
				c9.6,6.2,11.5,13.3,11.6,17.6h33.7C167.8,61.9,169.6,54.7,179.3,48.6z"/>
			
				<radialGradient id="SVGID_7_" cx="151.1185" cy="216.261" r="34.3053" gradientTransform="matrix(0.9997 -2.460237e-02 -8.523732e-03 -0.3464 1.6567 128.9472)" gradientUnits="userSpaceOnUse">
				<stop  offset="0" style="stop-color:#8C040B"/>
				<stop  offset="0.1975" style="stop-color:#A50F12;stop-opacity:0.8025"/>
				<stop  offset="0.7427" style="stop-color:#E62C22;stop-opacity:0.2573"/>
				<stop  offset="1" style="stop-color:#FF3729;stop-opacity:0"/>
			</radialGradient>
			<path class="st8" d="M179.3,48.6l0.9-0.6l1-3.4c-0.4-0.1-1-0.2-1.5-0.2c-2.1,0-4,0.9-5.6,2.2c-5.6,4.7-18.9,4.5-22.3,4.4
				c-0.5,0-1,0-1.6,0c-3.4,0.1-16.8,0.3-22.4-4.4c-1.6-1.3-3.5-2.2-5.6-2.2c-0.5,0-1.1,0.1-1.5,0.2l1,3.6l0.6,0.4
				c9.6,6.2,11.5,13.3,11.6,17.6h33.7C167.8,61.9,169.6,54.7,179.3,48.6z"/>
			
				<radialGradient id="SVGID_8_" cx="178.4333" cy="250.4155" r="34.3053" gradientTransform="matrix(0.9492 -0.3146 -0.109 -0.3289 31.6963 183.4751)" gradientUnits="userSpaceOnUse">
				<stop  offset="0" style="stop-color:#8C040B"/>
				<stop  offset="0.1975" style="stop-color:#A50F12;stop-opacity:0.8025"/>
				<stop  offset="0.7427" style="stop-color:#E62C22;stop-opacity:0.2573"/>
				<stop  offset="1" style="stop-color:#FF3729;stop-opacity:0"/>
			</radialGradient>
			<path class="st9" d="M179.3,48.6l0.9-0.6l1-3.4c-0.4-0.1-1-0.2-1.5-0.2c-2.1,0-4,0.9-5.6,2.2c-5.6,4.7-18.9,4.5-22.3,4.4
				c-0.5,0-1,0-1.6,0c-3.4,0.1-16.8,0.3-22.4-4.4c-1.6-1.3-3.5-2.2-5.6-2.2c-0.5,0-1.1,0.1-1.5,0.2l1,3.6l0.6,0.4
				c9.6,6.2,11.5,13.3,11.6,17.6h33.7C167.8,61.9,169.6,54.7,179.3,48.6z"/>
			
				<radialGradient id="SVGID_9_" cx="202.2178" cy="207.2281" r="34.3053" gradientTransform="matrix(-0.9292 -0.3696 -0.1281 0.3219 343.8885 53.1284)" gradientUnits="userSpaceOnUse">
				<stop  offset="0" style="stop-color:#8C040B"/>
				<stop  offset="0.1975" style="stop-color:#A50F12;stop-opacity:0.8025"/>
				<stop  offset="0.7427" style="stop-color:#E62C22;stop-opacity:0.2573"/>
				<stop  offset="1" style="stop-color:#FF3729;stop-opacity:0"/>
			</radialGradient>
			<path class="st10" d="M179.3,48.6l0.9-0.6l1-3.4c-0.4-0.1-1-0.2-1.5-0.2c-2.1,0-4,0.9-5.6,2.2c-5.6,4.7-18.9,4.5-22.3,4.4
				c-0.5,0-1,0-1.6,0c-3.4,0.1-16.8,0.3-22.4-4.4c-1.6-1.3-3.5-2.2-5.6-2.2c-0.5,0-1.1,0.1-1.5,0.2l1,3.6l0.6,0.4
				c9.6,6.2,11.5,13.3,11.6,17.6h33.7C167.8,61.9,169.6,54.7,179.3,48.6z"/>
			
				<radialGradient id="SVGID_10_" cx="222.4373" cy="144.2923" r="24.6659" gradientTransform="matrix(-1 -3.681706e-03 -9.306030e-04 0.2528 372.9751 23.0233)" gradientUnits="userSpaceOnUse">
				<stop  offset="3.891051e-03" style="stop-color:#FF604D"/>
				<stop  offset="0.4183" style="stop-color:#FF5241;stop-opacity:0.584"/>
				<stop  offset="1" style="stop-color:#FF3729;stop-opacity:0"/>
			</radialGradient>
			<path class="st11" d="M179.3,48.6l0.9-0.6l1-3.4c-0.4-0.1-1-0.2-1.5-0.2c-2.1,0-4,0.9-5.6,2.2c-5.6,4.7-18.9,4.5-22.3,4.4
				c-0.5,0-1,0-1.6,0c-3.4,0.1-16.8,0.3-22.4-4.4c-1.6-1.3-3.5-2.2-5.6-2.2c-0.5,0-1.1,0.1-1.5,0.2l1,3.6l0.6,0.4
				c9.6,6.2,11.5,13.3,11.6,17.6h33.7C167.8,61.9,169.6,54.7,179.3,48.6z"/>
			
				<radialGradient id="SVGID_11_" cx="160.3885" cy="213.1013" r="34.3053" gradientTransform="matrix(0.9913 -0.1319 -4.357788e-02 -0.3276 9.1851 157.2766)" gradientUnits="userSpaceOnUse">
				<stop  offset="0" style="stop-color:#8C040B"/>
				<stop  offset="0.1975" style="stop-color:#A50F12;stop-opacity:0.8025"/>
				<stop  offset="0.7427" style="stop-color:#E62C22;stop-opacity:0.2573"/>
				<stop  offset="1" style="stop-color:#FF3729;stop-opacity:0"/>
			</radialGradient>
			<path class="st12" d="M179.3,48.6l0.9-0.6l1-3.4c-0.4-0.1-1-0.2-1.5-0.2c-2.1,0-4,0.9-5.6,2.2c-5.6,4.7-18.9,4.5-22.3,4.4
				c-0.5,0-1,0-1.6,0c-3.4,0.1-16.8,0.3-22.4-4.4c-1.6-1.3-3.5-2.2-5.6-2.2c-0.5,0-1.1,0.1-1.5,0.2l1,3.6l0.6,0.4
				c9.6,6.2,11.5,13.3,11.6,17.6h33.7C167.8,61.9,169.6,54.7,179.3,48.6z"/>
			
				<radialGradient id="SVGID_12_" cx="218.0559" cy="173.2151" r="34.3053" gradientTransform="matrix(-0.9634 -0.268 -8.857371e-02 0.3184 370.3795 71.0846)" gradientUnits="userSpaceOnUse">
				<stop  offset="0" style="stop-color:#8C040B"/>
				<stop  offset="0.1975" style="stop-color:#A50F12;stop-opacity:0.8025"/>
				<stop  offset="0.7427" style="stop-color:#E62C22;stop-opacity:0.2573"/>
				<stop  offset="1" style="stop-color:#FF3729;stop-opacity:0"/>
			</radialGradient>
			<path class="st13" d="M179.3,48.6l0.9-0.6l1-3.4c-0.4-0.1-1-0.2-1.5-0.2c-2.1,0-4,0.9-5.6,2.2c-5.6,4.7-18.9,4.5-22.3,4.4
				c-0.5,0-1,0-1.6,0c-3.4,0.1-16.8,0.3-22.4-4.4c-1.6-1.3-3.5-2.2-5.6-2.2c-0.5,0-1.1,0.1-1.5,0.2l1,3.6l0.6,0.4
				c9.6,6.2,11.5,13.3,11.6,17.6h33.7C167.8,61.9,169.6,54.7,179.3,48.6z"/>
		</g>
		<g>
			<path class="st4" d="M174.1,69.2c1.3-6.2,4.3-14,6.2-18.9c-13,8.3-10.6,18.2-10.3,19.3h4L174.1,69.2z"/>
			
				<radialGradient id="SVGID_13_" cx="206.3145" cy="250.565" r="18.094" gradientTransform="matrix(0.1793 -0.9838 -0.4446 -8.104365e-02 242.3195 292.7042)" gradientUnits="userSpaceOnUse">
				<stop  offset="0" style="stop-color:#A66912"/>
				<stop  offset="0.151" style="stop-color:#B57B1D;stop-opacity:0.849"/>
				<stop  offset="0.7279" style="stop-color:#EABC45;stop-opacity:0.2721"/>
				<stop  offset="1" style="stop-color:#FFD554;stop-opacity:0"/>
			</radialGradient>
			<path class="st14" d="M174.1,69.2c1.3-6.2,4.3-14,6.2-18.9c-13,8.3-10.6,18.2-10.3,19.3h4L174.1,69.2z"/>
			
				<radialGradient id="SVGID_14_" cx="208.1185" cy="307.0584" r="18.094" gradientTransform="matrix(0.3931 -0.9195 -0.2637 -0.1127 177.1527 284.7283)" gradientUnits="userSpaceOnUse">
				<stop  offset="0" style="stop-color:#A66912"/>
				<stop  offset="0.151" style="stop-color:#B57B1D;stop-opacity:0.849"/>
				<stop  offset="0.7279" style="stop-color:#EABC45;stop-opacity:0.2721"/>
				<stop  offset="1" style="stop-color:#FFD554;stop-opacity:0"/>
			</radialGradient>
			<path class="st15" d="M174.1,69.2c1.3-6.2,4.3-14,6.2-18.9c-13,8.3-10.6,18.2-10.3,19.3h4L174.1,69.2z"/>
		</g>
		<g>
			<path class="st4" d="M127.6,69.2c-1.3-6.2-4.3-14-6.2-18.9c13,8.3,10.6,18.2,10.3,19.3h-4L127.6,69.2z"/>
			
				<radialGradient id="SVGID_15_" cx="1628.5837" cy="93.8287" r="18.094" gradientTransform="matrix(-0.1793 -0.9838 0.4446 -8.104365e-02 384.1356 1679.22)" gradientUnits="userSpaceOnUse">
				<stop  offset="0" style="stop-color:#A66912"/>
				<stop  offset="0.151" style="stop-color:#B57B1D;stop-opacity:0.849"/>
				<stop  offset="0.7279" style="stop-color:#EABC45;stop-opacity:0.2721"/>
				<stop  offset="1" style="stop-color:#FFD554;stop-opacity:0"/>
			</radialGradient>
			<path class="st16" d="M127.6,69.2c-1.3-6.2-4.3-14-6.2-18.9c13,8.3,10.6,18.2,10.3,19.3h-4L127.6,69.2z"/>
			
				<radialGradient id="SVGID_16_" cx="1645.7715" cy="76.2011" r="18.094" gradientTransform="matrix(-0.3931 -0.9195 0.2637 -0.1127 750.6031 1580.629)" gradientUnits="userSpaceOnUse">
				<stop  offset="0" style="stop-color:#A66912"/>
				<stop  offset="0.151" style="stop-color:#B57B1D;stop-opacity:0.849"/>
				<stop  offset="0.7279" style="stop-color:#EABC45;stop-opacity:0.2721"/>
				<stop  offset="1" style="stop-color:#FFD554;stop-opacity:0"/>
			</radialGradient>
			<path class="st17" d="M127.6,69.2c-1.3-6.2-4.3-14-6.2-18.9c13,8.3,10.6,18.2,10.3,19.3h-4L127.6,69.2z"/>
		</g>
		<g>
			<path class="st4" d="M112.9,47.4c2.3-1.1,5.1,0,6.1,2.4c2.1,5,5.3,13.4,6.7,19.8h-0.4c-2.8,0-5.1,2.3-5.1,5.1v1.8
				c-0.2-0.1-0.3-0.3-0.5-0.4c-2.4-2.4-5.9-8.5-9.2-23.5C109.9,50.4,111,48.3,112.9,47.4z"/>
			
				<radialGradient id="SVGID_17_" cx="985.0573" cy="138.4229" r="20.4561" gradientTransform="matrix(-0.2874 -0.9578 0.6123 -0.1837 312.5897 1018.6756)" gradientUnits="userSpaceOnUse">
				<stop  offset="0" style="stop-color:#FFE675"/>
				<stop  offset="0.214" style="stop-color:#FFE26D;stop-opacity:0.786"/>
				<stop  offset="1" style="stop-color:#FFD554;stop-opacity:0"/>
			</radialGradient>
			<path class="st18" d="M112.9,47.4c2.3-1.1,5.1,0,6.1,2.4c2.1,5,5.3,13.4,6.7,19.8h-0.4c-2.8,0-5.1,2.3-5.1,5.1v1.8
				c-0.2-0.1-0.3-0.3-0.5-0.4c-2.4-2.4-5.9-8.5-9.2-23.5C109.9,50.4,111,48.3,112.9,47.4z"/>
			
				<radialGradient id="SVGID_18_" cx="997.4991" cy="169.1673" r="26.4668" gradientTransform="matrix(-1 0 0 -1 1116.3712 247.0529)" gradientUnits="userSpaceOnUse">
				<stop  offset="0" style="stop-color:#A66912"/>
				<stop  offset="0.151" style="stop-color:#B57B1D;stop-opacity:0.849"/>
				<stop  offset="0.7279" style="stop-color:#EABC45;stop-opacity:0.2721"/>
				<stop  offset="1" style="stop-color:#FFD554;stop-opacity:0"/>
			</radialGradient>
			<path class="st19" d="M112.9,47.4c2.3-1.1,5.1,0,6.1,2.4c2.1,5,5.3,13.4,6.7,19.8h-0.4c-2.8,0-5.1,2.3-5.1,5.1v1.8
				c-0.2-0.1-0.3-0.3-0.5-0.4c-2.4-2.4-5.9-8.5-9.2-23.5C109.9,50.4,111,48.3,112.9,47.4z"/>
			
				<radialGradient id="SVGID_19_" cx="975.622" cy="68.899" r="26.4668" gradientTransform="matrix(-0.3066 -0.9518 0.2867 -9.234482e-02 403.7449 999.5405)" gradientUnits="userSpaceOnUse">
				<stop  offset="0" style="stop-color:#A66912"/>
				<stop  offset="0.151" style="stop-color:#B57B1D;stop-opacity:0.849"/>
				<stop  offset="0.7279" style="stop-color:#EABC45;stop-opacity:0.2721"/>
				<stop  offset="1" style="stop-color:#FFD554;stop-opacity:0"/>
			</radialGradient>
			<path class="st20" d="M112.9,47.4c2.3-1.1,5.1,0,6.1,2.4c2.1,5,5.3,13.4,6.7,19.8h-0.4c-2.8,0-5.1,2.3-5.1,5.1v1.8
				c-0.2-0.1-0.3-0.3-0.5-0.4c-2.4-2.4-5.9-8.5-9.2-23.5C109.9,50.4,111,48.3,112.9,47.4z"/>
			
				<radialGradient id="SVGID_20_" cx="989.5" cy="106.8621" r="26.4668" gradientTransform="matrix(-0.2874 -0.9578 0.4534 -0.136 345.7269 1026.1079)" gradientUnits="userSpaceOnUse">
				<stop  offset="0" style="stop-color:#A66912"/>
				<stop  offset="0.151" style="stop-color:#B57B1D;stop-opacity:0.849"/>
				<stop  offset="0.7279" style="stop-color:#EABC45;stop-opacity:0.2721"/>
				<stop  offset="1" style="stop-color:#FFD554;stop-opacity:0"/>
			</radialGradient>
			<path class="st21" d="M112.9,47.4c2.3-1.1,5.1,0,6.1,2.4c2.1,5,5.3,13.4,6.7,19.8h-0.4c-2.8,0-5.1,2.3-5.1,5.1v1.8
				c-0.2-0.1-0.3-0.3-0.5-0.4c-2.4-2.4-5.9-8.5-9.2-23.5C109.9,50.4,111,48.3,112.9,47.4z"/>
		</g>
		<g>
			<path class="st4" d="M182.8,18.3c-10.1,4.9-21.4,7.2-27.4,8.2c-2.9,0.5-5.8,0.5-8.7,0c-6-1-17.3-3.4-27.3-8.2
				c-0.9-0.5-2,0.3-1.9,1.4c1.1,9.8,2.8,22.1,2.8,22.1c0.4-0.1,1.5-0.3,2.1-0.3c2.1,0,4,0.9,5.6,2.2c5.6,4.7,19,4.5,22.4,4.4
				c0.5,0,1,0,1.6,0c3.4,0.1,16.7,0.3,22.3-4.4c1.6-1.3,3.5-2.2,5.6-2.2c0.5,0,1.4,0.2,1.8,0.3c0,0,2.3-16.4,3.2-22.1
				C184.9,18.7,183.8,17.9,182.8,18.3z"/>
			
				<radialGradient id="SVGID_21_" cx="128.3766" cy="183.2547" r="48.4813" gradientTransform="matrix(0.9471 0.3209 8.362338e-02 -0.2468 -7.5512 47.2085)" gradientUnits="userSpaceOnUse">
				<stop  offset="0" style="stop-color:#91590B"/>
				<stop  offset="0.2501" style="stop-color:#AF7B1F;stop-opacity:0.7499"/>
				<stop  offset="0.7595" style="stop-color:#E8BC45;stop-opacity:0.2405"/>
				<stop  offset="1" style="stop-color:#FFD554;stop-opacity:0"/>
			</radialGradient>
			<path class="st22" d="M182.8,18.3c-10.1,4.9-21.4,7.2-27.4,8.2c-2.9,0.5-5.8,0.5-8.7,0c-6-1-17.3-3.4-27.3-8.2
				c-0.9-0.5-2,0.3-1.9,1.4c1.1,9.8,2.8,22.1,2.8,22.1c0.4-0.1,1.5-0.3,2.1-0.3c2.1,0,4,0.9,5.6,2.2c5.6,4.7,19,4.5,22.4,4.4
				c0.5,0,1,0,1.6,0c3.4,0.1,16.7,0.3,22.3-4.4c1.6-1.3,3.5-2.2,5.6-2.2c0.5,0,1.4,0.2,1.8,0.3c0,0,2.3-16.4,3.2-22.1
				C184.9,18.7,183.8,17.9,182.8,18.3z"/>
			
				<radialGradient id="SVGID_22_" cx="178.5259" cy="267.9833" r="48.4826" gradientTransform="matrix(0.9574 -0.2888 -7.525904e-02 -0.2495 23.6414 161.4458)" gradientUnits="userSpaceOnUse">
				<stop  offset="0" style="stop-color:#8A570F"/>
				<stop  offset="0.2607" style="stop-color:#AB7B23;stop-opacity:0.7393"/>
				<stop  offset="0.7629" style="stop-color:#E7BC46;stop-opacity:0.2371"/>
				<stop  offset="1" style="stop-color:#FFD554;stop-opacity:0"/>
			</radialGradient>
			<path class="st23" d="M182.8,18.3c-10.1,4.9-21.4,7.2-27.4,8.2c-2.9,0.5-5.8,0.5-8.7,0c-6-1-17.3-3.4-27.3-8.2
				c-0.9-0.5-2,0.3-1.9,1.4c1.1,9.8,2.8,22.1,2.8,22.1c0.4-0.1,1.5-0.3,2.1-0.3c2.1,0,4,0.9,5.6,2.2c5.6,4.7,19,4.5,22.4,4.4
				c0.5,0,1,0,1.6,0c3.4,0.1,16.7,0.3,22.3-4.4c1.6-1.3,3.5-2.2,5.6-2.2c0.5,0,1.4,0.2,1.8,0.3c0,0,2.3-16.4,3.2-22.1
				C184.9,18.7,183.8,17.9,182.8,18.3z"/>
			
				<radialGradient id="SVGID_23_" cx="164.6017" cy="286.5021" r="48.4845" gradientTransform="matrix(0.9574 -0.2888 -7.525904e-02 -0.2495 24.4419 143.5262)" gradientUnits="userSpaceOnUse">
				<stop  offset="0" style="stop-color:#A66912"/>
				<stop  offset="0.151" style="stop-color:#B57B1D;stop-opacity:0.849"/>
				<stop  offset="0.7279" style="stop-color:#EABC45;stop-opacity:0.2721"/>
				<stop  offset="1" style="stop-color:#FFD554;stop-opacity:0"/>
			</radialGradient>
			<path class="st24" d="M182.8,18.3c-10.1,4.9-21.4,7.2-27.4,8.2c-2.9,0.5-5.8,0.5-8.7,0c-6-1-17.3-3.4-27.3-8.2
				c-0.9-0.5-2,0.3-1.9,1.4c1.1,9.8,2.8,22.1,2.8,22.1c0.4-0.1,1.5-0.3,2.1-0.3c2.1,0,4,0.9,5.6,2.2c5.6,4.7,19,4.5,22.4,4.4
				c0.5,0,1,0,1.6,0c3.4,0.1,16.7,0.3,22.3-4.4c1.6-1.3,3.5-2.2,5.6-2.2c0.5,0,1.4,0.2,1.8,0.3c0,0,2.3-16.4,3.2-22.1
				C184.9,18.7,183.8,17.9,182.8,18.3z"/>
			
				<radialGradient id="SVGID_24_" cx="140.7234" cy="200.3394" r="48.4829" gradientTransform="matrix(0.9421 0.3354 8.740045e-02 -0.2455 -8.4269 25.9043)" gradientUnits="userSpaceOnUse">
				<stop  offset="0" style="stop-color:#A66912"/>
				<stop  offset="0.151" style="stop-color:#B57B1D;stop-opacity:0.849"/>
				<stop  offset="0.7279" style="stop-color:#EABC45;stop-opacity:0.2721"/>
				<stop  offset="1" style="stop-color:#FFD554;stop-opacity:0"/>
			</radialGradient>
			<path class="st25" d="M182.8,18.3c-10.1,4.9-21.4,7.2-27.4,8.2c-2.9,0.5-5.8,0.5-8.7,0c-6-1-17.3-3.4-27.3-8.2
				c-0.9-0.5-2,0.3-1.9,1.4c1.1,9.8,2.8,22.1,2.8,22.1c0.4-0.1,1.5-0.3,2.1-0.3c2.1,0,4,0.9,5.6,2.2c5.6,4.7,19,4.5,22.4,4.4
				c0.5,0,1,0,1.6,0c3.4,0.1,16.7,0.3,22.3-4.4c1.6-1.3,3.5-2.2,5.6-2.2c0.5,0,1.4,0.2,1.8,0.3c0,0,2.3-16.4,3.2-22.1
				C184.9,18.7,183.8,17.9,182.8,18.3z"/>
			
				<radialGradient id="SVGID_25_" cx="139.3736" cy="165.7932" r="35.5612" gradientTransform="matrix(0.1241 0.9923 0.8046 -0.1006 -33.9207 -92.0348)" gradientUnits="userSpaceOnUse">
				<stop  offset="0" style="stop-color:#A66912;stop-opacity:0.9"/>
				<stop  offset="0.151" style="stop-color:#B57B1D;stop-opacity:0.7641"/>
				<stop  offset="0.7279" style="stop-color:#EABC45;stop-opacity:0.2449"/>
				<stop  offset="1" style="stop-color:#FFD554;stop-opacity:0"/>
			</radialGradient>
			<path class="st26" d="M182.8,18.3c-10.1,4.9-21.4,7.2-27.4,8.2c-2.9,0.5-5.8,0.5-8.7,0c-6-1-17.3-3.4-27.3-8.2
				c-0.9-0.5-2,0.3-1.9,1.4c1.1,9.8,2.8,22.1,2.8,22.1c0.4-0.1,1.5-0.3,2.1-0.3c2.1,0,4,0.9,5.6,2.2c5.6,4.7,19,4.5,22.4,4.4
				c0.5,0,1,0,1.6,0c3.4,0.1,16.7,0.3,22.3-4.4c1.6-1.3,3.5-2.2,5.6-2.2c0.5,0,1.4,0.2,1.8,0.3c0,0,2.3-16.4,3.2-22.1
				C184.9,18.7,183.8,17.9,182.8,18.3z"/>
			
				<radialGradient id="SVGID_26_" cx="216.0764" cy="162.324" r="35.5658" gradientTransform="matrix(-0.1569 0.9876 0.8008 0.1272 87.233 -203.9068)" gradientUnits="userSpaceOnUse">
				<stop  offset="0" style="stop-color:#A66912;stop-opacity:0.9"/>
				<stop  offset="0.151" style="stop-color:#B57B1D;stop-opacity:0.7641"/>
				<stop  offset="0.7279" style="stop-color:#EABC45;stop-opacity:0.2449"/>
				<stop  offset="1" style="stop-color:#FFD554;stop-opacity:0"/>
			</radialGradient>
			<path class="st27" d="M182.8,18.3c-10.1,4.9-21.4,7.2-27.4,8.2c-2.9,0.5-5.8,0.5-8.7,0c-6-1-17.3-3.4-27.3-8.2
				c-0.9-0.5-2,0.3-1.9,1.4c1.1,9.8,2.8,22.1,2.8,22.1c0.4-0.1,1.5-0.3,2.1-0.3c2.1,0,4,0.9,5.6,2.2c5.6,4.7,19,4.5,22.4,4.4
				c0.5,0,1,0,1.6,0c3.4,0.1,16.7,0.3,22.3-4.4c1.6-1.3,3.5-2.2,5.6-2.2c0.5,0,1.4,0.2,1.8,0.3c0,0,2.3-16.4,3.2-22.1
				C184.9,18.7,183.8,17.9,182.8,18.3z"/>
			
				<radialGradient id="SVGID_27_" cx="212.9364" cy="195.1496" r="15.2789" gradientTransform="matrix(-0.9885 -0.1512 -8.118681e-02 0.5308 366.3213 -34.9182)" gradientUnits="userSpaceOnUse">
				<stop  offset="0" style="stop-color:#FFF580;stop-opacity:0.9"/>
				<stop  offset="0.5459" style="stop-color:#FFF1A4;stop-opacity:0.4087"/>
				<stop  offset="1" style="stop-color:#FFEFBD;stop-opacity:0"/>
			</radialGradient>
			<path class="st28" d="M182.8,18.3c-10.1,4.9-21.4,7.2-27.4,8.2c-2.9,0.5-5.8,0.5-8.7,0c-6-1-17.3-3.4-27.3-8.2
				c-0.9-0.5-2,0.3-1.9,1.4c1.1,9.8,2.8,22.1,2.8,22.1c0.4-0.1,1.5-0.3,2.1-0.3c2.1,0,4,0.9,5.6,2.2c5.6,4.7,19,4.5,22.4,4.4
				c0.5,0,1,0,1.6,0c3.4,0.1,16.7,0.3,22.3-4.4c1.6-1.3,3.5-2.2,5.6-2.2c0.5,0,1.4,0.2,1.8,0.3c0,0,2.3-16.4,3.2-22.1
				C184.9,18.7,183.8,17.9,182.8,18.3z"/>
			
				<radialGradient id="SVGID_28_" cx="164.345" cy="232.4732" r="15.2792" gradientTransform="matrix(0.9762 -0.2167 -0.1163 -0.5242 28.1355 193.9437)" gradientUnits="userSpaceOnUse">
				<stop  offset="0" style="stop-color:#FFF580;stop-opacity:0.9"/>
				<stop  offset="0.5459" style="stop-color:#FFF1A4;stop-opacity:0.4087"/>
				<stop  offset="1" style="stop-color:#FFEFBD;stop-opacity:0"/>
			</radialGradient>
			<path class="st29" d="M182.8,18.3c-10.1,4.9-21.4,7.2-27.4,8.2c-2.9,0.5-5.8,0.5-8.7,0c-6-1-17.3-3.4-27.3-8.2
				c-0.9-0.5-2,0.3-1.9,1.4c1.1,9.8,2.8,22.1,2.8,22.1c0.4-0.1,1.5-0.3,2.1-0.3c2.1,0,4,0.9,5.6,2.2c5.6,4.7,19,4.5,22.4,4.4
				c0.5,0,1,0,1.6,0c3.4,0.1,16.7,0.3,22.3-4.4c1.6-1.3,3.5-2.2,5.6-2.2c0.5,0,1.4,0.2,1.8,0.3c0,0,2.3-16.4,3.2-22.1
				C184.9,18.7,183.8,17.9,182.8,18.3z"/>
		</g>
		<g>
			<path class="st4" d="M182,99l-2-14.9c-0.4-3.2-0.6-4.6-8.5-4.6h-41.1c-7.9,0-8.1,1.3-8.5,4.6l-2,14.9l-2-0.3l2-14.9
				c0.6-4.4,1.8-6.3,10.5-6.3h41.1c8.7,0,9.9,1.9,10.5,6.3l2,14.9L182,99z"/>
			
				<radialGradient id="SVGID_29_" cx="125.511" cy="170.299" r="24.5861" gradientTransform="matrix(1 0 0 -1 0 247.0529)" gradientUnits="userSpaceOnUse">
				<stop  offset="0" style="stop-color:#A66912"/>
				<stop  offset="0.151" style="stop-color:#B57B1D;stop-opacity:0.849"/>
				<stop  offset="0.7279" style="stop-color:#EABC45;stop-opacity:0.2721"/>
				<stop  offset="1" style="stop-color:#FFD554;stop-opacity:0"/>
			</radialGradient>
			<path class="st30" d="M182,99l-2-14.9c-0.4-3.2-0.6-4.6-8.5-4.6h-41.1c-7.9,0-8.1,1.3-8.5,4.6l-2,14.9l-2-0.3l2-14.9
				c0.6-4.4,1.8-6.3,10.5-6.3h41.1c8.7,0,9.9,1.9,10.5,6.3l2,14.9L182,99z"/>
			
				<radialGradient id="SVGID_30_" cx="175.6221" cy="171.1879" r="24.5861" gradientTransform="matrix(1 0 0 -1 0 247.0529)" gradientUnits="userSpaceOnUse">
				<stop  offset="0" style="stop-color:#A66912"/>
				<stop  offset="0.151" style="stop-color:#B57B1D;stop-opacity:0.849"/>
				<stop  offset="0.7279" style="stop-color:#EABC45;stop-opacity:0.2721"/>
				<stop  offset="1" style="stop-color:#FFD554;stop-opacity:0"/>
			</radialGradient>
			<path class="st31" d="M182,99l-2-14.9c-0.4-3.2-0.6-4.6-8.5-4.6h-41.1c-7.9,0-8.1,1.3-8.5,4.6l-2,14.9l-2-0.3l2-14.9
				c0.6-4.4,1.8-6.3,10.5-6.3h41.1c8.7,0,9.9,1.9,10.5,6.3l2,14.9L182,99z"/>
		</g>
		<g>
			<path class="st4" d="M129.9,98.6l-1.5-0.2c0-0.3,1.1-8,1.9-10.7c0.9-3,4.6-2.9,9.6-2.8c1,0,2.1,0,3.3,0h17c1.2,0,2.3,0,3.3,0
				c5-0.1,8.7-0.2,9.6,2.8c0.8,2.7,1.9,10.4,1.9,10.7l-1.5,0.2c0-0.1-1.1-7.9-1.9-10.4c-0.6-1.8-3.2-1.8-8.1-1.7c-1,0-2.2,0-3.4,0
				h-17c-1.2,0-2.3,0-3.4,0c-5-0.1-7.6-0.1-8.1,1.7C131,90.8,130,98.6,129.9,98.6z"/>
			
				<radialGradient id="SVGID_31_" cx="137.0479" cy="167.3154" r="17.224" gradientTransform="matrix(1 0 0 -1 0 247.0529)" gradientUnits="userSpaceOnUse">
				<stop  offset="0" style="stop-color:#A66912"/>
				<stop  offset="0.151" style="stop-color:#B57B1D;stop-opacity:0.849"/>
				<stop  offset="0.7279" style="stop-color:#EABC45;stop-opacity:0.2721"/>
				<stop  offset="1" style="stop-color:#FFD554;stop-opacity:0"/>
			</radialGradient>
			<path class="st32" d="M129.9,98.6l-1.5-0.2c0-0.3,1.1-8,1.9-10.7c0.9-3,4.6-2.9,9.6-2.8c1,0,2.1,0,3.3,0h17c1.2,0,2.3,0,3.3,0
				c5-0.1,8.7-0.2,9.6,2.8c0.8,2.7,1.9,10.4,1.9,10.7l-1.5,0.2c0-0.1-1.1-7.9-1.9-10.4c-0.6-1.8-3.2-1.8-8.1-1.7c-1,0-2.2,0-3.4,0
				h-17c-1.2,0-2.3,0-3.4,0c-5-0.1-7.6-0.1-8.1,1.7C131,90.8,130,98.6,129.9,98.6z"/>
			
				<radialGradient id="SVGID_32_" cx="166.233" cy="167.3154" r="17.224" gradientTransform="matrix(1 0 0 -1 0 247.0529)" gradientUnits="userSpaceOnUse">
				<stop  offset="0" style="stop-color:#A66912"/>
				<stop  offset="0.151" style="stop-color:#B57B1D;stop-opacity:0.849"/>
				<stop  offset="0.7279" style="stop-color:#EABC45;stop-opacity:0.2721"/>
				<stop  offset="1" style="stop-color:#FFD554;stop-opacity:0"/>
			</radialGradient>
			<path class="st33" d="M129.9,98.6l-1.5-0.2c0-0.3,1.1-8,1.9-10.7c0.9-3,4.6-2.9,9.6-2.8c1,0,2.1,0,3.3,0h17c1.2,0,2.3,0,3.3,0
				c5-0.1,8.7-0.2,9.6,2.8c0.8,2.7,1.9,10.4,1.9,10.7l-1.5,0.2c0-0.1-1.1-7.9-1.9-10.4c-0.6-1.8-3.2-1.8-8.1-1.7c-1,0-2.2,0-3.4,0
				h-17c-1.2,0-2.3,0-3.4,0c-5-0.1-7.6-0.1-8.1,1.7C131,90.8,130,98.6,129.9,98.6z"/>
		</g>
		<g>
			<polygon class="st4" points="126.6,81.7 131.9,86.9 170.8,86.6 175.8,81.7 			"/>
			
				<radialGradient id="SVGID_33_" cx="150.2254" cy="242.5098" r="104.8523" gradientTransform="matrix(1 0 0 -0.1044 0 107.0687)" gradientUnits="userSpaceOnUse">
				<stop  offset="0" style="stop-color:#A66912"/>
				<stop  offset="0.151" style="stop-color:#B57B1D;stop-opacity:0.849"/>
				<stop  offset="0.7279" style="stop-color:#EABC45;stop-opacity:0.2721"/>
				<stop  offset="1" style="stop-color:#FFD554;stop-opacity:0"/>
			</radialGradient>
			<polygon class="st34" points="126.6,81.7 131.9,86.9 170.8,86.6 175.8,81.7 			"/>
		</g>
		<g>
			<path class="st4" d="M176.4,79.7h-50.7c-1.7,0-3.1-1.4-3.1-3.1v-1.9c0-1.7,1.4-3.1,3.1-3.1h50.7c1.7,0,3.1,1.4,3.1,3.1v1.9
				C179.5,78.3,178.2,79.7,176.4,79.7z"/>
			
				<radialGradient id="SVGID_34_" cx="150.0226" cy="309.3782" r="76.9974" gradientTransform="matrix(1 0 0 -5.996792e-02 0 97.3078)" gradientUnits="userSpaceOnUse">
				<stop  offset="0" style="stop-color:#A66912"/>
				<stop  offset="0.151" style="stop-color:#B57B1D;stop-opacity:0.849"/>
				<stop  offset="0.7279" style="stop-color:#EABC45;stop-opacity:0.2721"/>
				<stop  offset="1" style="stop-color:#FFD554;stop-opacity:0"/>
			</radialGradient>
			<path class="st35" d="M176.4,79.7h-50.7c-1.7,0-3.1-1.4-3.1-3.1v-1.9c0-1.7,1.4-3.1,3.1-3.1h50.7c1.7,0,3.1,1.4,3.1,3.1v1.9
				C179.5,78.3,178.2,79.7,176.4,79.7z"/>
			
				<radialGradient id="SVGID_35_" cx="151.2078" cy="317.5263" r="76.9974" gradientTransform="matrix(1 0 0 -5.996792e-02 0 89.6482)" gradientUnits="userSpaceOnUse">
				<stop  offset="0" style="stop-color:#A66912"/>
				<stop  offset="0.151" style="stop-color:#B57B1D;stop-opacity:0.849"/>
				<stop  offset="0.7279" style="stop-color:#EABC45;stop-opacity:0.2721"/>
				<stop  offset="1" style="stop-color:#FFD554;stop-opacity:0"/>
			</radialGradient>
			<path class="st36" d="M176.4,79.7h-50.7c-1.7,0-3.1-1.4-3.1-3.1v-1.9c0-1.7,1.4-3.1,3.1-3.1h50.7c1.7,0,3.1,1.4,3.1,3.1v1.9
				C179.5,78.3,178.2,79.7,176.4,79.7z"/>
			
				<radialGradient id="SVGID_36_" cx="150.9115" cy="672.6588" r="76.9974" gradientTransform="matrix(1 0 0 -1.763842e-02 0 87.5085)" gradientUnits="userSpaceOnUse">
				<stop  offset="0" style="stop-color:#FFE675"/>
				<stop  offset="0.214" style="stop-color:#FFE26D;stop-opacity:0.786"/>
				<stop  offset="1" style="stop-color:#FFD554;stop-opacity:0"/>
			</radialGradient>
			<path class="st37" d="M176.4,79.7h-50.7c-1.7,0-3.1-1.4-3.1-3.1v-1.9c0-1.7,1.4-3.1,3.1-3.1h50.7c1.7,0,3.1,1.4,3.1,3.1v1.9
				C179.5,78.3,178.2,79.7,176.4,79.7z"/>
		</g>
		<path class="st38" d="M123.5,78.5"/>
		<g>
			<path class="st4" d="M188.8,47.4c-2.3-1.1-5.1,0-6.1,2.4c-2.1,5-5.3,13.4-6.7,19.8h0.4c2.8,0,5.1,2.3,5.1,5.1v1.8
				c0.2-0.1,0.3-0.3,0.5-0.4c2.4-2.4,5.9-8.5,9.2-23.5C191.8,50.4,190.7,48.3,188.8,47.4z"/>
			
				<radialGradient id="SVGID_37_" cx="221.7388" cy="246.3008" r="20.4561" gradientTransform="matrix(0.2874 -0.9578 -0.6123 -0.1837 274.5527 307.3687)" gradientUnits="userSpaceOnUse">
				<stop  offset="0" style="stop-color:#FFE675"/>
				<stop  offset="0.214" style="stop-color:#FFE26D;stop-opacity:0.786"/>
				<stop  offset="1" style="stop-color:#FFD554;stop-opacity:0"/>
			</radialGradient>
			<path class="st39" d="M188.8,47.4c-2.3-1.1-5.1,0-6.1,2.4c-2.1,5-5.3,13.4-6.7,19.8h0.4c2.8,0,5.1,2.3,5.1,5.1v1.8
				c0.2-0.1,0.3-0.3,0.5-0.4c2.4-2.4,5.9-8.5,9.2-23.5C191.8,50.4,190.7,48.3,188.8,47.4z"/>
			
				<radialGradient id="SVGID_38_" cx="182.8709" cy="169.1673" r="26.4668" gradientTransform="matrix(1 0 0 -1 0 247.0529)" gradientUnits="userSpaceOnUse">
				<stop  offset="0" style="stop-color:#A66912"/>
				<stop  offset="0.151" style="stop-color:#B57B1D;stop-opacity:0.849"/>
				<stop  offset="0.7279" style="stop-color:#EABC45;stop-opacity:0.2721"/>
				<stop  offset="1" style="stop-color:#FFD554;stop-opacity:0"/>
			</radialGradient>
			<path class="st40" d="M188.8,47.4c-2.3-1.1-5.1,0-6.1,2.4c-2.1,5-5.3,13.4-6.7,19.8h0.4c2.8,0,5.1,2.3,5.1,5.1v1.8
				c0.2-0.1,0.3-0.3,0.5-0.4c2.4-2.4,5.9-8.5,9.2-23.5C191.8,50.4,190.7,48.3,188.8,47.4z"/>
			
				<radialGradient id="SVGID_39_" cx="210.9189" cy="296.4254" r="26.4668" gradientTransform="matrix(0.3066 -0.9518 -0.2867 -9.234482e-02 197.7055 292.684)" gradientUnits="userSpaceOnUse">
				<stop  offset="0" style="stop-color:#A66912"/>
				<stop  offset="0.151" style="stop-color:#B57B1D;stop-opacity:0.849"/>
				<stop  offset="0.7279" style="stop-color:#EABC45;stop-opacity:0.2721"/>
				<stop  offset="1" style="stop-color:#FFD554;stop-opacity:0"/>
			</radialGradient>
			<path class="st41" d="M188.8,47.4c-2.3-1.1-5.1,0-6.1,2.4c-2.1,5-5.3,13.4-6.7,19.8h0.4c2.8,0,5.1,2.3,5.1,5.1v1.8
				c0.2-0.1,0.3-0.3,0.5-0.4c2.4-2.4,5.9-8.5,9.2-23.5C191.8,50.4,190.7,48.3,188.8,47.4z"/>
			
				<radialGradient id="SVGID_40_" cx="226.1853" cy="252.5496" r="26.4668" gradientTransform="matrix(0.2874 -0.9578 -0.4534 -0.136 241.4156 314.8011)" gradientUnits="userSpaceOnUse">
				<stop  offset="0" style="stop-color:#A66912"/>
				<stop  offset="0.151" style="stop-color:#B57B1D;stop-opacity:0.849"/>
				<stop  offset="0.7279" style="stop-color:#EABC45;stop-opacity:0.2721"/>
				<stop  offset="1" style="stop-color:#FFD554;stop-opacity:0"/>
			</radialGradient>
			<path class="st42" d="M188.8,47.4c-2.3-1.1-5.1,0-6.1,2.4c-2.1,5-5.3,13.4-6.7,19.8h0.4c2.8,0,5.1,2.3,5.1,5.1v1.8
				c0.2-0.1,0.3-0.3,0.5-0.4c2.4-2.4,5.9-8.5,9.2-23.5C191.8,50.4,190.7,48.3,188.8,47.4z"/>
		</g>
		<path class="st43" d="M174.1,46.6c-5.6,4.7-18.9,4.5-22.3,4.4c-0.5,0-1,0-1.6,0c-3.4,0.1-16.8,0.3-22.4-4.4
			c-1.6-1.3-3.5-2.2-5.6-2.2c-0.4,0-1.2,0.2-1.7,0.3l0.7,5.6c0,0,5,11.8,6.3,19.3h46.3c0,0,2.4-10.7,6.3-19.3l0.8-5.6
			c-0.4-0.1-1-0.2-1.4-0.2C177.7,44.5,175.7,45.3,174.1,46.6z"/>
	</g>
</g>
</svg>
