<?xml version="1.0" encoding="utf-8"?>
<!-- Generator: Adobe Illustrator 23.1.0, SVG Export Plug-In . SVG Version: 6.00 Build 0)  -->
<svg version="1.1" id="Слой_1" xmlns="http://www.w3.org/2000/svg" xmlns:xlink="http://www.w3.org/1999/xlink" x="0px" y="0px"
	 viewBox="0 0 292 242" style="enable-background:new 0 0 292 242;" xml:space="preserve">
<style type="text/css">
	.st0{fill:#E03E36;}
	.st1{display:none;fill:#E03E36;}
</style>
<g>
	<g>
		<path class="st0" d="M143.1,108.7c0,0-5-19-35-4s-24,43-19,48s14,11,27-10c0,0,2,10,12,16c0,0-9-10-7-30l-6-9c0,0-13,36-23,26
			c-6-6,15-34,41-37c0,0,4-5,0,51c0,0,9-7,11-34c0,0,1-11,17-19c0,0-3-5-10-2S143.1,108.7,143.1,108.7z"/>
		<path class="st0" d="M185.1,99.7c0,0-25,3-25,23s26,9,29,12s-13,19-34,17c0,0,2,8,10,7s30-7,32-17s-8-17-15-17s-14,1-14-1
			s4-10,19-17C187.1,106.7,192.1,103.7,185.1,99.7z"/>
		<path class="st0" d="M200.1,43.7c0,0,5,17,5,49l-2,67c0,0,8,4,9-24c0,0-1-20,9-3s21,17,21,17s10,16,30,5c0,0-2,65-6,86
			c0,0,8-22,16-60s12-55,6-75c0,0-6-5-14-6c0,0-2,49-18,51c-12,2-5-38-5-38l-9-4c0,0-7,15-1,36c0,0-17-12-22-22c0-1-1-1,6-11
			s7-11,8-13s-2-10-2-10s-15,19-16,19s2-44-7-60C208.1,47.7,206.1,44.7,200.1,43.7z"/>
		<path class="st0" d="M63.1,111.7c0,0,29-21,30-72c0,0,0-32-32-38s-67,49-59,83s38,31,41,25c0,0,0,50-9,76c0,0-1,1,2,4s6,4,6,4
			s29-15,35-58C77.1,135.7,80.1,122.7,63.1,111.7z M44.1,92.7c-4,9-18,20-29,9s-8-53,21-80s64-9,42,44c0,0-8,25-24,38c0,0-2,0,3-10
			s20-50-3-57v-6c0,0-3-6-7-7C47.1,23.7,48.1,83.7,44.1,92.7z M54.1,40.7c0,0,5,0,6,8c1,10-5,17-5,17C56.1,56.7,54.1,40.7,54.1,40.7
			z M48.1,172.7c4-20,5-58,5-58s15-2,15,14C68.1,147.7,48.1,172.7,48.1,172.7z"/>
	</g>
	<g>
		<path class="st1" d="M179.3,48.6l0.9-0.6l1-3.4c-0.4-0.1-1-0.2-1.5-0.2c-2.1,0-4,0.9-5.6,2.2c-5.6,4.7-18.9,4.5-22.3,4.4
			c-0.5,0-1,0-1.6,0c-3.4,0.1-16.8,0.3-22.4-4.4c-1.6-1.3-3.5-2.2-5.6-2.2c-0.5,0-1.1,0.1-1.5,0.2l1,3.6l0.6,0.4
			c9.6,6.2,11.5,13.3,11.6,17.6h33.7C167.8,61.9,169.6,54.8,179.3,48.6z"/>
		<path class="st0" d="M169.8,68H132c0.4-3.3-0.1-11-10.6-17.7c2,4.8,5,12.7,6.2,18.9l0.1,0.4h4h38.4h4l0.1-0.4
			c1.3-6.2,4.3-14,6.2-18.9C169.9,57,169.4,64.7,169.8,68z"/>
		<path class="st0" d="M112.9,47.4c2.3-1.1,5.1,0,6.1,2.4c2.1,5,5.3,13.4,6.7,19.8h-0.4c-2.8,0-5.1,2.3-5.1,5.1v1.8
			c-0.2-0.1-0.3-0.3-0.5-0.4c-2.4-2.4-5.9-8.5-9.2-23.5C109.9,50.5,111,48.3,112.9,47.4z"/>
		<path class="st0" d="M182.9,18.3c-10.1,4.9-21.4,7.2-27.4,8.2c-2.9,0.5-5.8,0.5-8.7,0c-6-1-17.3-3.4-27.3-8.2
			c-0.9-0.5-2,0.3-1.9,1.4c1.1,9.8,2.8,22.1,2.8,22.1c0.4-0.1,1.5-0.3,2.1-0.3c2.1,0,4,0.9,5.6,2.2c5.6,4.7,19,4.5,22.4,4.4
			c0.5,0,1,0,1.6,0c3.4,0.1,16.7,0.3,22.3-4.4c1.6-1.3,3.5-2.2,5.6-2.2c0.5,0,1.4,0.2,1.8,0.3c0,0,2.3-16.4,3.2-22.1
			C184.9,18.7,183.8,17.9,182.9,18.3z"/>
		<path class="st0" d="M171.7,85.8l4.2-4.1h-49.3l4.7,4.6c-0.4,0.4-0.7,0.9-0.9,1.5c-0.8,2.7-1.9,10.4-1.9,10.7l1.5,0.2
			c0-0.1,1.1-7.9,1.9-10.4c0.2-0.7,0.7-1.1,1.4-1.3l35.8-0.3c1.6,0.2,2.5,0.6,2.8,1.6c0.8,2.6,1.9,10.4,1.9,10.4l1.5-0.2
			c0-0.3-1.1-8-1.9-10.7C173,86.9,172.5,86.2,171.7,85.8z"/>
		<path class="st0" d="M182,83.9c-0.4-2.6-0.9-4.3-3.1-5.3c0.4-0.5,0.7-1.2,0.7-2v-1.9c0-1.7-1.4-3.1-3.1-3.1h-50.7
			c-1.7,0-3.1,1.4-3.1,3.1v1.9c0,0.7,0.2,1.3,0.6,1.8c-2.4,1-3,2.7-3.4,5.4l-2,14.9l2,0.3l2-14.9c0.4-2.6,0.6-4,4.9-4.4h48.3
			c4.3,0.4,4.5,1.8,4.9,4.4l2,14.9l2-0.3L182,83.9z"/>
		<path class="st0" d="M188.8,47.4c-2.3-1.1-5.1,0-6.1,2.4c-2.1,5-5.3,13.4-6.7,19.8h0.4c2.8,0,5.1,2.3,5.1,5.1v1.8
			c0.2-0.1,0.3-0.3,0.5-0.4c2.4-2.4,5.9-8.5,9.2-23.5C191.8,50.5,190.7,48.3,188.8,47.4z"/>
	</g>
</g>
</svg>
