<?xml version="1.0" encoding="utf-8"?>
<!-- Generator: Adobe Illustrator 23.1.0, SVG Export Plug-In . SVG Version: 6.00 Build 0)  -->
<svg version="1.1" id="Слой_1" xmlns="http://www.w3.org/2000/svg" xmlns:xlink="http://www.w3.org/1999/xlink" x="0px" y="0px"
	 viewBox="0 0 20 19" style="enable-background:new 0 0 20 19;" xml:space="preserve">
<style type="text/css">
	.st0{fill:#fff;}
</style>
<path id="basket" class="st0" d="M20,2.7l-3,9c-0.1,0.2-0.3,0.3-0.5,0.3H9v-1h7.1l2.7-8H6V2h13.5c0.2,0,0.3,0.1,0.4,0.2
	C20,2.3,20,2.5,20,2.7z M4,0.4C3.9,0.2,3.7,0,3.5,0H0v1h3.1l3.4,12.6C6.6,13.8,6.8,14,7,14h10v-1H7.4L4,0.4z M10,17c0,1.1-0.9,2-2,2
	s-2-0.9-2-2s0.9-2,2-2S10,15.9,10,17z M9,17c0-0.6-0.4-1-1-1s-1,0.4-1,1s0.4,1,1,1S9,17.6,9,17z M17,17c0,1.1-0.9,2-2,2s-2-0.9-2-2
	s0.9-2,2-2S17,15.9,17,17z M16,17c0-0.6-0.4-1-1-1s-1,0.4-1,1s0.4,1,1,1C15.6,18,16,17.6,16,17z"/>
</svg>
