<svg xmlns="http://www.w3.org/2000/svg" width="49" height="45" viewBox="0 0 49 45"><defs><clipPath id="1doba"><path fill="#fff" d="M14 10h4l2 10h9"/></clipPath><clipPath id="1dobb"><path fill="#fff" d="M20 12h12l-3 7h-7"/></clipPath><clipPath id="1dobc"><path fill="#fff" d="M27.5 22a1.5 1.5 0 1 1 0 3 1.5 1.5 0 0 1 0-3z"/></clipPath><clipPath id="1dobd"><path fill="#fff" d="M21.5 22a1.5 1.5 0 1 1 0 3 1.5 1.5 0 0 1 0-3z"/></clipPath></defs><g><g><g><path fill="none" stroke="#fff" stroke-miterlimit="20" stroke-width="2" d="M14 10v0h4v0l2 10v0h9v0" clip-path="url(&quot;#1doba&quot;)"/></g><g><path fill="none" stroke="#fff" stroke-miterlimit="20" stroke-width="2" d="M20 12v0h12v0l-3 7v0h-7v0" clip-path="url(&quot;#1dobb&quot;)"/></g><g><path fill="none" stroke="#fff" stroke-miterlimit="20" stroke-width="2" d="M27.5 22a1.5 1.5 0 1 1 0 3 1.5 1.5 0 0 1 0-3z" clip-path="url(&quot;#1dobc&quot;)"/></g><g><path fill="none" stroke="#fff" stroke-miterlimit="20" stroke-width="2" d="M21.5 22a1.5 1.5 0 1 1 0 3 1.5 1.5 0 0 1 0-3z" clip-path="url(&quot;#1dobd&quot;)"/></g><g><path fill="#fff" d="M12 17v1H9v3H8v-3H5v-1h3v-3h1v3z"/></g></g></g></svg>