<?xml version="1.0" encoding="utf-8"?>
<!-- Generator: Adobe Illustrator 23.1.0, SVG Export Plug-In . SVG Version: 6.00 Build 0)  -->
<svg version="1.1" id="Слой_1" xmlns="http://www.w3.org/2000/svg" xmlns:xlink="http://www.w3.org/1999/xlink" x="0px" y="0px"
	 viewBox="0 0 21 20" style="enable-background:new 0 0 21 20;" xml:space="preserve">
<style type="text/css">
	.st0{fill:#CCCCCC;}
</style>
<path id="blog" class="st0" d="M20.8,3.1C20.7,3,20.6,3,20.4,3L18,3.3V0.5c0-0.2-0.1-0.3-0.2-0.4c-0.2-0.1-0.3-0.1-0.5,0l-6.8,3.9
	L3.7,0.1C3.6,0,3.4,0,3.2,0.1C3.1,0.2,3,0.3,3,0.5v2.8L0.6,3C0.4,3,0.3,3,0.2,3.1C0.1,3.2,0,3.4,0,3.5v16c0,0.1,0.1,0.3,0.2,0.4
	C0.3,20,0.4,20,0.5,20c0,0,0.1,0,0.1,0l9.9-2l9.9,2c0,0,0.1,0,0.1,0c0.1,0,0.2,0,0.3-0.1c0.1-0.1,0.2-0.2,0.2-0.4v-16
	C21,3.4,20.9,3.2,20.8,3.1z M17,3.4l-4.2,0.4L17,1.4V3.4z M4,1.4l4.2,2.4L4,3.4V1.4z M1,4.1L10,5v12.1l-9,1.8V4.1z M20,18.9l-9-1.8
	V5l9-0.9V18.9z M18,12h-5v-1h5V12z M18,9h-5V8h5V9z M18,15h-5v-1h5V15z M3,11h5v1H3V11z M3,8h5v1H3V8z M3,14h5v1H3V14z"/>
</svg>
