<?xml version="1.0" encoding="utf-8"?>
<!-- Generator: Adobe Illustrator 23.1.0, SVG Export Plug-In . SVG Version: 6.00 Build 0)  -->
<svg version="1.1" id="Слой_1" xmlns="http://www.w3.org/2000/svg" xmlns:xlink="http://www.w3.org/1999/xlink" x="0px" y="0px"
	 viewBox="0 0 24 24" style="enable-background:new 0 0 24 24;" xml:space="preserve">
<style type="text/css">
	.st0{fill:#e13028;}
</style>
<path id="cell" class="st0" d="M5.1,1.3L5.1,1.3l5.4,5.4L7.9,9.3L7.3,10l0.3,0.8c0.8,1.9,3.7,4.8,5.6,5.6l0.8,0.3l0.6-0.6l2.6-2.6
	l5.3,5.4l-2.9,2.9c-0.6,0.6-1.3,0.9-2.3,0.9c-5,0-13-6.8-15.4-13.1C1.4,8.2,0.8,5.7,2.2,4.3L5.1,1.3C5.1,1.3,5.1,1.3,5.1,1.3 M5.1,0
	c-0.4,0-0.7,0.1-1,0.4L1.2,3.3c-1.4,1.4-1.6,3.9-0.5,6.8C3.4,16.9,11.9,24,17.4,24c1.3,0,2.4-0.4,3.3-1.2l2.9-2.9
	c0.5-0.5,0.5-1.4,0-1.9l-5.3-5.3c-0.3-0.3-0.6-0.4-1-0.4s-0.7,0.1-1,0.4l-2.6,2.6c-1.6-0.7-4.2-3.3-4.9-4.9l2.6-2.6
	c0.5-0.5,0.5-1.4,0-1.9L6.1,0.4C5.8,0.1,5.5,0,5.1,0L5.1,0z"/>
</svg>
