<?xml version="1.0" encoding="utf-8"?>
<!-- Generator: Adobe Illustrator 23.1.0, SVG Export Plug-In . SVG Version: 6.00 Build 0)  -->
<svg version="1.1" id="Слой_1" xmlns="http://www.w3.org/2000/svg" xmlns:xlink="http://www.w3.org/1999/xlink" x="0px" y="0px"
	 viewBox="0 0 24 24" enable-background="new 0 0 24 24" xml:space="preserve">
<path id="collaboration" fill="#ccc" d="M18,6l0.19,0.855l-4.675-1.701c-1.097-0.491-2.405-0.25-3.254,0.601L10.016,6H6L1,5v10
	h2.316l5.311,4.523c0.325,0.325,0.752,0.487,1.179,0.487c0.427,0,0.854-0.162,1.179-0.487c0.16-0.16,0.279-0.345,0.36-0.542
	c0.323,0.311,0.739,0.469,1.157,0.469c0.427,0,0.854-0.162,1.179-0.487c0.212-0.212,0.347-0.469,0.421-0.739
	c0.209,0.089,0.432,0.137,0.656,0.137c0.427,0,0.854-0.162,1.179-0.487c0.218-0.218,0.356-0.484,0.428-0.763
	c0.196,0.076,0.402,0.116,0.609,0.116c0.427,0,0.854-0.162,1.179-0.487c0.649-0.65,0.649-1.707-0.002-2.359l-5.499-5.441
	L11.95,8.228L9.697,10.44c-0.372,0.373-0.98,0.373-1.354,0c-0.373-0.374-0.373-0.981,0-1.355L10.43,7l0.538-0.538
	c0.559-0.56,1.416-0.718,2.172-0.381l5.311,1.936L20,15h3V5L18,6z M2,6.22l2.802,0.56L3.198,14H2V6.22z M7.636,8.379
	c-0.762,0.763-0.762,2.005,0,2.768c0.382,0.382,0.884,0.573,1.386,0.573c0.5,0,1-0.19,1.379-0.569l1.538-1.508l5.507,5.449
	c0.26,0.26,0.26,0.683,0,0.943c-0.259,0.259-0.684,0.26-0.94,0.002l-3.56-3.61l-0.713,0.702l3.03,3.074
	c0.26,0.26,0.227,0.706-0.033,0.965c-0.261,0.26-0.685,0.259-0.939,0.003l-3.377-3.444l-0.715,0.7l2.816,2.871
	c0.26,0.26,0.219,0.698-0.04,0.958c-0.262,0.261-0.685,0.258-0.933,0.011l-2.933-3.122L8.38,15.831l1.919,2.041
	c0.26,0.26,0.239,0.684-0.021,0.944c-0.259,0.258-0.681,0.261-0.973-0.027l-5.168-4.403L5.778,7h3.238L7.636,8.379z M22,14h-1.198
	l-1.604-7.22L22,6.22V14z"/>
</svg>
