<?xml version="1.0" encoding="utf-8"?>
<!-- Generator: Adobe Illustrator 23.1.0, SVG Export Plug-In . SVG Version: 6.00 Build 0)  -->
<svg version="1.1" id="Слой_1" xmlns="http://www.w3.org/2000/svg" xmlns:xlink="http://www.w3.org/1999/xlink" x="0px" y="0px"
	 viewBox="0 0 24 24" enable-background="new 0 0 24 24" xml:space="preserve">
<path id="contacts" fill="#ccc" d="M8.562,6.129l2.23,2.23L9.728,9.425L9.253,9.9l0.26,0.619c0.434,1.034,1.93,2.53,2.964,2.964
	l0.619,0.26l0.475-0.475l1.065-1.065l2.23,2.23l-1.237,1.237C15.409,15.892,15.103,16,14.696,16c-2.168,0-6.143-3.061-7.393-6.312
	C6.897,8.633,6.905,7.787,7.326,7.366L8.562,6.129 M8.562,5C8.386,5,8.21,5.067,8.076,5.201L6.618,6.659
	c-0.723,0.723-0.811,1.926-0.249,3.388C7.683,13.463,11.925,17,14.696,17c0.646,0,1.211-0.192,1.641-0.622l1.458-1.458
	c0.268-0.268,0.268-0.704,0-0.972l-2.673-2.673c-0.134-0.134-0.31-0.201-0.486-0.201c-0.176,0-0.352,0.067-0.486,0.201l-1.286,1.286
	c-0.786-0.33-2.097-1.639-2.43-2.43l1.286-1.286c0.268-0.268,0.268-0.704,0-0.972L9.048,5.201C8.914,5.067,8.738,5,8.562,5L8.562,5z
	 M20,3c0.551,0,1,0.449,1,1v14c0,0.551-0.449,1-1,1h-9h-0.414l-0.293,0.293L8,21.586l-2.293-2.293L5.414,19H5H4
	c-0.551,0-1-0.449-1-1V4c0-0.551,0.449-1,1-1H20 M20,2H4C2.895,2,2,2.895,2,4v14c0,1.105,0.895,2,2,2h1l3,3l3-3h9
	c1.105,0,2-0.895,2-2V4C22,2.895,21.105,2,20,2L20,2z"/>
</svg>
