<?xml version="1.0" encoding="utf-8"?>
<!-- Generator: Adobe Illustrator 23.1.0, SVG Export Plug-In . SVG Version: 6.00 Build 0)  -->
<svg version="1.1" id="Capa_1" xmlns="http://www.w3.org/2000/svg" xmlns:xlink="http://www.w3.org/1999/xlink" x="0px" y="0px"
	 viewBox="0 0 405 469" enable-background="new 0 0 405 469" xml:space="preserve">
<g>
	<g>
		<g>
			<path fill="#F7F7F7" d="M298.421,0H42.632C19.087,0,0,19.089,0,42.637v298.454h42.632V52.63c0-5.519,4.473-9.993,9.992-9.993
				h245.797V0z"/>
			<path fill="#F7F7F7" d="M362.368,85.272H127.895c-23.554,0-42.632,19.079-42.632,42.637v298.454
				c0,23.556,19.077,42.637,42.632,42.637h234.474C385.922,469,405,449.921,405,426.363V127.909
				C404.999,104.353,385.922,85.272,362.368,85.272z M352.376,426.363h-214.49c-5.518,0-9.992-4.474-9.992-9.993V137.902
				c0-5.519,4.473-9.993,9.992-9.993h214.49c5.518,0,9.992,4.474,9.992,9.993V416.37
				C362.368,421.889,357.895,426.363,352.376,426.363z"/>
		</g>
	</g>
</g>
</svg>
