<?xml version="1.0" encoding="utf-8"?>
<!-- Generator: Adobe Illustrator 23.1.0, SVG Export Plug-In . SVG Version: 6.00 Build 0)  -->
<svg version="1.1" id="Слой_1" xmlns="http://www.w3.org/2000/svg" xmlns:xlink="http://www.w3.org/1999/xlink" x="0px" y="0px"
	 viewBox="0 0 24 24" enable-background="new 0 0 24 24" xml:space="preserve">
<path id="delivery" fill="#ccc" d="M9,3v3H4.701L1,12.874V18h2v-1H2v-3.874L5.299,7H9v11h1h5v-1h-5v-4h12v4h-1v1h2V3H9z M10,12V6
	V4h12v8H10z M6,16c-1.105,0-2,0.895-2,2s0.895,2,2,2s2-0.895,2-2S7.105,16,6,16z M6,19c-0.551,0-1-0.449-1-1s0.449-1,1-1
	s1,0.449,1,1S6.551,19,6,19z M18,16c-1.105,0-2,0.895-2,2s0.895,2,2,2s2-0.895,2-2S19.105,16,18,16z M18,19c-0.551,0-1-0.449-1-1
	s0.449-1,1-1s1,0.449,1,1S18.551,19,18,19z"/>
</svg>
