<?xml version="1.0" encoding="utf-8"?>
<!-- Generator: Adobe Illustrator 23.1.0, SVG Export Plug-In . SVG Version: 6.00 Build 0)  -->
<svg version="1.1" id="Слой_1" xmlns="http://www.w3.org/2000/svg" xmlns:xlink="http://www.w3.org/1999/xlink" x="0px" y="0px"
	 viewBox="0 0 20 17" style="enable-background:new 0 0 20 17;" xml:space="preserve">
<style type="text/css">
	.st0{fill-rule:evenodd;clip-rule:evenodd;fill:#E03E36;}
</style>
<path id="favorite_x5F_" class="st0" d="M10,17c0,0,3.9-3.1,5.1-4.2c0.9-0.9,2.4-2.4,3.2-3.3c0.7-0.8,1.2-1.8,1.4-2.5
	C19.9,6.4,20,5.8,20,5.3C20,2.4,18.1,0,15,0c-1.8,0-4,1.3-5,2.5l0,0C9,1.3,6.8,0,5,0C1.9,0,0,2.4,0,5.3c0,0.6,0.1,1.1,0.3,1.6
	C0.5,7.6,1,8.6,1.7,9.4c0.8,1,2.3,2.4,3.2,3.3C6.1,13.9,10,17,10,17L10,17z"/>
</svg>
