<svg version="1.1" id="Слой_1" xmlns="http://www.w3.org/2000/svg" xmlns:xlink="http://www.w3.org/1999/xlink" x="0px" y="0px"
	 viewBox="0 0 20 17" style="enable-background:new 0 0 20 17;" xml:space="preserve">

<path  fill="#CCCCCC" id="favorite" class="st0" d="M15,1c2.8,0,4,2.1,4,4.3c0,0.4-0.1,0.9-0.2,1.3c-0.1,0.4-0.5,1.3-1.2,2.2
	c-0.6,0.7-1.7,1.9-3.1,3.2c-0.8,0.8-3.1,2.6-4.4,3.7c-1.1-0.9-3.6-2.9-4.4-3.7C4.1,10.7,3,9.5,2.5,8.8C1.7,7.9,1.3,6.9,1.2,6.6
	C1.1,6.2,1,5.7,1,5.3C1,3.1,2.2,1,5,1c1.4,0,3.4,1.1,4.2,2.2C9.4,3.4,9.7,3.5,10,3.5s0.6-0.1,0.8-0.3C11.6,2.1,13.6,1,15,1 M15,0
	c-1.8,0-4,1.3-5,2.5l0,0l0,0C9,1.3,6.8,0,5,0C1.9,0,0,2.4,0,5.3c0,0.6,0.1,1.1,0.3,1.6C0.5,7.6,1,8.6,1.7,9.4c0.8,1,2.3,2.4,3.2,3.3
	C6.1,13.9,10,17,10,17l0,0c0,0,3.9-3.1,5.1-4.2c0.9-0.9,2.4-2.4,3.2-3.3c0.7-0.8,1.2-1.8,1.4-2.5C19.9,6.4,20,5.8,20,5.3
	C20,2.4,18.1,0,15,0L15,0z"/>
</svg>
