<?xml version="1.0" encoding="utf-8"?>
<!-- Generator: Adobe Illustrator 23.1.0, SVG Export Plug-In . SVG Version: 6.00 Build 0)  -->
<svg version="1.1" id="Слой_1" xmlns="http://www.w3.org/2000/svg" xmlns:xlink="http://www.w3.org/1999/xlink" x="0px" y="0px"
	 viewBox="0 0 24 24" enable-background="new 0 0 24 24" xml:space="preserve">
<path id="filter" fill="#999999" d="M5,6H4V1h1V6z M4,23h1v-8H4V23z M7,10.5C7,11.881,5.881,13,4.5,13C3.119,13,2,11.881,2,10.5
	C2,9.119,3.119,8,4.5,8C5.881,8,7,9.119,7,10.5z M6,10.5C6,9.673,5.327,9,4.5,9S3,9.673,3,10.5S3.673,12,4.5,12S6,11.327,6,10.5z
	 M12,23h1v-3h-1V23z M13,1h-1v10h1V1z M15,15.5c0,1.381-1.119,2.5-2.5,2.5c-1.381,0-2.5-1.119-2.5-2.5c0-1.381,1.119-2.5,2.5-2.5
	C13.881,13,15,14.119,15,15.5z M14,15.5c0-0.827-0.673-1.5-1.5-1.5S11,14.673,11,15.5s0.673,1.5,1.5,1.5S14,16.327,14,15.5z M21,1
	h-1v3h1V1z M20,23h1V13h-1V23z M23,8.5c0,1.381-1.119,2.5-2.5,2.5C19.119,11,18,9.881,18,8.5C18,7.119,19.119,6,20.5,6
	C21.881,6,23,7.119,23,8.5z M22,8.5C22,7.673,21.327,7,20.5,7S19,7.673,19,8.5s0.673,1.5,1.5,1.5S22,9.327,22,8.5z"/>
</svg>
