<?xml version="1.0" encoding="utf-8"?>
<!-- Generator: Adobe Illustrator 23.1.0, SVG Export Plug-In . SVG Version: 6.00 Build 0)  -->
<svg version="1.1" id="Слой_1" xmlns="http://www.w3.org/2000/svg" xmlns:xlink="http://www.w3.org/1999/xlink" x="0px" y="0px"
	 viewBox="0 0 15 16" style="enable-background:new 0 0 15 16;" xml:space="preserve">
<style type="text/css">
	.st0{fill:#2E2E2E;}
</style>
<path id="filter16" class="st0" d="M2.5,5h-1V0h1V5z M1.5,16h1v-5h-1V16z M4,8c0,1.1-0.9,2-2,2S0,9.1,0,8s0.9-2,2-2S4,6.9,4,8z M3,8
	c0-0.6-0.4-1-1-1S1,7.4,1,8s0.4,1,1,1S3,8.6,3,8z M7.5,16h1v-2h-1V16z M8.5,0h-1v8h1V0z M10,11c0,1.1-0.9,2-2,2s-2-0.9-2-2
	s0.9-2,2-2S10,9.9,10,11z M9,11c0-0.6-0.4-1-1-1s-1,0.4-1,1s0.4,1,1,1S9,11.6,9,11z M13.5,0h-1v3h1V0z M12.5,16h1V9h-1V16z M15,6
	c0,1.1-0.9,2-2,2s-2-0.9-2-2s0.9-2,2-2S15,4.9,15,6z M14,6c0-0.6-0.4-1-1-1s-1,0.4-1,1s0.4,1,1,1S14,6.6,14,6z"/>
</svg>
