<svg width="39" height="18" viewBox="0 0 39 18" fill="none" xmlns="http://www.w3.org/2000/svg">
<path d="M4 4H6V8H10V10H6V14H4V10.001H0V8.001H4V4Z" fill="#009678"/>
<path d="M38.3848 0C38.045 0 37.7695 0.26864 37.7695 0.6V1.2H35.2676V0.6C35.2676 0.26864 34.9921 0 34.6523 0C34.3126 0 34.0371 0.26864 34.0371 0.6V1.8C34.0371 2.13084 33.7611 2.4 33.4219 2.4H23.5371C23.1979 2.4 22.9219 2.13084 22.9219 1.8V0.6C22.9219 0.26864 22.6464 0 22.3066 0C21.9669 0 21.6914 0.26864 21.6914 0.6V1.2H19.2305V0.6C19.2305 0.26864 18.955 0 18.6152 0C18.2755 0 18 0.26864 18 0.6V17.4C18 17.7314 18.2755 18 18.6152 18C18.955 18 19.2305 17.7314 19.2305 17.4V16.8H21.6914V17.4C21.6914 17.7314 21.9669 18 22.3066 18C22.6464 18 22.9219 17.7314 22.9219 17.4V16.2C22.9219 15.8692 23.1979 15.6 23.5371 15.6H33.4219C33.7611 15.6 34.0371 15.8692 34.0371 16.2V17.4C34.0371 17.7314 34.3126 18 34.6523 18C34.9921 18 35.2676 17.7314 35.2676 17.4V16.8H37.7695V17.4C37.7695 17.7314 38.045 18 38.3848 18C38.7245 18 39 17.7314 39 17.4V0.6C39 0.26864 38.7245 0 38.3848 0ZM35.2676 6H37.7695V8.4H35.2676V6ZM35.2676 9.6H37.7695V12H35.2676V9.6ZM37.7695 4.8H35.2676V2.4H37.7695V4.8ZM21.6914 8.4H19.2305V6H21.6914V8.4ZM19.2305 9.6H21.6914V12H19.2305V9.6ZM21.6914 2.4V4.8H19.2305V2.4H21.6914ZM19.2305 13.2H21.6914V15.6H19.2305V13.2ZM33.4219 14.4H23.5371C23.3214 14.4 23.1144 14.4366 22.9219 14.5032V3.4968C23.1144 3.5634 23.3214 3.6 23.5371 3.6H33.4219C33.6376 3.6 33.8445 3.5634 34.0371 3.4968V14.5032C33.8445 14.4366 33.6376 14.4 33.4219 14.4ZM35.2676 15.6V13.2H37.7695V15.6H35.2676Z" fill="#009678"/>
<path d="M31.3022 8.50071L27.6108 6.10072C27.4219 5.97796 27.1792 5.96652 26.9792 6.07096C26.7792 6.17536 26.6543 6.37868 26.6543 6.59996V11.3999C26.6543 11.6212 26.7792 11.8245 26.9792 11.9289C27.1788 12.0331 27.4215 12.0222 27.6108 11.8992L31.3022 9.49919C31.4733 9.38791 31.5762 9.20055 31.5762 8.99995C31.5762 8.79935 31.4733 8.61199 31.3022 8.50071ZM27.8848 10.2788V7.72107L29.8518 8.99995L27.8848 10.2788Z" fill="#009678"/>
</svg>
