<?xml version="1.0" encoding="utf-8"?>
<!-- Generator: Adobe Illustrator 23.1.0, SVG Export Plug-In . SVG Version: 6.00 Build 0)  -->
<svg version="1.1" id="Capa_1" xmlns="http://www.w3.org/2000/svg" xmlns:xlink="http://www.w3.org/1999/xlink" x="0px" y="0px"
	 viewBox="0 0 423 510" enable-background="new 0 0 423 510" xml:space="preserve">
<g>
	<path fill="#999999" d="M388.095,111.361h-7.591c0.113-2.449,0.186-4.901,0.186-7.346c0-36.571-12.847-72.224-36.174-100.391
		c-1.967-2.375-4.951-3.718-8.014-3.619c-46.785,1.383-89.776,22.836-118.928,59.09c-1.995-0.23-4.02-0.361-6.076-0.361
		s-4.081,0.13-6.076,0.361C176.272,22.844,133.281,1.39,86.496,0.006c-3.095-0.102-6.047,1.244-8.014,3.619
		c-23.327,28.167-36.174,63.82-36.174,100.391c0,2.444,0.073,4.897,0.186,7.346h-7.591C15.658,111.362,0,126.956,0,146.123v87.66
		c0,14.005,8.364,26.093,20.374,31.594v206.597c0,20.968,17.13,38.027,38.184,38.027h305.884c21.054,0,38.184-17.059,38.184-38.027
		V265.375c12.01-5.5,20.374-17.589,20.374-31.594v-87.66C423,126.955,407.341,111.361,388.095,111.361L388.095,111.361z
		 M332.157,20.152c18.432,23.965,28.528,53.551,28.528,83.864c0,2.445-0.074,4.898-0.203,7.346h-96.401v-0.26
		c0-1.174-0.053-2.336-0.13-3.49c14.858-14.067,33.228-24.285,53.402-29.348c4.965-1.246,4.475-8.464-0.61-9.055
		c-0.359-0.042-0.719-0.082-1.079-0.121c-22.1-2.373-43.511,1.5-62.466,10.165c-4.147-5.372-9.313-9.919-15.211-13.36
		C262.177,38.866,295.687,22.504,332.157,20.152L332.157,20.152z M244.078,111.102v0.26h-65.157v-0.26
		c0-17.89,14.614-32.444,32.578-32.444S244.078,93.212,244.078,111.102z M62.313,104.016c0-30.312,10.097-59.898,28.528-83.864
		c36.471,2.352,69.982,18.715,94.171,45.741c-5.897,3.44-11.064,7.988-15.211,13.36c-18.955-8.665-40.366-12.538-62.466-10.165
		c-0.36,0.039-0.72,0.079-1.079,0.121c-5.085,0.592-5.575,7.809-0.61,9.055c20.173,5.063,38.543,15.281,53.402,29.348
		c-0.077,1.155-0.13,2.316-0.13,3.49v0.26H62.516C62.387,108.914,62.313,106.46,62.313,104.016z M20.003,146.123
		c0-8.182,6.684-14.839,14.9-14.839h134.015v117.338H34.904c-8.217,0-14.9-6.657-14.9-14.839v-87.661L20.003,146.123z
		 M382.621,471.973c0,9.983-8.155,18.105-18.18,18.105H58.557c-10.024,0-18.18-8.122-18.18-18.105v-203.43h342.243V471.973z
		 M402.996,233.782c0,8.182-6.684,14.839-14.9,14.839H254.08V131.283h134.015c8.217,0,14.9,6.657,14.9,14.839v87.661H402.996z"/>
</g>
</svg>
