<?xml version="1.0" encoding="utf-8"?>
<!-- Generator: Adobe Illustrator 23.1.0, SVG Export Plug-In . SVG Version: 6.00 Build 0)  -->
<svg version="1.1" id="Layer_1" xmlns="http://www.w3.org/2000/svg" xmlns:xlink="http://www.w3.org/1999/xlink" x="0px" y="0px"
	 viewBox="0 0 552 551" style="enable-background:new 0 0 552 551;" xml:space="preserve">
<style type="text/css">
	.st0{fill:#FFFFFF;}
</style>
<g>
	<path class="st0" d="M387.4,0H164.7C74.1,0,0.5,73.6,0.5,164.2v222.7C0.5,477.4,74.1,551,164.7,551h222.7
		c90.5,0,164.2-73.6,164.2-164.2V164.2C551.5,73.6,477.9,0,387.4,0z M496.1,386.9c0,60-48.7,108.7-108.7,108.7H164.7
		c-60,0-108.7-48.7-108.7-108.7V164.2c0-60,48.7-108.7,108.7-108.7h222.7c60,0,108.7,48.7,108.7,108.7L496.1,386.9L496.1,386.9z"/>
	<path class="st0" d="M276,133c-78.6,0-142.5,63.9-142.5,142.5S197.4,418,276,418s142.5-63.9,142.5-142.5S354.6,133,276,133z
		 M276,362.6c-48.1,0-87.1-39-87.1-87.1s39-87.1,87.1-87.1s87.1,39,87.1,87.1S324.1,362.6,276,362.6z"/>
	<circle class="st0" cx="418.8" cy="134.1" r="34.1"/>
</g>
</svg>
