<?xml version="1.0" encoding="utf-8"?>
<!-- Generator: Adobe Illustrator 23.1.0, SVG Export Plug-In . SVG Version: 6.00 Build 0)  -->
<svg version="1.1" id="Слой_1" xmlns="http://www.w3.org/2000/svg" xmlns:xlink="http://www.w3.org/1999/xlink" x="0px" y="0px"
	 viewBox="0 0 24 24" enable-background="new 0 0 24 24" xml:space="preserve">
<path id="location" fill="#e13028" d="M12,1C8.134,1,5,4.18,5,8.103S12,22,12,22s7-9.973,7-13.897S15.866,1,12,1z M6,8.103
	C6,4.738,8.692,2,12,2s6,2.738,6,6.103c0,2.595-3.79,8.813-6,12.123C9.79,16.916,6,10.698,6,8.103z M12,5c-1.657,0-3,1.343-3,3
	s1.343,3,3,3s3-1.343,3-3S13.657,5,12,5z M12,10c-1.103,0-2-0.897-2-2s0.897-2,2-2s2,0.897,2,2S13.103,10,12,10z"/>
</svg>
