<?xml version="1.0" encoding="utf-8"?>
<!-- Generator: Adobe Illustrator 23.1.0, SVG Export Plug-In . SVG Version: 6.00 Build 0)  -->
<svg version="1.1" id="Layer_1" xmlns="http://www.w3.org/2000/svg" xmlns:xlink="http://www.w3.org/1999/xlink" x="0px" y="0px"
	 viewBox="0 0 756 157" enable-background="new 0 0 756 157" xml:space="preserve">
<g>
	<g>
		
			<linearGradient id="SVGID_1_" gradientUnits="userSpaceOnUse" x1="295.3352" y1="33.2458" x2="300.2853" y2="30.1334" gradientTransform="matrix(10.2689 0 0 11.1983 -2393.3367 -267.2077)">
			<stop  offset="0" style="stop-color:#FFBEBC"/>
			<stop  offset="0.705" style="stop-color:#FC7E79"/>
		</linearGradient>
		<path fill-rule="evenodd" clip-rule="evenodd" fill="url(#SVGID_1_)" d="M636.506,121.948l-1.732-1.483
			c-4.218-3.602-4.959-10.168-1.115-14.386L678.78,54.51c3.602-4.218,10.168-4.959,14.386-1.115l1.732,1.489
			c4.218,3.595,4.959,10.168,1.115,14.38l-45.121,51.569C647.291,125.051,640.974,125.543,636.506,121.948z"/>
		
			<linearGradient id="SVGID_2_" gradientUnits="userSpaceOnUse" x1="397.2766" y1="45.9339" x2="398.0667" y2="44.3529" gradientTransform="matrix(2.3509 0 0 5.632 -261.4748 -181.9533)">
			<stop  offset="0" style="stop-color:#3F0806;stop-opacity:0"/>
			<stop  offset="1" style="stop-color:#3F0806"/>
		</linearGradient>
		<path opacity="0.4" fill-rule="evenodd" clip-rule="evenodd" fill="url(#SVGID_2_)" enable-background="new    " d="
			M672.712,63.438l-0.872-0.997l-6.941,7.938l0.741,0.866c11.907,11.9,6.823,23.925,4.094,28.143l0.991-1.115
			c1.614-1.863,4.094-4.71,6.691-7.807C680.144,85.749,683.988,74.59,672.712,63.438z"/>
		
			<linearGradient id="SVGID_3_" gradientUnits="userSpaceOnUse" x1="631.4024" y1="112.2483" x2="698.8065" y2="112.2483" gradientTransform="matrix(1 0 0 -1 0 158)">
			<stop  offset="0" style="stop-color:#FFC9C7"/>
			<stop  offset="1" style="stop-color:#FFF0F0"/>
		</linearGradient>
		<path fill-rule="evenodd" clip-rule="evenodd" fill="url(#SVGID_3_)" d="M696.269,56.117L651.135,4.554
			c-3.595-4.225-10.168-4.973-14.38-1.115l-1.732,1.476c-4.218,3.595-4.959,10.168-1.115,14.38l38.055,43.14l0.866,0.997
			c11.283,11.283,7.439,22.436,4.592,27.146c2.23-2.604,4.461-5.209,6.567-7.564c1.988-2.355,4.094-4.71,6.075-6.941
			c1.988-2.23,3.844-4.336,5.084-5.707c4.336-4.212,4.959-10.037,1.115-14.249L696.269,56.117z"/>
		<g>
			
				<linearGradient id="SVGID_4_" gradientUnits="userSpaceOnUse" x1="300.0591" y1="33.2484" x2="305.0092" y2="30.136" gradientTransform="matrix(10.2686 0 0 11.1983 -2384.5247 -267.2077)">
				<stop  offset="0" style="stop-color:#FFBEBC"/>
				<stop  offset="0.705" style="stop-color:#FC7E79"/>
			</linearGradient>
			<path fill-rule="evenodd" clip-rule="evenodd" fill="url(#SVGID_4_)" d="M693.783,121.948l-1.732-1.483
				c-4.218-3.602-4.959-10.168-1.115-14.386l45.121-51.569c3.595-4.218,10.168-4.959,14.38-1.115l1.738,1.489
				c4.212,3.595,4.959,10.168,1.115,14.38l-45.127,51.569C704.568,125.051,698.25,125.543,693.783,121.948z"/>
			
				<linearGradient id="SVGID_5_" gradientUnits="userSpaceOnUse" x1="418.0479" y1="45.8591" x2="418.838" y2="44.2781" gradientTransform="matrix(2.3518 0 0 5.632 -252.9103 -182.0283)">
				<stop  offset="0" style="stop-color:#3F0806;stop-opacity:0"/>
				<stop  offset="1" style="stop-color:#3F0806"/>
			</linearGradient>
			<path opacity="0.4" fill-rule="evenodd" clip-rule="evenodd" fill="url(#SVGID_5_)" enable-background="new    " d="
				M730.48,62.939l-0.866-0.991l-6.947,7.938l0.748,0.866c11.9,11.9,6.823,23.925,4.087,28.143l0.997-1.115
				c1.607-1.863,4.087-4.717,6.691-7.813C737.919,85.257,741.764,74.092,730.48,62.939z"/>
			
				<linearGradient id="SVGID_6_" gradientUnits="userSpaceOnUse" x1="688.5544" y1="112.2453" x2="755.9585" y2="112.2453" gradientTransform="matrix(1 0 0 -1 0 158)">
				<stop  offset="0" style="stop-color:#FFC9C7"/>
				<stop  offset="1" style="stop-color:#FFF0F0"/>
			</linearGradient>
			<path fill-rule="evenodd" clip-rule="evenodd" fill="url(#SVGID_6_)" d="M753.414,56.117L708.287,4.554
				c-3.595-4.225-10.162-4.973-14.38-1.115l-1.732,1.476c-4.218,3.602-4.959,10.175-1.115,14.386l38.055,43.14l0.866,0.997
				c11.283,11.283,7.439,22.436,4.592,27.146c2.23-2.604,4.461-5.209,6.567-7.564c1.981-2.355,4.094-4.71,6.075-6.941
				c1.981-2.23,3.844-4.336,5.084-5.707c4.336-4.212,4.959-10.037,1.115-14.249V56.117z"/>
		</g>
	</g>
	<path fill-rule="evenodd" clip-rule="evenodd" fill="#FFEEED" d="M200.257,0.461c11.775,0,22.186,2.598,30.865,7.557
		c8.804,5.209,15.495,12.523,20.205,21.819c4.717,9.427,7.072,20.579,7.072,33.352c0,13.757-2.729,25.781-8.312,35.576
		c-5.451,9.919-13.383,17.109-23.676,21.701c5.333,1.732,9.67,5.701,13.265,11.526l6.199,9.296c1.24,2.112,1.981,4.094,1.981,6.199
		c0,2.604-0.984,4.835-3.096,6.449c-2.106,1.614-4.592,2.604-7.315,2.604c-2.106,0-4.094-0.499-5.95-1.489
		c-1.738-0.991-3.346-2.48-4.592-4.336l-10.162-16.86c-1.614-2.729-3.72-4.717-6.324-5.957c-2.604-1.24-5.95-1.981-10.168-1.981
		c-12.018,0-22.311-2.604-31.115-7.564c-8.797-5.202-15.495-12.517-20.205-21.819c-4.71-9.545-7.065-20.704-7.065-33.345
		c0-12.773,2.48-23.807,7.065-33.352c4.71-9.42,11.526-16.61,20.205-21.819c8.804-5.202,19.09-7.557,31.128-7.557L200.257,0.461
		L200.257,0.461z M497.169,0.579c2.972,0,5.327,1.246,7.433,3.844l35.582,44.137l35.451-44.137c2.099-2.48,4.71-3.72,7.682-3.72
		c2.604,0,4.959,0.997,7.065,3.103c2.112,2.106,3.103,4.336,3.103,7.315c0,2.23-0.866,4.586-2.604,6.691l-39.545,48.224v48.23
		c0,3.595-0.991,6.317-3.103,8.43c-2.106,2.099-4.71,2.972-7.938,2.972c-3.346,0-6.193-0.991-8.299-2.972
		c-2.112-1.988-3.103-4.71-3.103-8.43v-48.23l-39.295-48.348c-1.738-2.099-2.604-4.336-2.604-6.691c0-2.729,0.991-5.209,3.096-7.315
		c2.112-2.106,4.592-3.103,7.065-3.103L497.169,0.579z M336.248,1.576c13.14,0,23.308,3.221,30.623,9.912
		c7.315,6.449,11.034,15.744,11.034,27.526c0,11.775-3.72,21.071-11.034,27.644c-7.315,6.691-17.483,9.919-30.623,9.919h-31.115
		v37.439c0,3.595-0.991,6.324-3.096,8.305c-2.112,2.106-4.835,3.096-8.312,3.096c-3.346-0.118-6.193-1.115-8.056-3.214
		c-2.106-2.112-3.096-4.841-3.096-8.312V12.111c0-3.346,0.984-5.95,2.972-7.807c1.988-1.738,4.592-2.729,7.938-2.729h42.772
		L336.248,1.576z M107.522,0.579c3.346,0,6.324,0.997,8.305,3.103c2.112,2.106,3.103,4.71,3.103,8.056v102.155
		c0,3.346-0.991,6.199-3.103,8.305c-2.106,2.106-4.835,3.103-8.305,3.103c-3.221,0-5.95-0.997-8.056-3.103
		c-2.106-2.106-3.103-4.835-3.103-8.305V11.737c0-3.346,0.997-5.95,3.103-8.056C101.572,1.576,104.177,0.579,107.522,0.579z
		 M435.799,0.461c2.48,0,4.71,0.617,6.823,1.732c2.099,1.246,3.713,2.978,4.828,5.333l48.23,103.263
		c0.492,1.614,0.866,2.978,0.866,4.592c0,2.604-1.115,4.835-3.221,6.823c-2.112,1.732-4.592,2.722-7.439,2.722
		c-1.738,0-3.595-0.499-5.209-1.489s-2.978-2.604-3.844-4.592l-10.536-23.302H405.3l-10.536,23.308
		c-0.991,2.106-2.23,3.595-3.844,4.586c-1.614,0.991-3.346,1.489-5.327,1.489c-2.604,0-5.209-0.991-7.315-2.729
		c-2.23-1.732-3.228-4.094-3.228-6.823c0-1.483,0.374-3.096,0.991-4.586L424.148,7.526c0.984-2.23,2.604-4.094,4.835-5.333
		c2.106-1.24,4.336-1.732,6.823-1.732L435.799,0.461z M11.2,0.703c3.346,0,6.317,0.997,8.305,3.103
		c2.106,2.106,3.096,4.71,3.096,8.056v94.092h48.722c6.941,0,10.536,3.103,10.536,9.178s-3.595,9.171-10.536,9.171H10.577
		c-3.346,0-5.95-0.984-7.807-2.847c-1.738-1.738-2.729-4.343-2.729-7.564V11.862c0-3.346,0.991-5.95,3.096-8.056
		C5.25,1.7,7.854,0.703,11.2,0.703z M200.001,18.068c-11.402,0-20.205,3.844-26.523,11.533c-6.324,7.807-9.545,18.716-9.545,33.345
		s3.214,25.539,9.545,33.345c6.317,7.813,15.246,11.657,26.529,11.657s20.081-3.844,26.405-11.657
		c6.324-7.807,9.545-18.959,9.545-33.345c0-14.629-3.221-25.539-9.545-33.345c-6.324-7.813-15.003-11.533-26.405-11.533
		L200.001,18.068z M435.799,26.622l-22.934,51.569h45.993L435.799,26.622z M333.395,19.052h-28.261v40.292l28.268,0.125
		c15.37,0,23.184-6.823,23.184-20.205c0-13.389-7.813-20.205-23.184-20.205L333.395,19.052z"/>
</g>
</svg>
