<?xml version="1.0" encoding="utf-8"?>
<!-- Generator: Adobe Illustrator 23.1.0, SVG Export Plug-In . SVG Version: 6.00 Build 0)  -->
<svg version="1.1" id="Слой_1" xmlns="http://www.w3.org/2000/svg" xmlns:xlink="http://www.w3.org/1999/xlink" x="0px" y="0px"
	 viewBox="0 0 24 24" enable-background="new 0 0 24 24" xml:space="preserve">
<path id="mail" fill="#e13028" d="M2,5v14h20V5H2z M14.609,11.141l-0.043,0.044L12,13.346l-2.566-2.161l-0.043-0.044l-0.005,0.004
	L3.276,6h17.447l-6.11,5.145L14.609,11.141z M8.663,11.844L3,17.321V7.075L8.663,11.844z M9.432,12.491l2.245,1.891
	C11.771,14.461,11.885,14.5,12,14.5s0.229-0.039,0.322-0.118l2.245-1.891L20.264,18H3.736L9.432,12.491z M15.337,11.844L21,7.075
	v10.246L15.337,11.844z"/>
</svg>
