<?xml version="1.0" encoding="utf-8"?>
<!-- Generator: Adobe Illustrator 23.1.0, SVG Export Plug-In . SVG Version: 6.00 Build 0)  -->
<svg version="1.1" id="Layer_1" xmlns="http://www.w3.org/2000/svg" xmlns:xlink="http://www.w3.org/1999/xlink" x="0px" y="0px"
	 viewBox="0 0 296 177" enable-background="new 0 0 296 177" xml:space="preserve">
<g id="layer1">
	<g id="g10305">
		<path id="path2268" fill="#FABCB9" d="M296,88.5c0.014,48.866-39.637,88.487-88.563,88.5
			c-48.926,0.012-88.595-39.589-88.608-88.455c0-0.016,0-0.029,0-0.045C118.817,39.636,158.468,0.013,207.391,0
			C256.318-0.013,295.987,39.59,296,88.456C296,88.471,296,88.485,296,88.5z"/>
		<path id="path1350" fill="#B52720" d="M88.015,0.023C39.379,0.332,0,39.852,0,88.5c0,48.839,39.686,88.477,88.586,88.477
			c22.95,0,43.869-8.735,59.611-23.053c-0.001,0-0.003-0.002-0.007-0.004h0.019c3.223-2.934,6.23-6.099,8.993-9.474h-18.149
			c-2.423-2.924-4.626-5.97-6.605-9.114h31.301c1.904-3.043,3.627-6.202,5.157-9.474H127.28c-1.419-3.038-2.65-6.144-3.702-9.296
			h49.034c2.955-8.819,4.559-18.255,4.559-28.063c0-6.503-0.706-12.842-2.042-18.947h-54.152c0.671-3.141,1.518-6.245,2.527-9.295
			h49.052c-1.097-3.245-2.37-6.408-3.819-9.473h-41.463c1.496-3.191,3.19-6.296,5.083-9.294h31.278
			c-2.082-3.312-4.385-6.477-6.875-9.474h-17.439c2.696-3.169,5.665-6.154,8.887-8.937C132.466,8.76,111.541,0.023,88.586,0.023
			C88.395,0.023,88.206,0.022,88.015,0.023z"/>
	</g>
	<g id="g16480">
		<g id="g13802" transform="translate(-13.74405,15.9939)">
			<path id="path13804" fill="#B52720" d="M131.726,97.89l1.18-8.008c-0.645,0-1.593,0.279-2.43,0.279
				c-3.283,0-3.693-1.752-3.435-3.033l3.235-16.107h4.991l1.029-9.09h-4.704l0.958-5.508h-9.84
				c-0.208,0.208-5.567,30.977-5.567,34.726c0,5.547,3.117,8.015,7.514,7.977C128.098,99.096,130.78,98.145,131.726,97.89z"/>
			<path id="path13806" fill="#B52720" d="M134.712,82.624c0,13.313,8.797,16.475,16.293,16.475c6.919,0,10.548-1.602,10.548-1.602
				l1.662-9.087c0,0-5.847,2.375-10.599,2.375c-10.129,0-8.353-7.543-8.353-7.543l19.459,0.059c0,0,1.239-6.102,1.239-8.59
				c0-6.208-3.386-13.829-13.742-13.829C141.735,60.884,134.712,71.091,134.712,82.624z M151.255,69.318
				c5.323,0,4.341,5.975,4.341,6.46h-10.472C145.124,75.159,146.113,69.318,151.255,69.318z"/>
			<path id="path13808" fill="#B52720" d="M210.98,97.887l1.689-10.269c0,0-4.631,2.318-7.805,2.318
				c-6.692,0-9.376-5.103-9.376-10.586c0-11.121,5.757-17.24,12.165-17.24c4.807,0,8.663,2.695,8.663,2.695l1.54-9.979
				c0,0-4.553-3.284-9.454-3.303c-14.742-0.058-23.177,10.193-23.177,27.915c0,11.746,6.247,19.74,17.502,19.74
				C205.909,99.177,210.98,97.887,210.98,97.887z"/>
			<path id="path13810" fill="#B52720" d="M79.848,61.029c-6.468,0-11.424,2.076-11.424,2.076l-1.37,8.115
				c0,0,4.092-1.661,10.279-1.661c3.512,0,6.082,0.394,6.082,3.245c0,1.732-0.314,2.371-0.314,2.371s-2.771-0.231-4.055-0.231
				c-9.208,0-16.725,3.477-16.725,13.96c0,8.261,5.622,10.155,9.106,10.155c6.656,0,9.29-4.197,9.442-4.209l-0.077,3.483
				c0,0,8.304,0,8.305,0l3.705-25.943C92.802,61.383,83.188,61.029,79.848,61.029z M81.286,82.095
				c0.181,1.584-0.41,9.073-6.091,9.073c-2.929,0-3.69-2.237-3.69-3.557c0-2.58,1.403-5.675,8.313-5.675
				C81.428,81.936,81.015,82.052,81.286,82.095z"/>
			<path id="path13812" fill="#B52720" d="M101.629,98.869c2.125,0,14.269,0.54,14.269-11.977c0-11.704-11.242-9.39-11.242-14.094
				c0-2.339,1.833-3.076,5.183-3.076c1.329,0,6.446,0.422,6.446,0.422l1.189-8.318c0,0.001-3.311-0.74-8.702-0.74
				c-6.977,0-14.06,2.782-14.06,12.3c0,10.786,11.809,9.703,11.809,14.246c0,3.033-3.299,3.282-5.843,3.282
				c-4.4,0-8.361-1.509-8.375-1.436l-1.259,8.233C91.273,97.783,93.717,98.869,101.629,98.869z"/>
			<path id="path13814" fill="#B52720" d="M288.78,53.483l-1.705,12.691c0,0-3.552-4.898-9.11-4.898
				c-10.457,0-15.846,10.408-15.846,22.364c0,7.719,3.843,15.285,11.696,15.285c5.65,0,8.782-3.935,8.782-3.935l-0.415,3.36h9.176
				l7.205-44.797L288.78,53.483z M284.728,78.148c0,4.976-2.467,11.623-7.579,11.623c-3.395,0-4.987-2.847-4.987-7.313
				c0-7.304,3.284-12.123,7.43-12.123C282.986,70.336,284.728,72.662,284.728,78.148z"/>
			<path id="path13816" fill="#B52720" d="M28.779,98.386l5.742-33.821l0.844,33.821h6.498l12.122-33.821l-5.37,33.821h9.656
				l7.435-44.857l-15.339-0.117l-9.124,27.464l-0.25-27.348H26.936l-7.542,44.857L28.779,98.386L28.779,98.386z"/>
			<path id="path13818" fill="#B52720" d="M174.099,98.45c2.745-15.593,3.723-27.907,11.729-25.356
				c1.15-6.035,3.89-11.284,5.142-13.838c0,0-0.396-0.588-2.87-0.588c-4.224,0-9.864,8.562-9.864,8.562l0.843-5.293h-8.784
				l-5.883,36.513L174.099,98.45L174.099,98.45z"/>
			<g id="use14699" transform="translate(845.3001,0)">
				<path id="path13810_1_" fill="#B52720" d="M-614.565,61.029c-6.471,0-11.427,2.076-11.427,2.076l-1.369,8.115
					c0,0,4.094-1.661,10.278-1.661c3.513,0,6.082,0.394,6.082,3.245c0,1.732-0.313,2.371-0.313,2.371s-2.77-0.231-4.054-0.231
					c-9.209,0-16.725,3.477-16.725,13.96c0,8.261,5.621,10.155,9.105,10.155c6.654,0,9.29-4.197,9.441-4.209l-0.078,3.483h8.307
					l3.704-25.943C-601.614,61.383-611.227,61.029-614.565,61.029z M-613.129,82.095c0.18,1.584-0.411,9.073-6.091,9.073
					c-2.931,0-3.691-2.237-3.691-3.557c0-2.58,1.402-5.675,8.313-5.675C-612.987,81.936-613.399,82.052-613.129,82.095z"/>
			</g>
			<path id="use14701" fill="#B52720" d="M253.246,98.45c1.508-11.471,4.298-27.576,11.728-25.356
				c1.149-6.035,0.041-6.019-2.432-6.019c-4.227,0-5.163,0.154-5.163,0.154l0.844-5.293h-8.783l-5.883,36.514L253.246,98.45
				L253.246,98.45z"/>
		</g>
		<g id="g10289">
			<path id="path4157" fill="#FFFFFF" d="M120.441,111.027l1.181-8.007c-0.645,0-1.594,0.276-2.43,0.276
				c-3.283,0-3.645-1.743-3.436-3.033l2.652-16.338h4.99l1.205-8.857h-4.705l0.958-5.508h-9.432
				c-0.208,0.208-5.568,30.978-5.568,34.725c0,5.547,3.118,8.017,7.515,7.978C116.813,112.232,119.495,111.281,120.441,111.027z"/>
			<path id="path4155" fill="#FFFFFF" d="M123.429,95.76c0,13.313,8.798,16.476,16.293,16.476c6.918,0,9.963-1.545,9.963-1.545
				l1.662-9.086c0,0-5.263,2.316-10.016,2.316c-10.128,0-8.354-7.542-8.354-7.542h19.168c0,0,1.238-6.104,1.238-8.592
				c0-6.207-3.093-13.77-13.449-13.77C130.449,74.019,123.429,84.226,123.429,95.76z M139.969,82.454
				c5.323,0,4.341,5.974,4.341,6.458h-10.472C133.839,88.295,134.828,82.454,139.969,82.454z"/>
			<path id="path4151" fill="#FFFFFF" d="M199.696,111.023l1.688-10.27c0,0-4.628,2.318-7.804,2.318
				c-6.691,0-9.374-5.103-9.374-10.585c0-11.121,5.757-17.239,12.165-17.239c4.806,0,8.663,2.695,8.663,2.695l1.54-9.979
				c0,0-5.72-2.312-10.623-2.312c-10.889,0-21.481,9.434-21.481,27.153c0,11.749,5.72,19.509,16.975,19.509
				C194.627,112.314,199.696,111.023,199.696,111.023z"/>
			<path id="path4149" fill="#FFFFFF" d="M68.565,74.164c-6.468,0-11.425,2.076-11.425,2.076l-1.369,8.115
				c0,0,4.092-1.661,10.278-1.661c3.512,0,6.082,0.394,6.082,3.245c0,1.732-0.315,2.371-0.315,2.371s-2.77-0.232-4.053-0.232
				c-8.157,0-16.726,3.477-16.726,13.96c0,8.26,5.622,10.155,9.106,10.155c6.655,0,9.523-4.313,9.676-4.326l-0.311,3.6h8.305
				l3.705-25.944C81.517,74.519,71.904,74.164,68.565,74.164z M70.585,95.288c0.18,1.585-0.995,9.013-6.674,9.013
				c-2.929,0-3.691-2.235-3.691-3.557c0-2.578,1.403-5.674,8.314-5.674C70.143,95.072,70.315,95.244,70.585,95.288z"/>
			<path id="path4145" fill="#FFFFFF" d="M90.344,112.005c2.125,0,14.27,0.539,14.27-11.978c0-11.702-11.243-9.39-11.243-14.092
				c0-2.341,1.833-3.078,5.182-3.078c1.33,0,6.446,0.422,6.446,0.422l1.19-8.318c0,0.001-3.311-0.74-8.702-0.74
				c-6.977,0-14.06,2.782-14.06,12.3c0,10.785,11.809,9.703,11.809,14.246c0,3.033-3.299,3.279-5.842,3.279
				c-4.4,0-8.362-1.508-8.376-1.436l-1.258,8.234C79.988,110.916,82.432,112.005,90.344,112.005z"/>
			<path id="path4139" fill="#FFFFFF" d="M277.824,66.7l-2.035,12.609c0,0-3.55-4.898-9.108-4.898
				c-8.642,0-15.846,10.407-15.846,22.365c0,7.719,3.842,15.282,11.696,15.282c5.65,0,8.782-3.934,8.782-3.934l-0.415,3.36h9.174
				l7.205-44.798L277.824,66.7z M273.444,91.284c0,4.976-2.466,11.622-7.58,11.622c-3.394,0-4.985-2.846-4.985-7.312
				c0-7.303,3.284-12.123,7.428-12.123C271.702,83.471,273.444,85.8,273.444,91.284z"/>
			<path id="path4133" fill="#FFFFFF" d="M17.495,111.522l5.742-33.821l0.843,33.821h6.499l12.122-33.821l-5.37,33.821h9.656
				l7.436-44.858H39.491l-9.299,27.523l-0.484-27.523H15.944l-7.543,44.858C8.401,111.522,17.495,111.522,17.495,111.522z"/>
			<path id="path4131" fill="#FFFFFF" d="M162.815,111.584c2.745-15.594,3.254-28.255,9.806-25.938
				c1.147-6.035,2.253-8.37,3.505-10.924c0,0-0.587-0.123-1.819-0.123c-4.224,0-7.353,5.764-7.353,5.764l0.841-5.293h-8.782
				l-5.884,36.514H162.815z"/>
			<g id="use8523" transform="translate(847.0062,0)">
				<path id="path4149_1_" fill="#FFFFFF" d="M-625.547,74.164c-6.468,0-11.425,2.076-11.425,2.076l-1.368,8.115
					c0,0,4.092-1.661,10.278-1.661c3.512,0,6.08,0.394,6.08,3.245c0,1.732-0.313,2.371-0.313,2.371s-2.77-0.232-4.054-0.232
					c-8.156,0-16.725,3.477-16.725,13.96c0,8.26,5.621,10.155,9.105,10.155c6.655,0,9.523-4.313,9.675-4.326l-0.309,3.6
					c0,0,8.302,0,8.305,0l3.704-25.944C-612.594,74.519-622.207,74.164-625.547,74.164z M-623.523,95.288
					c0.18,1.585-0.996,9.013-6.677,9.013c-2.929,0-3.689-2.235-3.689-3.557c0-2.578,1.403-5.674,8.313-5.674
					C-623.968,95.072-623.797,95.244-623.523,95.288z"/>
			</g>
			<g id="use8525" transform="translate(442.2857,0)">
				<path id="path4131_1_" fill="#FFFFFF" d="M-200.283,111.584c2.746-15.594,3.255-28.255,9.805-25.938
					c1.149-6.035,2.257-8.37,3.507-10.924c0,0-0.587-0.123-1.819-0.123c-4.224,0-7.353,5.764-7.353,5.764l0.841-5.293h-8.782
					l-5.884,36.514H-200.283z"/>
			</g>
			<path id="text9407" fill="#FFFFFF" d="M287.075,105.95c0.479,0,0.951,0.123,1.406,0.372c0.459,0.242,0.816,0.597,1.072,1.057
				c0.257,0.457,0.383,0.934,0.383,1.432c0,0.492-0.126,0.968-0.379,1.422c-0.251,0.454-0.604,0.811-1.059,1.061
				c-0.454,0.25-0.93,0.375-1.424,0.375c-0.498,0-0.974-0.126-1.429-0.375c-0.454-0.253-0.806-0.607-1.058-1.061
				c-0.256-0.454-0.381-0.93-0.381-1.422c0-0.498,0.127-0.975,0.384-1.432c0.258-0.46,0.616-0.814,1.073-1.057
				C286.124,106.073,286.596,105.95,287.075,105.95 M287.075,106.422c-0.401,0-0.793,0.104-1.176,0.313
				c-0.382,0.204-0.679,0.498-0.894,0.884c-0.214,0.38-0.322,0.779-0.322,1.192s0.104,0.809,0.313,1.186
				c0.213,0.376,0.509,0.672,0.891,0.885c0.378,0.208,0.773,0.313,1.188,0.313c0.412,0,0.81-0.105,1.188-0.313
				c0.378-0.213,0.674-0.508,0.884-0.885c0.211-0.38,0.314-0.773,0.314-1.186s-0.107-0.812-0.321-1.192
				c-0.213-0.385-0.51-0.68-0.894-0.884C287.866,106.527,287.477,106.422,287.075,106.422 M285.82,110.392v-3.079h1.061
				c0.361,0,0.625,0.029,0.785,0.088c0.162,0.055,0.289,0.154,0.388,0.297c0.097,0.142,0.146,0.291,0.146,0.45
				c0,0.225-0.082,0.421-0.244,0.587c-0.158,0.166-0.371,0.262-0.637,0.28c0.106,0.046,0.194,0.101,0.262,0.163
				c0.123,0.122,0.275,0.326,0.455,0.61l0.377,0.603h-0.609l-0.271-0.484c-0.216-0.382-0.389-0.62-0.521-0.717
				c-0.091-0.071-0.224-0.106-0.399-0.106h-0.291v1.309L285.82,110.392 M286.318,108.659h0.604c0.289,0,0.484-0.043,0.588-0.129
				c0.105-0.084,0.16-0.199,0.16-0.342c0-0.091-0.025-0.173-0.075-0.242c-0.051-0.074-0.122-0.127-0.213-0.164
				c-0.091-0.035-0.254-0.053-0.498-0.053h-0.565v0.929"/>
		</g>
	</g>
</g>
</svg>
