<?xml version="1.0" encoding="utf-8"?>
<!-- Generator: Adobe Illustrator 23.1.0, SVG Export Plug-In . SVG Version: 6.00 Build 0)  -->
<svg version="1.1" id="Слой_1" xmlns="http://www.w3.org/2000/svg" xmlns:xlink="http://www.w3.org/1999/xlink" x="0px" y="0px"
	 viewBox="0 0 28 24" style="enable-background:new 0 0 28 24;" xml:space="preserve">
<style type="text/css">
	.st0{fill:#999999;}
</style>
<g>
	<path class="st0" d="M26,4H2C0.9,4,0,3.1,0,2l0,0c0-1.1,0.9-2,2-2h24c1.1,0,2,0.9,2,2l0,0C28,3.1,27.1,4,26,4z"/>
</g>
<g>
	<path class="st0" d="M22.1,14H1.9c-1,0-1.9-0.8-1.9-1.9v-0.3c0-1,0.8-1.9,1.9-1.9h20.3c1,0,1.9,0.8,1.9,1.9v0.3
		C24,13.2,23.2,14,22.1,14z"/>
</g>
<g>
	<path class="st0" d="M26,24H2c-1.1,0-2-0.9-2-2l0,0c0-1.1,0.9-2,2-2h24c1.1,0,2,0.9,2,2l0,0C28,23.1,27.1,24,26,24z"/>
</g>
</svg>
