<?xml version="1.0" encoding="utf-8"?>
<!-- Generator: Adobe Illustrator 23.1.0, SVG Export Plug-In . SVG Version: 6.00 Build 0)  -->
<svg version="1.1" id="Слой_1" xmlns="http://www.w3.org/2000/svg" xmlns:xlink="http://www.w3.org/1999/xlink" x="0px" y="0px"
	 viewBox="0 0 220 223" style="enable-background:new 0 0 220 223;" xml:space="preserve">
<style type="text/css">
	.st0{fill:#1A1A1A;}
	.st1{fill:#F7F7F7;}
</style>
<g>
	<path class="st0" d="M136.4,215.6c-10.9,0-20.4-4.5-29.6-8.9c-8-3.8-15.6-7.4-23.2-7.4c-0.2,0-0.5,0-0.7,0
		c-2.6,0.1-5.8,0.4-9.1,0.7c-4.9,0.5-10.4,1-15.9,1c-24.4,0-37.9-11.8-40.2-35.2l0-0.3l0-0.3c-0.1-22.8,13.2-34.3,25.4-43.1
		c-1,0.1-2,0.2-3,0.2c-14.8,0-28.1-12.9-31.7-30.7c-1.9-9.3-0.8-18.7,3-26.5c4.1-8.4,10.9-13.9,19.1-15.5c1.6-0.3,3.3-0.5,4.9-0.5
		c7.7,0,14.9,3.5,20.6,9.3c-0.7-3.6-1.1-7.4-1-11.3C55.4,24.8,69.4,7.4,86.7,7.4c0.2,0,0.4,0,0.6,0c16.2,0.4,29.3,16.5,30.5,36.8
		c7.3-15.3,21.3-25.5,35-25.5c3.8,0,7.5,0.8,10.8,2.3c16.2,7.3,21.7,30.1,12.3,50.8c-1.2,2.6-2.6,5.1-4.1,7.4
		c4.6-2.2,9.5-3.3,14.4-3.3c5.9,0,11.3,1.8,15.8,5.1c13.3,9.9,14.3,31.4,2,47.7c-7.8,10.5-19.2,16.8-30.5,16.8c0,0,0,0,0,0
		c-4.4,0-8.7-1-12.4-2.9c0.3,0.4,0.5,0.7,0.8,1.1c1.3,1.8,13.6,18.9,11.8,36.2C171.3,201.6,156.7,215.6,136.4,215.6z M137.3,98.3
		c2.7,3.9,5.1,8.4,7,13.6c0.9,2.5,1.8,4.7,2.6,6.7c0-0.2,0-0.3,0-0.5c-0.1-7.7,2.3-15.7,6.9-22.8c-4.3,2-8.9,3.2-13.4,3.2
		c0,0,0,0,0,0C139.3,98.5,138.3,98.5,137.3,98.3z M66.9,79.8c1.8,8.8,0.8,17.3-2.1,24.4c0.6-0.6,1.2-1.2,1.8-1.8
		c5.4-5.5,10.5-10.7,15.9-14.6C76.7,87,71.3,84.1,66.9,79.8C66.9,79.8,66.9,79.8,66.9,79.8z M104.4,80.7c4.2,0.2,8.1,0.9,11.7,2
		c-1.1-2.4-2-5-2.6-7.9c-0.4-1.7-0.6-3.5-0.8-5.2C110.5,73.9,107.7,77.7,104.4,80.7C104.4,80.7,104.4,80.7,104.4,80.7z"/>
	<path class="st1" d="M86.7,14.4c0.1,0,0.3,0,0.4,0c13.5,0.3,24.1,15.5,23.7,33.9C110.4,66.5,99.3,81.1,86,81.1c-0.1,0-0.3,0-0.4,0
		c-13.5-0.3-24.1-15.5-23.7-33.9C62.3,29,73.4,14.4,86.7,14.4 M152.6,25.7c2.7,0,5.4,0.5,8,1.7c12.7,5.7,16.6,24.3,8.8,41.6
		c-6.2,13.8-18.1,22.5-29.1,22.5c-2.7,0-5.4-0.5-8-1.7c-12.7-5.7-16.6-24.3-8.8-41.6C129.8,34.5,141.7,25.7,152.6,25.7 M35.3,56.1
		c11.2,0,21.9,10.5,24.8,25.1c3.3,16.1-4.2,31.3-16.6,33.8c-1.2,0.2-2.4,0.4-3.5,0.4c-11.2,0-21.9-10.5-24.8-25.1
		C11.9,74.1,19.3,59,31.7,56.5C32.9,56.2,34.1,56.1,35.3,56.1 M186.1,83c4.2,0,8.3,1.2,11.6,3.7c10.3,7.6,10.5,24.6,0.6,37.9
		c-6.7,8.9-16.2,13.9-24.9,13.9c-4.2,0-8.3-1.2-11.6-3.7c-10.3-7.6-10.5-24.6-0.6-37.9C167.8,88,177.4,83,186.1,83 M102.8,87.7
		c0.4,0,0.8,0,1.2,0c12.7,0.6,26,5.9,33.7,26.7s11.9,24.1,18.4,33.5c0,0,12.1,16,10.5,31.4c-1.6,15.4-11.3,29.3-30.2,29.3
		c-18.6,0-34.4-16.3-52.8-16.3c-0.3,0-0.6,0-1,0c-6.8,0.2-15.9,1.7-24.8,1.7c-15.6,0-30.9-4.6-33.2-28.8
		c-0.1-29.5,24.9-36.1,39.9-50.7C79,100.4,88.5,87.7,102.8,87.7 M86.7,0.4C66.1,0.4,49.5,19.7,48,44.7c-4-1.7-8.3-2.6-12.7-2.6l0,0
		c-2.1,0-4.2,0.2-6.3,0.6C18.8,44.8,10,51.8,5,62.1C0.5,71.2-0.7,82.2,1.5,93c3.2,15.7,12.9,28.1,25.2,33.5
		c-8.9,8.7-16.2,20.6-16.1,38.8l0,0.6l0.1,0.6c1.5,15.3,7.4,26.6,17.6,33.7c7.6,5.3,17.3,7.8,29.5,7.8c5.9,0,11.6-0.6,16.6-1
		c3.2-0.3,6.3-0.6,8.7-0.7c0.2,0,0.4,0,0.5,0c6,0,12.9,3.3,20.2,6.8c9.4,4.5,20.1,9.6,32.6,9.6c12.8,0,23.8-4.6,31.9-13.4
		c6.8-7.4,11.1-17.2,12.2-28.5c1.1-10.5-2-20.5-5.5-28.2c12.9-0.6,25.8-7.8,34.5-19.5c6.6-8.9,10.2-19.4,10-29.7
		c-0.2-11.4-5.1-21.6-13.5-27.8c-5.7-4.2-12.6-6.5-20-6.5c-0.5,0-1.1,0-1.6,0c3.1-9.4,3.8-19.1,1.9-28c-2.6-12.1-9.9-21.7-20-26.3
		c-4.3-1.9-8.9-2.9-13.7-2.9c-8.6,0-17.1,3.1-24.8,9c-2.4,1.8-4.7,3.9-6.8,6.2c-1.4-3.7-3.3-7.2-5.5-10.3c-7-10-17.3-15.9-28.2-16.1
		C87.2,0.4,86.9,0.4,86.7,0.4L86.7,0.4z"/>
</g>
</svg>
