<?xml version="1.0" encoding="utf-8"?>
<!-- Generator: Adobe Illustrator 23.1.0, SVG Export Plug-In . SVG Version: 6.00 Build 0)  -->
<svg version="1.1" id="Слой_2" xmlns="http://www.w3.org/2000/svg" xmlns:xlink="http://www.w3.org/1999/xlink" x="0px" y="0px"
	 viewBox="0 0 220 223" enable-background="new 0 0 220 223" xml:space="preserve">
<g>
	<path fill="#B52720" d="M136.417,215.575c-10.929,0-20.412-4.512-29.584-8.874c-8.041-3.825-15.636-7.438-23.225-7.438
		c-0.249,0-0.499,0.004-0.749,0.012c-2.636,0.083-5.791,0.391-9.131,0.717c-4.874,0.475-10.397,1.013-15.935,1.013
		c-24.402,0-37.926-11.829-40.196-35.158l-0.031-0.32l-0.002-0.322c-0.115-22.771,13.165-34.296,25.377-43.079
		c-0.98,0.117-1.967,0.176-2.953,0.176c-14.774,0-28.095-12.907-31.676-30.689c-1.875-9.313-0.813-18.713,2.992-26.466
		c4.109-8.374,10.876-13.893,19.056-15.54c1.613-0.325,3.265-0.489,4.911-0.489c7.651,0,14.913,3.462,20.634,9.27
		c-0.737-3.604-1.091-7.406-1.003-11.326c0.496-22.225,14.45-39.633,31.77-39.633c0.187,0,0.376,0.002,0.564,0.006
		c16.231,0.361,29.274,16.525,30.46,36.84c7.35-15.316,21.266-25.525,34.951-25.525c3.808,0,7.457,0.778,10.848,2.312
		c16.165,7.313,21.692,30.116,12.321,50.833c-1.191,2.634-2.575,5.124-4.119,7.447c4.62-2.17,9.516-3.338,14.389-3.338
		c5.875,0,11.341,1.76,15.807,5.089c13.339,9.944,14.256,31.36,2.046,47.738c-7.824,10.496-19.235,16.763-30.525,16.763
		c-0.001,0-0.001,0-0.002,0c-4.448-0.001-8.663-1.01-12.386-2.945c0.251,0.353,0.506,0.714,0.767,1.085
		c1.326,1.782,13.645,18.881,11.808,36.248C171.313,201.603,156.719,215.575,136.417,215.575z M137.331,98.346
		c2.736,3.89,5.066,8.415,6.98,13.569c0.924,2.485,1.79,4.703,2.611,6.7c-0.004-0.153-0.008-0.308-0.011-0.463
		c-0.126-7.745,2.291-15.737,6.853-22.807c-4.332,2.049-8.884,3.167-13.41,3.167c-0.001,0-0.001,0-0.002,0
		C139.334,98.513,138.326,98.457,137.331,98.346z M66.948,79.804c1.765,8.766,0.835,17.325-2.139,24.438
		c0.599-0.605,1.192-1.207,1.78-1.802c5.44-5.516,10.53-10.676,15.938-14.588c-5.85-0.825-11.192-3.718-15.587-8.085
		C66.943,79.779,66.946,79.792,66.948,79.804z M104.374,80.694c4.172,0.207,8.074,0.867,11.699,1.977
		c-1.137-2.406-2.017-5.039-2.617-7.867c-0.364-1.712-0.615-3.464-0.757-5.243c-2.201,4.369-5.037,8.148-8.341,11.132
		C104.363,80.694,104.369,80.694,104.374,80.694z"/>
	<path fill="#FFA29E" d="M86.672,14.425c0.135,0,0.272,0.002,0.408,0.005c13.495,0.301,24.103,15.467,23.692,33.875
		c-0.406,18.222-11.457,32.79-24.771,32.79c-0.135,0-0.272-0.002-0.408-0.005C72.098,80.789,61.49,65.622,61.901,47.215
		C62.307,28.992,73.358,14.425,86.672,14.425 M152.647,25.747c2.743,0,5.432,0.544,7.963,1.689
		c12.668,5.73,16.621,24.342,8.828,41.57c-6.236,13.785-18.101,22.507-29.085,22.507c-2.743,0-5.432-0.544-7.963-1.689
		c-12.668-5.73-16.621-24.342-8.828-41.57C129.798,34.469,141.663,25.747,152.647,25.747 M35.272,56.115
		c11.195,0,21.871,10.454,24.814,25.071c3.252,16.149-4.166,31.265-16.567,33.762c-1.176,0.237-2.355,0.352-3.529,0.352
		c-11.195,0-21.871-10.454-24.814-25.071c-3.252-16.149,4.166-31.265,16.567-33.762C32.92,56.229,34.099,56.115,35.272,56.115
		 M186.086,83c4.235,0,8.257,1.193,11.623,3.701c10.26,7.649,10.537,24.636,0.618,37.942c-6.666,8.942-16.239,13.946-24.915,13.946
		c-4.235,0-8.257-1.193-11.623-3.701c-10.26-7.649-10.537-24.636-0.618-37.942C167.836,88.004,177.409,83,186.086,83
		 M102.818,87.656c0.399,0,0.804,0.01,1.21,0.03c12.725,0.63,26.018,5.926,33.722,26.667c7.704,20.741,11.852,24.148,18.37,33.481
		c0,0,12.148,16,10.518,31.407c-1.63,15.407-11.259,29.333-30.222,29.333c-18.637,0-34.41-16.312-52.807-16.312
		c-0.322,0-0.647,0.005-0.971,0.015c-6.847,0.216-15.907,1.726-24.846,1.726c-15.625,0-30.873-4.618-33.229-28.837
		c-0.148-29.481,24.889-36.148,39.852-50.667C78.973,100.377,88.533,87.656,102.818,87.656 M86.672,0.425
		c-20.555,0-37.212,19.268-38.678,44.262c-4.033-1.67-8.321-2.573-12.722-2.573h0c-2.108,0-4.225,0.211-6.292,0.627
		C18.77,44.798,10.037,51.839,5.021,62.06c-4.48,9.13-5.748,20.115-3.57,30.932c3.154,15.664,12.945,28.131,25.21,33.478
		c-8.853,8.733-16.188,20.65-16.097,38.768l0.003,0.644l0.062,0.641c1.488,15.298,7.417,26.626,17.621,33.668
		c7.619,5.258,17.282,7.814,29.542,7.814c5.877,0,11.581-0.556,16.613-1.046c3.223-0.314,6.267-0.611,8.673-0.686
		c0.176-0.006,0.354-0.008,0.53-0.008c6.009,0,12.91,3.283,20.217,6.759c9.413,4.478,20.082,9.553,32.59,9.553
		c12.796,0,23.83-4.635,31.908-13.403c6.819-7.402,11.051-17.243,12.237-28.458c1.106-10.461-2.022-20.547-5.537-28.16
		c12.948-0.557,25.752-7.773,34.527-19.544c6.636-8.902,10.199-19.446,10.032-29.688c-0.186-11.436-5.109-21.586-13.507-27.846
		C200.392,71.24,193.479,69,186.086,69c-0.546,0-1.092,0.012-1.638,0.036c3.136-9.362,3.836-19.126,1.944-28.035
		c-2.578-12.141-9.872-21.734-20.012-26.321c-4.303-1.947-8.924-2.934-13.733-2.934c-8.553,0-17.133,3.095-24.813,8.952
		c-2.406,1.835-4.668,3.903-6.762,6.174c-1.431-3.703-3.259-7.174-5.459-10.32C108.619,6.553,98.333,0.677,87.392,0.433
		C87.154,0.428,86.912,0.425,86.672,0.425L86.672,0.425z"/>
</g>
</svg>
