<?xml version="1.0" encoding="utf-8"?>
<!-- Generator: Adobe Illustrator 23.1.0, SVG Export Plug-In . SVG Version: 6.00 Build 0)  -->
<svg version="1.1" id="Слой_1" xmlns="http://www.w3.org/2000/svg" xmlns:xlink="http://www.w3.org/1999/xlink" x="0px" y="0px"
	 viewBox="0 0 24 24" enable-background="new 0 0 24 24" xml:space="preserve">
<path id="other" fill="#ccc" d="M3,8c-1.105,0-2,0.895-2,2s0.895,2,2,2s2-0.895,2-2S4.105,8,3,8z M3,11c-0.551,0-1-0.449-1-1
	s0.449-1,1-1s1,0.449,1,1S3.551,11,3,11z M5.724,7.947L5.276,7.053l6-3l0.447,0.895L5.724,7.947z M13.614,5.79l-0.748,0.561
	l2.439,4.879l7.06-4.706L17.5,2.875l-0.631,0.473l-1.186-1.546c-0.675-0.88-1.958-1.063-2.858-0.404
	c-0.441,0.323-0.728,0.795-0.805,1.332c-0.077,0.533,0.062,1.063,0.392,1.492L13.614,5.79z M20.635,6.476l-4.94,3.294l-1.561-3.121
	L17.5,4.125L20.635,6.476z M13.415,2.206c0.467-0.341,1.129-0.248,1.476,0.205l1.179,1.538L14.414,5.19l-1.208-1.577
	c-0.164-0.214-0.233-0.478-0.195-0.741C13.049,2.605,13.192,2.368,13.415,2.206z M15.5,18h-3.793l-5.854-5.854l-0.707,0.707
	l5.354,5.354v1.988L7,21.564V24h12v-2.436l-3.5-1.402V18z M14.5,20.03l-3-0.026V19h3V20.03z M18,23H8v-0.759L11.097,21h3.807
	L18,22.241V23z"/>
</svg>
