<?xml version="1.0" encoding="utf-8"?>
<!-- Generator: Adobe Illustrator 23.1.0, SVG Export Plug-In . SVG Version: 6.00 Build 0)  -->
<svg version="1.1" id="Слой_1" xmlns="http://www.w3.org/2000/svg" xmlns:xlink="http://www.w3.org/1999/xlink" x="0px" y="0px"
	 viewBox="0 0 24 24" enable-background="new 0 0 24 24" xml:space="preserve">
<g id="payment">
	<g opacity="0.5">
		<circle fill="#2e2e2e" cx="10.5" cy="6.5" r="1.5"/>
	</g>
	<path fill="#2e2e2e" d="M19,22H3V10h16v2h1V9h-1.192c0.379-0.969,0.202-2.114-0.537-2.909L14.284,1.8
		C13.805,1.284,13.165,1,12.481,1h0c-0.684,0-1.325,0.285-1.787,0.784L3.297,9H2v14h18v-3h-1V22z M11.409,2.482
		C11.697,2.171,12.078,2,12.481,2c0.402,0,0.783,0.171,1.071,0.481l3.987,4.291C18.1,7.376,18.143,8.333,17.677,9H4.729
		L11.409,2.482z M15,13c-1.654,0-3,1.346-3,3s1.346,3,3,3h6v-6H15z M20,18h-5c-1.103,0-2-0.897-2-2s0.897-2,2-2h5V18z M6.51,20.701
		v-0.773c-0.042,0-0.071,0-0.071,0s-0.146-0.038-0.439-0.112s-0.567-0.186-0.823-0.334c-0.256-0.148-0.496-0.333-0.719-0.556
		l0.696-0.792c0.244,0.277,0.514,0.484,0.81,0.623c0.296,0.139,0.619,0.208,0.968,0.208c0.48,0,0.84-0.088,1.077-0.265
		c0.237-0.177,0.356-0.445,0.356-0.804V17.89c0-0.229-0.058-0.41-0.173-0.544s-0.264-0.234-0.447-0.301
		c-0.183-0.066-0.417-0.125-0.701-0.176c-0.01-0.003-0.02-0.005-0.028-0.005s-0.018-0.001-0.028-0.005
		c-0.017-0.003-0.035-0.006-0.053-0.009c-0.019-0.003-0.037-0.006-0.054-0.01c-0.454-0.08-0.821-0.168-1.102-0.267
		c-0.281-0.099-0.522-0.278-0.722-0.537s-0.3-0.627-0.3-1.104v-0.005c0-0.464,0.09-0.85,0.27-1.157
		c0.179-0.307,0.448-0.538,0.805-0.692c0.197-0.085,0.427-0.141,0.678-0.179v-0.826h1.036v0.81c0.111,0.011,0.223,0.011,0.333,0.033
		c0.232,0.046,0.461,0.116,0.688,0.21c0.227,0.094,0.452,0.211,0.676,0.351l-0.625,0.807c-0.251-0.159-0.496-0.278-0.734-0.356
		c-0.239-0.078-0.475-0.117-0.708-0.117c-0.447,0-0.782,0.087-1.006,0.26s-0.335,0.433-0.335,0.78v0.004
		c0,0.239,0.064,0.426,0.193,0.561c0.129,0.135,0.291,0.234,0.485,0.298c0.195,0.063,0.461,0.13,0.8,0.2
		c0.014,0.003,0.027,0.006,0.041,0.01c0.014,0.003,0.029,0.006,0.046,0.009c0.017,0.003,0.033,0.006,0.048,0.01
		c0.015,0.003,0.031,0.006,0.048,0.009c0.4,0.083,0.734,0.184,1.003,0.303c0.27,0.119,0.494,0.311,0.673,0.575
		c0.18,0.264,0.269,0.624,0.269,1.078v0.01c0,0.449-0.093,0.822-0.279,1.119c-0.186,0.297-0.465,0.52-0.835,0.668
		c-0.223,0.089-0.49,0.142-0.78,0.178v0.817H6.51z M17,17.5c0.827,0,1.5-0.673,1.5-1.5s-0.673-1.5-1.5-1.5s-1.5,0.673-1.5,1.5
		S16.173,17.5,17,17.5z M17,15.5c0.276,0,0.5,0.224,0.5,0.5s-0.224,0.5-0.5,0.5s-0.5-0.224-0.5-0.5S16.724,15.5,17,15.5z
		 M13.061,3.939c0.586,0.586,0.586,1.536,0,2.121c-0.586,0.586-1.536,0.586-2.121,0c-0.586-0.586-0.586-1.536,0-2.121
		C11.525,3.354,12.475,3.354,13.061,3.939z"/>
</g>
</svg>
