<?xml version="1.0" encoding="utf-8"?>
<!-- Generator: Adobe Illustrator 23.1.0, SVG Export Plug-In . SVG Version: 6.00 Build 0)  -->
<svg version="1.1" id="Слой_1" xmlns="http://www.w3.org/2000/svg" xmlns:xlink="http://www.w3.org/1999/xlink" x="0px" y="0px"
	 viewBox="0 0 20 20" style="enable-background:new 0 0 20 20;" xml:space="preserve">
<style type="text/css">
	.st0{fill:#595959;}
</style>
<path id="profile" class="st0" d="M10,12c3.3,0,6-2.7,6-6s-2.7-6-6-6S4,2.7,4,6S6.7,12,10,12z M10,1c2.8,0,5,2.2,5,5s-2.2,5-5,5
	S5,8.8,5,6S7.2,1,10,1z M20,19.2V20h-1v-0.8c0-2.9-1.7-5.2-3.8-5.2H4.8C2.7,14,1,16.3,1,19.2V20H0v-0.8C0,15.8,2.1,13,4.8,13h10.5
	C17.9,13,20,15.8,20,19.2z"/>
</svg>
