<?xml version="1.0" encoding="utf-8"?>
<!-- Generator: Adobe Illustrator 23.1.0, SVG Export Plug-In . SVG Version: 6.00 Build 0)  -->
<svg version="1.1" id="Слой_1" xmlns="http://www.w3.org/2000/svg" xmlns:xlink="http://www.w3.org/1999/xlink" x="0px" y="0px"
	 viewBox="0 0 24 24" enable-background="new 0 0 24 24" xml:space="preserve">
<path id="sale" fill="#ccc" d="M6,10.708L11.292,16L20,13.52L8.48,2L6,10.708z M18.022,13.007l-6.428,1.83l-4.43-4.43
	l1.831-6.428L18.022,13.007z M6,12l-4,4l4,4l4-4L6,12z M3.344,16L6,13.344L8.656,16L6,18.656L3.344,16z M8.963,18l2.537,2.537
	L9.037,23L6.5,20.463l0.699-0.699l1.838,1.839l1.066-1.066l-1.838-1.839L8.963,18z M16.947,8.405
	c0.182-0.935-0.111-1.895-0.784-2.567c-0.673-0.672-1.63-0.966-2.568-0.785l-0.189-0.981c1.263-0.246,2.558,0.152,3.465,1.06
	c0.908,0.908,1.304,2.203,1.06,3.465L16.947,8.405z M20.977,8.541L19.98,8.459c0.144-1.75-0.494-3.466-1.751-4.708
	c-1.237-1.223-2.962-1.854-4.696-1.737l-0.066-0.998c2.033-0.138,4.025,0.601,5.466,2.023C20.4,4.49,21.146,6.495,20.977,8.541z"/>
</svg>
