<?xml version="1.0" encoding="utf-8"?>
<!-- Generator: Adobe Illustrator 23.1.0, SVG Export Plug-In . SVG Version: 6.00 Build 0)  -->
<svg version="1.1" id="Слой_1" xmlns="http://www.w3.org/2000/svg" xmlns:xlink="http://www.w3.org/1999/xlink" x="0px" y="0px"
	 viewBox="0 0 20 20" style="enable-background:new 0 0 20 20;" xml:space="preserve">
<style type="text/css">
	.st0{fill:#999999;}
</style>
<path id="search" class="st0" d="M7.4,0C3.3,0,0,3.3,0,7.4s3.3,7.4,7.4,7.4s7.4-3.3,7.4-7.4S11.4,0,7.4,0z M7.4,13.8
	C3.8,13.8,1,10.9,1,7.4S3.8,1,7.4,1s6.4,2.9,6.4,6.4S10.9,13.8,7.4,13.8z M6.9,2.5v1C5,3.4,3.4,5,3.4,6.9h-1
	C2.5,4.4,4.4,2.5,6.9,2.5z M20,19.3L19.3,20l-6.4-6.4l0.7-0.7L20,19.3z"/>
</svg>
