<?xml version="1.0" encoding="utf-8"?>
<!-- Generator: Adobe Illustrator 23.1.0, SVG Export Plug-In . SVG Version: 6.00 Build 0)  -->
<svg version="1.1" id="Слой_1" xmlns="http://www.w3.org/2000/svg" xmlns:xlink="http://www.w3.org/1999/xlink" x="0px" y="0px"
	 viewBox="0 0 24 24" enable-background="new 0 0 24 24" xml:space="preserve">
<path id="station" fill="#ccc" d="M23,9V2H11v7h4v2H5.707L2.153,7.446l1.747-2.445l1.523,2.284l3.863-3.862L5.437,0.856
	l-2.58,2.58l0.45,0.675L0.847,7.554L4.293,11H1v4h1v9h3v-9h1v9h8v-9h5v9h3v-9h1v-4h-4V9H23z M5.563,2.144l2.151,1.434L5.578,5.715
	L4.144,3.563L5.563,2.144z M4,23H3v-8h1V23z M13,23H7v-8h6V23z M21,23h-1v-8h1V23z M22,14h-8H6H2v-2h20V14z M16,11v-1h2v1H16z M12,8
	V3h10v5H12z M11,18H9v-1h2V18z M11,21H9v-1h2V21z"/>
</svg>
