<svg width="42" height="20" viewBox="0 0 42 20" fill="none" xmlns="http://www.w3.org/2000/svg">
<path d="M4 5H6V9H10V11H6V15H4V11.001H0V9.001H4V5Z" fill="#009678"/>
<path d="M37.7441 3.51163H33.6349L33.2353 2.28805C32.9836 1.5176 32.2799 1 31.4842 1H27.5158C26.7201 1 26.0164 1.5176 25.7648 2.28805L25.3651 3.51163H24.373V2.46512C24.373 1.65725 23.7291 1 22.9375 1H22.1172C21.3256 1 20.6816 1.65725 20.6816 2.46512V3.58748C19.715 3.84735 19 4.74693 19 5.81395V16.6977C19 17.9672 20.012 19 21.2559 19H37.7441C38.988 19 40 17.9672 40 16.6977V5.81395C40 4.54445 38.988 3.51163 37.7441 3.51163ZM21.9121 2.46512C21.9121 2.34971 22.0041 2.25581 22.1172 2.25581H22.9375C23.0506 2.25581 23.1426 2.34971 23.1426 2.46512V3.51163H21.9121V2.46512ZM38.7695 16.6977C38.7695 17.2747 38.3095 17.7442 37.7441 17.7442H21.2559C20.6905 17.7442 20.2305 17.2747 20.2305 16.6977V5.81395C20.2305 5.23691 20.6905 4.76744 21.2559 4.76744H25.8086C26.0734 4.76744 26.3085 4.59452 26.3922 4.33808L26.9321 2.68518C27.016 2.42836 27.2505 2.25581 27.5158 2.25581H31.4842C31.7495 2.25581 31.984 2.42836 32.0679 2.68513L32.6077 4.33808C32.6915 4.59452 32.9266 4.76744 33.1914 4.76744H37.7441C38.3095 4.76744 38.7695 5.23691 38.7695 5.81395V16.6977Z" fill="#009678"/>
<path d="M36.8828 7.27908C37.2226 7.27908 37.498 6.99795 37.498 6.65116C37.498 6.30438 37.2226 6.02325 36.8828 6.02325C36.543 6.02325 36.2676 6.30438 36.2676 6.65116C36.2676 6.99795 36.543 7.27908 36.8828 7.27908Z" fill="#009678"/>
<path d="M23.3477 6.02325H22.1172C21.7774 6.02325 21.502 6.30439 21.502 6.65116C21.502 6.99794 21.7774 7.27908 22.1172 7.27908H23.3477C23.6874 7.27908 23.9629 6.99794 23.9629 6.65116C23.9629 6.30439 23.6874 6.02325 23.3477 6.02325Z" fill="#009678"/>
<path d="M29.5 16.4884C26.4468 16.4884 23.9629 13.9532 23.9629 10.8372C23.9629 7.72115 26.4468 5.18604 29.5 5.18604C32.5532 5.18604 35.0371 7.72115 35.0371 10.8372C35.0371 13.9532 32.5532 16.4884 29.5 16.4884ZM29.5 6.44185C27.1253 6.44185 25.1934 8.4136 25.1934 10.8372C25.1934 13.2608 27.1253 15.2325 29.5 15.2325C31.8747 15.2325 33.8066 13.2608 33.8066 10.8372C33.8066 8.4136 31.8747 6.44185 29.5 6.44185Z" fill="#009678"/>
<path d="M29.5 13.9768C27.8038 13.9768 26.4238 12.5684 26.4238 10.8372C26.4238 9.10609 27.8038 7.69769 29.5 7.69769C31.1962 7.69769 32.5762 9.10609 32.5762 10.8372C32.5762 12.5684 31.1962 13.9768 29.5 13.9768ZM29.5 8.95351C28.4823 8.95351 27.6543 9.79854 27.6543 10.8372C27.6543 11.8759 28.4823 12.7209 29.5 12.7209C30.5177 12.7209 31.3457 11.8759 31.3457 10.8372C31.3457 9.79854 30.5177 8.95351 29.5 8.95351Z" fill="#009678"/>
</svg>
