<?xml version="1.0" encoding="utf-8"?>
<!-- Generator: Adobe Illustrator 23.1.0, SVG Export Plug-In . SVG Version: 6.00 Build 0)  -->
<svg version="1.1" id="Layer_1" xmlns="http://www.w3.org/2000/svg" xmlns:xlink="http://www.w3.org/1999/xlink" x="0px" y="0px"
	 viewBox="0 0 1000 324" enable-background="new 0 0 1000 324" xml:space="preserve">
<g>
	<g id="g4158" transform="matrix(4.4299631,0,0,4.4299631,-81.165783,-105.04783)">
		<polygon id="polygon9" fill="#FFF1F0" points="116.14,95.687 97.854,95.687 109.292,25.105 127.577,25.105 		"/>
		<path id="path11" fill="#FFF1F0" d="M182.429,26.831c-3.607-1.428-9.328-3.005-16.401-3.005c-18.058,0-30.775,9.611-30.853,23.351
			c-0.15,10.138,9.105,15.768,16.026,19.148c7.075,3.454,9.48,5.708,9.48,8.787c-0.072,4.728-5.717,6.908-10.981,6.908
			c-7.301,0-11.212-1.124-17.157-3.754l-2.408-1.128l-2.559,15.844c4.289,1.95,12.19,3.681,20.394,3.756
			c19.187,0,31.679-9.462,31.827-24.104c0.073-8.035-4.814-14.191-15.349-19.222c-6.396-3.229-10.313-5.407-10.313-8.711
			c0.075-3.004,3.313-6.081,10.533-6.081c5.945-0.151,10.313,1.275,13.621,2.703l1.654,0.749L182.429,26.831
			C182.429,26.831,182.429,26.831,182.429,26.831z"/>
		<path id="path13" fill="#FFF1F0" d="M206.733,70.682c1.506-4.055,7.301-19.748,7.301-19.748c-0.076,0.151,1.503-4.13,2.406-6.757
			l1.278,6.082c0,0,3.463,16.895,4.215,20.424C219.075,70.682,210.345,70.682,206.733,70.682L206.733,70.682z M229.305,25.105
			h-14.144c-4.362,0-7.676,1.275-9.558,5.856l-27.162,64.724h19.187c0,0,3.159-8.711,3.838-10.588c2.105,0,20.77,0,23.478,0
			c0.525,2.478,2.182,10.588,2.182,10.588h16.931L229.305,25.105L229.305,25.105L229.305,25.105z"/>
		<path id="path15" fill="#FFF1F0" d="M82.581,25.105l-17.908,48.13l-1.957-9.761c-3.311-11.263-13.694-23.5-25.282-29.585
			l16.403,61.723h19.337l28.743-70.506L82.581,25.105L82.581,25.105L82.581,25.105z"/>
		<path id="path17" fill="#FCDBDB" d="M48.044,25.105H18.623l-0.301,1.426c22.95,5.857,38.149,19.976,44.394,36.945L56.32,31.038
			C55.267,26.53,52.031,25.254,48.044,25.105L48.044,25.105z"/>
	</g>
</g>
</svg>
