<?xml version="1.0" encoding="utf-8"?>
<!-- Generator: Adobe Illustrator 23.1.0, SVG Export Plug-In . SVG Version: 6.00 Build 0)  -->
<svg version="1.1" id="Слой_1" xmlns="http://www.w3.org/2000/svg" xmlns:xlink="http://www.w3.org/1999/xlink" x="0px" y="0px"
	 viewBox="0 0 500 110" enable-background="new 0 0 500 110" xml:space="preserve">
<g>
	<g>
		<path fill="#FFFFFF" d="M134.3,75.3c-0.6,0-1-0.2-1.4-0.5c-0.4-0.4-0.5-0.8-0.5-1.4V33.5c0-0.6,0.2-1,0.5-1.4
			c0.4-0.4,0.8-0.5,1.4-0.5h3.7c0.5,0,1,0.2,1.4,0.5c0.4,0.4,0.5,0.8,0.5,1.4v3.6c1.3-1.7,2.9-3.1,4.8-4.1c1.9-1,4.2-1.5,6.9-1.5
			c6.2-0.1,10.6,2.5,13.2,7.6c1.3-2.3,3.1-4.2,5.5-5.5c2.4-1.4,5.2-2.1,8.3-2.1c2.9,0,5.5,0.7,7.8,2c2.3,1.3,4.2,3.3,5.5,6
			c1.3,2.7,2,6,2,10v23.9c0,0.6-0.2,1-0.5,1.4c-0.4,0.4-0.8,0.5-1.4,0.5h-3.9c-0.6,0-1-0.2-1.4-0.5c-0.4-0.4-0.5-0.8-0.5-1.4V50.3
			c0-3.1-0.4-5.5-1.3-7.3c-0.9-1.8-2.1-3-3.6-3.7c-1.5-0.7-3.1-1.1-4.9-1.1c-1.4,0-2.9,0.4-4.4,1.1c-1.5,0.7-2.7,2-3.7,3.7
			c-1,1.8-1.4,4.2-1.4,7.3v23.1c0,0.6-0.2,1-0.5,1.4c-0.4,0.4-0.8,0.5-1.4,0.5h-3.9c-0.6,0-1-0.2-1.4-0.5c-0.4-0.4-0.5-0.8-0.5-1.4
			V50.3c0-3.1-0.5-5.5-1.4-7.3c-0.9-1.8-2.1-3-3.6-3.7c-1.5-0.7-3.1-1.1-4.7-1.1c-1.4,0-2.9,0.4-4.4,1.1c-1.5,0.7-2.7,2-3.7,3.7
			c-1,1.8-1.4,4.2-1.4,7.2v23.2c0,0.6-0.2,1-0.5,1.4c-0.4,0.4-0.8,0.5-1.4,0.5H134.3z"/>
		<path fill="#FFFFFF" d="M217,75.7c-2.8,0-5.3-0.6-7.5-1.7c-2.3-1.1-4.1-2.6-5.5-4.5c-1.4-1.9-2.1-4-2.1-6.4c0-3.8,1.5-6.4,4.6-8.6
			c3.1-2.3,7.1-3.7,12.1-4.5l12.3-1.7V46c0-2.6-0.8-4.7-2.3-6.2c-1.5-1.5-4-2.2-7.4-2.2c-2.4,0-4.4,0.5-5.9,1.5
			c-1.5,1-2.6,2.3-3.2,3.8c-0.3,0.8-0.9,1.2-1.7,1.2h-3.7c-0.6,0-1.1-0.2-1.4-0.5c-0.3-0.4-0.5-0.8-0.5-1.3c0-0.8,0.3-1.8,0.9-3.1
			c0.6-1.2,1.6-2.4,2.9-3.6c1.3-1.2,3-2.1,5.1-2.9c2.1-0.8,4.6-1.2,7.6-1.2c3.3,0,6.1,0.4,8.3,1.3c2.3,0.9,4,2,5.3,3.4
			c1.3,1.4,2.2,3.1,2.8,4.9c0.6,1.8,0.9,3.7,0.9,5.5v26.8c0,0.6-0.2,1-0.5,1.4c-0.4,0.4-0.8,0.5-1.4,0.5H233c-0.6,0-1.1-0.2-1.4-0.5
			c-0.3-0.4-0.5-0.8-0.5-1.4v-3.6c-0.7,1-1.7,1.5-2.9,2.5c-1.2,1-2.7,1.8-4.5,2.4C221.9,75.4,219.6,75.7,217,75.7z M218.7,69.5
			c2.3,0,4.3-0.5,6.2-1.4c1.9-1,3.3-2.5,4.4-4.5c1.1-2,1.6-4.2,1.6-7.2V54l-9.6,1.4c-3.9,0.6-6.9,1.5-8.8,2.8c-2,1.3-3,2.5-3,4.5
			c0,1.5,0.5,2.8,1.4,3.8c0.9,1,2.1,1.8,3.5,2.3C215.8,69.3,217.2,69.5,218.7,69.5z"/>
		<path fill="#FFFFFF" d="M267.4,93.5c-3.7,0-6.8-0.5-9.2-1.5c-2.4-1-4.3-2.2-5.6-3.6c-1.4-1.4-2.3-2.8-2.9-4.2
			c-0.6-1.4-0.9-2.5-1-3.3c-0.1-0.6,0.1-1,0.5-1.4c0.4-0.4,0.9-0.6,1.4-0.6h4c0.5,0,0.9,0.1,1.2,0.3c0.3,0.2,0.6,0.7,0.8,1.4
			c0.3,0.8,0.8,1.7,1.5,2.8c0.7,1,1.7,1.9,3.1,2.6c1.4,0.7,3.3,1.1,5.8,1.1c2.6,0,4.8-0.4,6.5-1.1c1.8-0.7,3.1-1.9,4-3.6
			c0.9-1.7,1.4-4.1,1.4-7.1v-5.6c-1.3,1.7-3.1,3.1-5.2,4.3c-2.1,1.1-4.8,1.7-8.1,1.7c-3.1,0-5.7-0.5-7.9-1.6c-2.2-1.1-4-2.5-5.4-4.4
			c-1.4-1.8-2.5-4-3.1-6.3c-0.7-2.4-1.1-4.8-1.2-7.4c-0.1-1.5-0.1-3.1,0-4.5c0.1-2.6,0.5-5.1,1.2-7.4c0.7-2.4,1.7-4.5,3.1-6.4
			c1.4-1.9,3.2-3.3,5.4-4.4c2.2-1.1,4.8-1.6,7.9-1.6c3.3,0,6,0.6,8.2,1.8c2.2,1.2,4,2.7,5.3,4.5v-4.3c0-0.5,0.2-1,0.5-1.4
			c0.4-0.4,0.8-0.6,1.4-0.6h3.8c0.5,0,1,0.2,1.4,0.6c0.4,0.4,0.6,0.9,0.6,1.4v40.8c0,3.7-0.6,7-1.9,9.8c-1.2,2.9-3.3,5.1-6.1,6.8
			C276,92.7,272.2,93.5,267.4,93.5z M267.2,69c2.8,0,5-0.6,6.6-1.9c1.7-1.3,2.9-2.9,3.7-4.8c0.8-1.9,1.2-3.9,1.3-5.9
			c0.1-0.8,0.1-1.7,0.1-2.9c0-1.1,0-2.1-0.1-2.9c-0.1-2-0.5-3.9-1.3-5.9c-0.8-1.9-2-3.5-3.7-4.8c-1.7-1.3-3.9-1.9-6.6-1.9
			c-2.8,0-5,0.6-6.6,1.9c-1.7,1.2-2.8,2.9-3.6,4.9c-0.7,2-1.1,4.2-1.2,6.5c-0.1,1.4-0.1,2.9,0,4.4c0.1,2.3,0.5,4.5,1.2,6.5
			c0.7,2,1.9,3.6,3.6,4.9C262.3,68.4,264.5,69,267.2,69z"/>
		<path fill="#FFFFFF" d="M310.3,75.7c-2.8,0-5.3-0.6-7.5-1.7c-2.3-1.1-4.1-2.6-5.5-4.5c-1.4-1.9-2.1-4-2.1-6.4
			c0-3.8,1.5-6.4,4.6-8.6c3.1-2.3,7.1-3.7,12.1-4.5l12.3-1.7V46c0-2.6-0.8-4.7-2.3-6.2c-1.5-1.5-4-2.2-7.4-2.2
			c-2.4,0-4.4,0.5-5.9,1.5c-1.5,1-2.6,2.3-3.2,3.8c-0.3,0.8-0.9,1.2-1.7,1.2h-3.7c-0.6,0-1.1-0.2-1.4-0.5c-0.3-0.4-0.5-0.8-0.5-1.3
			c0-0.8,0.3-1.8,1-3.1c0.6-1.2,1.6-2.4,2.9-3.6c1.3-1.2,3-2.1,5.1-2.9c2.1-0.8,4.6-1.2,7.6-1.2c3.3,0,6.1,0.4,8.3,1.3
			c2.3,0.9,4,2,5.3,3.4c1.3,1.4,2.2,3.1,2.8,4.9c0.6,1.8,0.9,3.7,0.9,5.5v26.8c0,0.6-0.2,1-0.5,1.4c-0.4,0.4-0.8,0.5-1.4,0.5h-3.8
			c-0.6,0-1.1-0.2-1.4-0.5c-0.3-0.4-0.5-0.8-0.5-1.4v-3.6c-0.7,1-1.7,1.5-2.9,2.5c-1.2,1-2.7,1.8-4.5,2.4S312.9,75.7,310.3,75.7z
			 M312,69.5c2.3,0,4.3-0.5,6.2-1.4c1.9-1,3.3-2.5,4.4-4.5c1.1-2,1.6-4.2,1.6-7.2V54l-9.6,1.4c-3.9,0.6-6.9,1.5-8.8,2.8
			c-2,1.3-3,2.5-3,4.5c0,1.5,0.5,2.8,1.4,3.8c0.9,1,2.1,1.8,3.5,2.3C309.1,69.3,310.5,69.5,312,69.5z"/>
		<path fill="#FFFFFF" d="M342.2,75.3c-0.6,0-1-0.2-1.4-0.5c-0.4-0.4-0.5-0.8-0.5-1.4v-2.9c0-0.5,0.1-1,0.4-1.4
			c0.2-0.4,0.5-0.9,0.8-1.2l22.8-29.7H343c-0.6,0-1-0.2-1.4-0.5c-0.4-0.3-0.5-0.8-0.5-1.4v-2.7c0-0.6,0.2-1,0.5-1.4
			c0.4-0.4,0.8-0.5,1.4-0.5h29.4c0.5,0,1,0.2,1.4,0.5c0.4,0.4,0.5,0.8,0.5,1.4v3.1c0,0.5-0.1,0.9-0.4,1.3c-0.2,0.4-0.5,0.8-0.8,1.2
			l-22.5,29.6H374c0.6,0,1.1,0.2,1.4,0.5c0.3,0.3,0.5,0.8,0.5,1.4v2.7c0,0.6-0.2,1-0.5,1.4c-0.3,0.4-0.8,0.5-1.4,0.5H342.2z"/>
		<path fill="#FFFFFF" d="M385.5,24.8c-0.6,0-1-0.2-1.4-0.5c-0.4-0.4-0.5-0.8-0.5-1.4v-4.5c0-0.6,0.2-1,0.5-1.4
			c0.4-0.4,0.8-0.6,1.4-0.6h5.2c0.5,0,1,0.2,1.4,0.6c0.4,0.4,0.6,0.9,0.6,1.4v4.5c0,0.6-0.2,1-0.6,1.4c-0.4,0.4-0.9,0.5-1.4,0.5
			H385.5z M386.2,75.3c-0.6,0-1-0.2-1.4-0.5c-0.4-0.4-0.5-0.8-0.5-1.4V33.5c0-0.6,0.2-1,0.5-1.4c0.4-0.4,0.8-0.5,1.4-0.5h4
			c0.6,0,1,0.2,1.4,0.5c0.4,0.4,0.5,0.8,0.5,1.4v39.9c0,0.6-0.2,1-0.5,1.4c-0.4,0.4-0.8,0.5-1.4,0.5H386.2z"/>
		<path fill="#FFFFFF" d="M405.3,75.3c-0.6,0-1-0.2-1.4-0.5c-0.4-0.4-0.5-0.8-0.5-1.4V33.5c0-0.6,0.2-1,0.5-1.4
			c0.4-0.4,0.8-0.5,1.4-0.5h3.9c0.5,0,1,0.2,1.4,0.5c0.4,0.4,0.5,0.8,0.5,1.4v4.4c1.4-1.9,3.2-3.4,5.4-4.6c2.2-1.2,5-1.8,8.4-1.8
			c3.6,0,6.6,0.8,9.1,2.4c2.5,1.6,4.4,3.7,5.7,6.5c1.3,2.8,1.9,6,1.9,9.7v23.3c0,0.6-0.2,1-0.5,1.4c-0.4,0.4-0.8,0.5-1.4,0.5h-4.1
			c-0.6,0-1-0.2-1.4-0.5c-0.4-0.4-0.5-0.8-0.5-1.4V50.5c0-3.9-0.9-6.9-2.8-9c-1.9-2.2-4.6-3.3-8.3-3.3c-3.4,0-6.2,1.1-8.2,3.3
			c-2.1,2.2-3.1,5.2-3.1,9v22.9c0,0.6-0.2,1-0.5,1.4c-0.4,0.4-0.8,0.5-1.4,0.5H405.3z"/>
		<path fill="#FFFFFF" d="M469.8,75.6c-5.7,0-10.3-1.7-13.6-5.2c-3.4-3.5-5.2-7.8-5.5-13.8c-0.1-0.7-0.1-1.6-0.1-2.8
			c0-1.1,0-2.1,0.1-2.8c0.2-3.9,1.1-7.3,2.7-10.3c1.6-2.9,3.8-5.2,6.6-6.8c2.8-1.6,6-2.4,9.8-2.4c4.2,0,7.7,0.9,10.5,2.6
			c2.8,1.8,5,4.3,6.5,7.5c1.5,3.3,2.2,7.1,2.2,11.4v1.4c0,0.6-0.2,1.1-0.5,1.4c-0.4,0.3-0.8,0.5-1.4,0.5h-28.6c0,0.1,0,0.2,0,0.3
			s0,0.3,0,0.4c0.1,2.3,0.6,3.8,1.5,5.8c0.9,2,2.2,3.5,3.8,4.8c1.7,1.2,3.6,1.8,5.9,1.8c2,0,3.6-0.3,5-0.9c1.3-0.6,2.4-1.6,3.2-2.3
			c0.8-0.7,1.4-1.3,1.7-1.8c0.5-0.7,0.9-1.1,1.2-1.2c0.3-0.1,0.7-0.2,1.3-0.2h4c0.5,0,0.9,0.2,1.3,0.5c0.4,0.3,0.5,0.7,0.5,1.3
			c-0.1,0.8-0.5,2.1-1.3,3.3c-0.8,1.2-2,2.4-3.5,3.5c-1.5,1.2-3.4,2.1-5.6,2.9C475.2,75.3,472.6,75.6,469.8,75.6z M458.5,50.7h22.6
			v-0.2c0-2.5-0.5-4.7-1.4-6.6c-0.9-1.9-2.2-3.5-3.9-4.6c-1.7-1.1-3.7-1.7-6.1-1.7c-2.4,0-4.4,0.6-6.1,1.7c-1.7,1.1-3,2.7-3.8,4.6
			c-0.9,1.9-1.3,4.1-1.3,6.6V50.7z"/>
	</g>
	<g>
		<path fill="#FFFFFF" d="M31.9,75.5h13.4h3.2c1.3,0,2.5-0.9,2.9-2.2L66,22.5c0.4-1.4-0.7-2.9-2.1-2.9H50.5c-1.3,0-2.5,0.9-2.9,2.2
			L31.9,75.5z"/>
		<path fill="#FFFFFF" d="M100.1,19.6H75.6c-1.3,0-2.5,0.9-2.9,2.2L58.1,72.6c-0.4,1.4,0.7,2.9,2.1,2.9h13.4c1.3,0,2.5-0.9,2.9-2.2
			l5-17.3h3.6l5,17.3c0.4,1.3,1.5,2.2,2.9,2.2h13.4c1.5,0,2.6-1.4,2.1-2.9l-4.8-16.8c8.9-1.2,14.7-8.8,14.7-18.1v0
			C118.3,27.8,110.1,19.6,100.1,19.6z M94.2,43.9H85l3.5-12.2h5.7c3.4,0,6.1,2.7,6.1,6.1C100.3,41.2,97.5,43.9,94.2,43.9z"/>
		<g>
			<path opacity="0.5" fill="#FFFFFF" d="M25.9,73.6l9.4-32l-5.8-19.9c-0.4-1.3-1.5-2.2-2.9-2.2H13.2c-1.5,0-2.6,1.4-2.1,2.9
				C11.1,22.5,25.9,73.5,25.9,73.6z"/>
		</g>
	</g>
</g>
</svg>
