<?xml version="1.0" encoding="utf-8"?>
<!-- Generator: Adobe Illustrator 23.1.0, SVG Export Plug-In . SVG Version: 6.00 Build 0)  -->
<svg version="1.1" id="Слой_1" xmlns="http://www.w3.org/2000/svg" xmlns:xlink="http://www.w3.org/1999/xlink" x="0px" y="0px"
	 viewBox="0 0 480 78" style="enable-background:new 0 0 480 78;" xml:space="preserve">
<style type="text/css">
	.st0{fill:#FFFFFF;}
	.st1{opacity:0.5;fill:#FFFFFF;enable-background:new    ;}
</style>
<g>
	<g>
		<path class="st0" d="M124.3,59.4c-0.6,0-1-0.2-1.4-0.5c-0.4-0.4-0.5-0.8-0.5-1.4V17.5c0-0.6,0.2-1,0.5-1.4
			c0.4-0.4,0.8-0.5,1.4-0.5h3.7c0.5,0,1,0.2,1.4,0.5c0.4,0.4,0.5,0.8,0.5,1.4v3.6c1.3-1.7,2.9-3.1,4.8-4.1c1.9-1,4.2-1.5,6.9-1.5
			c6.2-0.1,10.6,2.5,13.2,7.6c1.3-2.3,3.1-4.2,5.5-5.5c2.4-1.4,5.2-2.1,8.3-2.1c2.9,0,5.5,0.7,7.8,2c2.3,1.3,4.2,3.3,5.5,6s2,6,2,10
			v23.9c0,0.6-0.2,1-0.5,1.4c-0.4,0.4-0.8,0.5-1.4,0.5h-3.9c-0.6,0-1-0.2-1.4-0.5c-0.4-0.4-0.5-0.8-0.5-1.4V34.3
			c0-3.1-0.4-5.5-1.3-7.3c-0.9-1.8-2.1-3-3.6-3.7s-3.1-1.1-4.9-1.1c-1.4,0-2.9,0.4-4.4,1.1c-1.5,0.7-2.7,2-3.7,3.7
			c-1,1.8-1.4,4.2-1.4,7.3v23.1c0,0.6-0.2,1-0.5,1.4c-0.4,0.4-0.8,0.5-1.4,0.5h-3.9c-0.6,0-1-0.2-1.4-0.5c-0.4-0.4-0.5-0.8-0.5-1.4
			V34.3c0-3.1-0.5-5.5-1.4-7.3s-2.1-3-3.6-3.7s-3.1-1.1-4.7-1.1c-1.4,0-2.9,0.4-4.4,1.1c-1.5,0.7-2.7,2-3.7,3.7
			c-1,1.8-1.4,4.2-1.4,7.2v23.2c0,0.6-0.2,1-0.5,1.4c-0.4,0.4-0.8,0.5-1.4,0.5H124.3z"/>
		<path class="st0" d="M207,59.7c-2.8,0-5.3-0.6-7.5-1.7c-2.3-1.1-4.1-2.6-5.5-4.5s-2.1-4-2.1-6.4c0-3.8,1.5-6.4,4.6-8.6
			c3.1-2.3,7.1-3.7,12.1-4.5l12.3-1.7V30c0-2.6-0.8-4.7-2.3-6.2s-4-2.2-7.4-2.2c-2.4,0-4.4,0.5-5.9,1.5s-2.6,2.3-3.2,3.8
			c-0.3,0.8-0.9,1.2-1.7,1.2h-3.7c-0.6,0-1.1-0.2-1.4-0.5c-0.3-0.4-0.5-0.8-0.5-1.3c0-0.8,0.3-1.8,0.9-3.1c0.6-1.2,1.6-2.4,2.9-3.6
			c1.3-1.2,3-2.1,5.1-2.9c2.1-0.8,4.6-1.2,7.6-1.2c3.3,0,6.1,0.4,8.3,1.3c2.3,0.9,4,2,5.3,3.4s2.2,3.1,2.8,4.9
			c0.6,1.8,0.9,3.7,0.9,5.5v26.8c0,0.6-0.2,1-0.5,1.4c-0.4,0.4-0.8,0.5-1.4,0.5H223c-0.6,0-1.1-0.2-1.4-0.5
			c-0.3-0.4-0.5-0.8-0.5-1.4v-3.6c-0.7,1-1.7,1.5-2.9,2.5s-2.7,1.8-4.5,2.4C211.9,59.5,209.6,59.7,207,59.7z M208.7,53.5
			c2.3,0,4.3-0.5,6.2-1.4c1.9-1,3.3-2.5,4.4-4.5c1.1-2,1.6-4.2,1.6-7.2V38l-9.6,1.4c-3.9,0.6-6.9,1.5-8.8,2.8c-2,1.3-3,2.5-3,4.5
			c0,1.5,0.5,2.8,1.4,3.8s2.1,1.8,3.5,2.3C205.8,53.4,207.2,53.5,208.7,53.5z"/>
		<path class="st0" d="M257.4,77.6c-3.7,0-6.8-0.5-9.2-1.5c-2.4-1-4.3-2.2-5.6-3.6c-1.4-1.4-2.3-2.8-2.9-4.2c-0.6-1.4-0.9-2.5-1-3.3
			c-0.1-0.6,0.1-1,0.5-1.4s0.9-0.6,1.4-0.6h4c0.5,0,0.9,0.1,1.2,0.3c0.3,0.2,0.6,0.7,0.8,1.4c0.3,0.8,0.8,1.7,1.5,2.8
			c0.7,1,1.7,1.9,3.1,2.6s3.3,1.1,5.8,1.1c2.6,0,4.8-0.4,6.5-1.1c1.8-0.7,3.1-1.9,4-3.6s1.4-4.1,1.4-7.1v-5.6
			c-1.3,1.7-3.1,3.1-5.2,4.3c-2.1,1.1-4.8,1.7-8.1,1.7c-3.1,0-5.7-0.5-7.9-1.6c-2.2-1.1-4-2.5-5.4-4.4c-1.4-1.8-2.5-4-3.1-6.3
			c-0.7-2.4-1.1-4.8-1.2-7.4c-0.1-1.5-0.1-3.1,0-4.5c0.1-2.6,0.5-5.1,1.2-7.4c0.7-2.4,1.7-4.5,3.1-6.4c1.4-1.9,3.2-3.3,5.4-4.4
			c2.2-1.1,4.8-1.6,7.9-1.6c3.3,0,6,0.6,8.2,1.8s4,2.7,5.3,4.5v-4.3c0-0.5,0.2-1,0.5-1.4c0.4-0.4,0.8-0.6,1.4-0.6h3.8
			c0.5,0,1,0.2,1.4,0.6c0.4,0.4,0.6,0.9,0.6,1.4v40.8c0,3.7-0.6,7-1.9,9.8c-1.2,2.9-3.3,5.1-6.1,6.8C266,76.8,262.2,77.6,257.4,77.6
			z M257.2,53c2.8,0,5-0.6,6.6-1.9c1.7-1.3,2.9-2.9,3.7-4.8c0.8-1.9,1.2-3.9,1.3-5.9c0.1-0.8,0.1-1.7,0.1-2.9c0-1.1,0-2.1-0.1-2.9
			c-0.1-2-0.5-3.9-1.3-5.9c-0.8-1.9-2-3.5-3.7-4.8s-3.9-1.9-6.6-1.9c-2.8,0-5,0.6-6.6,1.9c-1.7,1.2-2.8,2.9-3.6,4.9
			c-0.7,2-1.1,4.2-1.2,6.5c-0.1,1.4-0.1,2.9,0,4.4c0.1,2.3,0.5,4.5,1.2,6.5s1.9,3.6,3.6,4.9C252.3,52.5,254.5,53,257.2,53z"/>
		<path class="st0" d="M300.3,59.7c-2.8,0-5.3-0.6-7.5-1.7c-2.3-1.1-4.1-2.6-5.5-4.5s-2.1-4-2.1-6.4c0-3.8,1.5-6.4,4.6-8.6
			c3.1-2.3,7.1-3.7,12.1-4.5l12.3-1.7V30c0-2.6-0.8-4.7-2.3-6.2s-4-2.2-7.4-2.2c-2.4,0-4.4,0.5-5.9,1.5s-2.6,2.3-3.2,3.8
			c-0.3,0.8-0.9,1.2-1.7,1.2H290c-0.6,0-1.1-0.2-1.4-0.5c-0.3-0.4-0.5-0.8-0.5-1.3c0-0.8,0.3-1.8,1-3.1c0.6-1.2,1.6-2.4,2.9-3.6
			c1.3-1.2,3-2.1,5.1-2.9c2.1-0.8,4.6-1.2,7.6-1.2c3.3,0,6.1,0.4,8.3,1.3c2.3,0.9,4,2,5.3,3.4s2.2,3.1,2.8,4.9
			c0.6,1.8,0.9,3.7,0.9,5.5v26.8c0,0.6-0.2,1-0.5,1.4c-0.4,0.4-0.8,0.5-1.4,0.5h-3.8c-0.6,0-1.1-0.2-1.4-0.5
			c-0.3-0.4-0.5-0.8-0.5-1.4v-3.6c-0.7,1-1.7,1.5-2.9,2.5c-1.2,1-2.7,1.8-4.5,2.4S302.9,59.7,300.3,59.7z M302,53.5
			c2.3,0,4.3-0.5,6.2-1.4c1.9-1,3.3-2.5,4.4-4.5s1.6-4.2,1.6-7.2V38l-9.6,1.4c-3.9,0.6-6.9,1.5-8.8,2.8c-2,1.3-3,2.5-3,4.5
			c0,1.5,0.5,2.8,1.4,3.8s2.1,1.8,3.5,2.3S300.5,53.5,302,53.5z"/>
		<path class="st0" d="M332.2,59.4c-0.6,0-1-0.2-1.4-0.5c-0.4-0.4-0.5-0.8-0.5-1.4v-2.9c0-0.5,0.1-1,0.4-1.4
			c0.2-0.4,0.5-0.9,0.8-1.2l22.8-29.7H333c-0.6,0-1-0.2-1.4-0.5s-0.5-0.8-0.5-1.4v-2.7c0-0.6,0.2-1,0.5-1.4c0.4-0.4,0.8-0.5,1.4-0.5
			h29.4c0.5,0,1,0.2,1.4,0.5c0.4,0.4,0.5,0.8,0.5,1.4v3.1c0,0.5-0.1,0.9-0.4,1.3c-0.2,0.4-0.5,0.8-0.8,1.2l-22.5,29.6H364
			c0.6,0,1.1,0.2,1.4,0.5s0.5,0.8,0.5,1.4v2.7c0,0.6-0.2,1-0.5,1.4s-0.8,0.5-1.4,0.5C364,59.3,332.2,59.3,332.2,59.4z"/>
		<path class="st0" d="M375.5,8.8c-0.6,0-1-0.2-1.4-0.5c-0.4-0.4-0.5-0.8-0.5-1.4V2.4c0-0.6,0.2-1,0.5-1.4c0.4-0.4,0.8-0.6,1.4-0.6
			h5.2c0.5,0,1,0.2,1.4,0.6s0.6,0.9,0.6,1.4v4.5c0,0.6-0.2,1-0.6,1.4s-0.9,0.5-1.4,0.5H375.5z M376.2,59.4c-0.6,0-1-0.2-1.4-0.5
			c-0.4-0.4-0.5-0.8-0.5-1.4V17.5c0-0.6,0.2-1,0.5-1.4c0.4-0.4,0.8-0.5,1.4-0.5h4c0.6,0,1,0.2,1.4,0.5c0.4,0.4,0.5,0.8,0.5,1.4v39.9
			c0,0.6-0.2,1-0.5,1.4c-0.4,0.4-0.8,0.5-1.4,0.5H376.2z"/>
		<path class="st0" d="M395.3,59.4c-0.6,0-1-0.2-1.4-0.5c-0.4-0.4-0.5-0.8-0.5-1.4V17.5c0-0.6,0.2-1,0.5-1.4
			c0.4-0.4,0.8-0.5,1.4-0.5h3.9c0.5,0,1,0.2,1.4,0.5c0.4,0.4,0.5,0.8,0.5,1.4V22c1.4-1.9,3.2-3.4,5.4-4.6c2.2-1.2,5-1.8,8.4-1.8
			c3.6,0,6.6,0.8,9.1,2.4c2.5,1.6,4.4,3.7,5.7,6.5c1.3,2.8,1.9,6,1.9,9.7v23.3c0,0.6-0.2,1-0.5,1.4c-0.4,0.4-0.8,0.5-1.4,0.5h-4.1
			c-0.6,0-1-0.2-1.4-0.5c-0.4-0.4-0.5-0.8-0.5-1.4V34.5c0-3.9-0.9-6.9-2.8-9c-1.9-2.2-4.6-3.3-8.3-3.3c-3.4,0-6.2,1.1-8.2,3.3
			c-2.1,2.2-3.1,5.2-3.1,9v22.9c0,0.6-0.2,1-0.5,1.4c-0.4,0.4-0.8,0.5-1.4,0.5H395.3z"/>
		<path class="st0" d="M459.8,59.6c-5.7,0-10.3-1.7-13.6-5.2c-3.4-3.5-5.2-7.8-5.5-13.8c-0.1-0.7-0.1-1.6-0.1-2.8
			c0-1.1,0-2.1,0.1-2.8c0.2-3.9,1.1-7.3,2.7-10.3c1.6-2.9,3.8-5.2,6.6-6.8c2.8-1.6,6-2.4,9.8-2.4c4.2,0,7.7,0.9,10.5,2.6
			c2.8,1.8,5,4.3,6.5,7.5c1.5,3.3,2.2,7.1,2.2,11.4v1.4c0,0.6-0.2,1.1-0.5,1.4c-0.4,0.3-0.8,0.5-1.4,0.5h-28.6c0,0.1,0,0.2,0,0.3
			s0,0.3,0,0.4c0.1,2.3,0.6,3.8,1.5,5.8s2.2,3.5,3.8,4.8c1.7,1.2,3.6,1.8,5.9,1.8c2,0,3.6-0.3,5-0.9c1.3-0.6,2.4-1.6,3.2-2.3
			c0.8-0.7,1.4-1.3,1.7-1.8c0.5-0.7,0.9-1.1,1.2-1.2c0.3-0.1,0.7-0.2,1.3-0.2h4c0.5,0,0.9,0.2,1.3,0.5s0.5,0.7,0.5,1.3
			c-0.1,0.8-0.5,2.1-1.3,3.3c-0.8,1.2-2,2.4-3.5,3.5c-1.5,1.2-3.4,2.1-5.6,2.9C465.2,59.4,462.6,59.6,459.8,59.6z M448.5,34.8h22.6
			v-0.2c0-2.5-0.5-4.7-1.4-6.6c-0.9-1.9-2.2-3.5-3.9-4.6c-1.7-1.1-3.7-1.7-6.1-1.7s-4.4,0.6-6.1,1.7c-1.7,1.1-3,2.7-3.8,4.6
			c-0.9,1.9-1.3,4.1-1.3,6.6L448.5,34.8L448.5,34.8z"/>
	</g>
	<g>
		<path class="st0" d="M21.9,59.5h13.4h3.2c1.3,0,2.5-0.9,2.9-2.2L56,6.6c0.4-1.4-0.7-2.9-2.1-2.9H40.5c-1.3,0-2.5,0.9-2.9,2.2
			L21.9,59.5z"/>
		<path class="st0" d="M90.1,3.7H65.6c-1.3,0-2.5,0.9-2.9,2.2L48.1,56.6c-0.4,1.4,0.7,2.9,2.1,2.9h13.4c1.3,0,2.5-0.9,2.9-2.2
			l5-17.3h3.6l5,17.3c0.4,1.3,1.5,2.2,2.9,2.2h13.4c1.5,0,2.6-1.4,2.1-2.9l-4.8-16.8c8.9-1.2,14.7-8.8,14.7-18.1l0,0
			C108.3,11.8,100.1,3.7,90.1,3.7z M84.2,28H75l3.5-12.2h5.7c3.4,0,6.1,2.7,6.1,6.1C90.3,25.3,87.5,28,84.2,28z"/>
		<g>
			<path class="st1" d="M15.9,57.6l9.4-32L19.5,5.7c-0.4-1.3-1.5-2.2-2.9-2.2H3.2c-1.5,0-2.6,1.4-2.1,2.9
				C1.1,6.6,15.9,57.5,15.9,57.6z"/>
		</g>
	</g>
</g>
</svg>
