<?xml version="1.0" encoding="utf-8"?>
<!-- Generator: Adobe Illustrator 23.1.0, SVG Export Plug-In . SVG Version: 6.00 Build 0)  -->
<svg version="1.1" id="Слой_1" xmlns="http://www.w3.org/2000/svg" xmlns:xlink="http://www.w3.org/1999/xlink" x="0px" y="0px"
	 viewBox="0 0 479 120" enable-background="new 0 0 479 120" xml:space="preserve">
<g>
	<g>
		<g>
			<path fill="#F9F9F9" d="M123.816,59.165c-0.6,0-1-0.2-1.4-0.5c-0.4-0.4-0.5-0.8-0.5-1.4v-39.9c0-0.6,0.2-1,0.5-1.4
				c0.4-0.4,0.8-0.5,1.4-0.5h3.7c0.5,0,1,0.2,1.4,0.5c0.4,0.4,0.5,0.8,0.5,1.4v3.6c1.3-1.7,2.9-3.1,4.8-4.1c1.9-1,4.2-1.5,6.9-1.5
				c6.2-0.1,10.6,2.5,13.199,7.6c1.3-2.3,3.1-4.2,5.5-5.5c12.426-6.5,24.283,2.368,23.599,15.9v23.9c0,0.6-0.2,1-0.5,1.4
				c-0.4,0.4-0.8,0.5-1.4,0.5h-3.9c-0.6,0-1-0.2-1.4-0.5c-0.4-0.4-0.5-0.8-0.5-1.4v-23.1c0-3.1-0.4-5.5-1.3-7.3
				c-2.88-6.017-12.867-6.714-16.599,0c-1,1.8-1.4,4.2-1.4,7.3v23.1c0,0.6-0.2,1-0.5,1.4c-0.4,0.4-0.8,0.5-1.4,0.5h-3.9
				c-0.6,0-1-0.2-1.4-0.5c-0.4-0.4-0.5-0.8-0.5-1.4v-23.1c1.09-11.201-11.402-16.841-17.799-7.3c-1,1.8-1.4,4.2-1.4,7.2v23.2
				c0,0.6-0.2,1-0.5,1.4c-0.4,0.4-0.8,0.5-1.4,0.5H123.816z"/>
			<path fill="#F9F9F9" d="M206.513,59.565c-2.8,0-5.3-0.6-7.5-1.7c-7.498-2.916-10.912-14.4-3-19.5c3.1-2.3,7.1-3.7,12.099-4.5
				l12.299-1.7v-2.3c0.756-9.83-15.091-11.47-18.799-3.1c-0.3,0.8-0.9,1.2-1.7,1.2h-3.7c-0.6,0-1.1-0.2-1.4-0.5
				c-0.761-1.103-0.57-2.118,0.4-4.4c0.6-1.2,1.6-2.4,2.9-3.6c4.582-4.329,14.687-5.175,20.999-2.8c5.735,2.079,8.92,7.215,9,13.8
				v26.8c0,0.6-0.2,1-0.5,1.4c-0.4,0.4-0.8,0.5-1.4,0.5h-3.7c-0.6,0-1.1-0.2-1.4-0.5c-0.3-0.4-0.5-0.8-0.5-1.4v-3.6
				c-1.483,1.649-4.096,3.713-7.4,4.9C211.412,59.265,209.113,59.565,206.513,59.565z M208.213,53.365c2.3,0,4.3-0.5,6.2-1.4
				c1.9-1,3.3-2.5,4.4-4.5c1.1-2,1.6-4.2,1.6-7.2v-2.4l-9.6,1.4c-3.9,0.6-6.9,1.5-8.8,2.8c-4.775,2.594-3.414,8.846,1.9,10.6
				C205.313,53.165,206.713,53.365,208.213,53.365z"/>
			<path fill="#F9F9F9" d="M256.91,77.365c-3.7,0-6.8-0.5-9.2-1.5c-2.4-1-4.3-2.2-5.6-3.6c-1.4-1.4-2.3-2.8-2.9-4.2
				c-0.6-1.4-0.9-2.5-1-3.3c-0.066-0.685,0.336-1.811,1.9-2h4c0.5,0,0.9,0.1,1.2,0.3c0.3,0.2,0.6,0.7,0.8,1.4
				c0.3,0.8,0.8,1.7,1.5,2.8c2.539,4.137,10.679,4.469,15.399,2.6c3.988-1.676,5.306-5.409,5.4-10.7v-5.6c-1.3,1.7-3.1,3.1-5.2,4.3
				c-3.603,2.007-11.616,2.402-15.999,0.1c-2.2-1.1-4-2.5-5.4-4.4c-1.4-1.8-2.5-4-3.1-6.3c-0.7-2.4-1.1-4.8-1.2-7.4
				c-0.1-1.5-0.1-3.1,0-4.5c0.1-2.6,0.5-5.1,1.2-7.4c0.7-2.4,1.7-4.5,3.1-6.4c1.4-1.9,3.2-3.3,5.4-4.4
				c6.431-3.119,16.885-1.821,21.399,4.7v-4.3c0-0.5,0.2-1,0.5-1.4c0.4-0.4,0.8-0.6,1.4-0.6h3.8c0.609,0.065,1.83,0.426,2,2v40.8
				c0,3.7-0.6,7-1.9,9.8c-1.2,2.9-3.3,5.1-6.1,6.8C265.51,76.565,261.71,77.365,256.91,77.365z M256.71,52.865c2.8,0,5-0.6,6.6-1.9
				c1.7-1.3,2.9-2.9,3.7-4.8c0.8-1.9,1.2-3.9,1.3-5.9c0.123-1.212,0.157-3.738,0-5.8c-0.1-2-0.5-3.9-1.3-5.9
				c-1.957-6.177-11.367-8.824-16.899-4.8c-1.7,1.2-2.8,2.9-3.6,4.9c-0.7,2-1.1,4.2-1.2,6.5c-0.1,1.4-0.1,2.9,0,4.4
				c0.226,3.704,1.047,8.665,4.8,11.4C251.811,52.265,254.01,52.865,256.71,52.865z"/>
			<path fill="#F9F9F9" d="M299.808,59.565c-2.8,0-5.3-0.6-7.5-1.7c-7.498-2.916-10.912-14.4-3-19.5c3.1-2.3,7.1-3.7,12.099-4.5
				l12.299-1.7v-2.3c0.756-9.831-15.091-11.47-18.799-3.1c-0.3,0.8-0.9,1.2-1.7,1.2h-3.7c-0.6,0-1.1-0.2-1.4-0.5
				c-0.759-1.117-0.6-2.122,0.5-4.4c3.696-7.508,16.052-9.313,23.899-6.4c3.817,1.491,6.67,3.973,8.1,8.3c0.6,1.8,0.9,3.7,0.9,5.5
				v26.8c0,0.6-0.2,1-0.5,1.4c-0.4,0.4-0.8,0.5-1.4,0.5h-3.8c-0.6,0-1.1-0.2-1.4-0.5c-0.3-0.4-0.5-0.8-0.5-1.4v-3.6
				c-0.7,1-1.7,1.5-2.9,2.5C308.41,58.297,304.341,59.539,299.808,59.565z M301.508,53.365c2.3,0,4.3-0.5,6.2-1.4
				c3.884-2.155,6.027-6.384,6-11.7v-2.4l-9.6,1.4c-3.9,0.6-6.9,1.5-8.8,2.8C288.43,46.32,294.583,53.88,301.508,53.365z"/>
			<path fill="#F9F9F9" d="M331.707,59.165c-0.6,0-1-0.2-1.4-0.5c-0.4-0.4-0.5-0.8-0.5-1.4v-2.9c0-0.5,0.1-1,0.4-1.4
				c0.2-0.4,0.5-0.9,0.8-1.2l22.799-29.7h-21.299c-0.671-0.115-1.862-0.187-1.9-1.9v-2.7c0-0.6,0.2-1,0.5-1.4
				c0.4-0.4,0.8-0.5,1.4-0.5h29.399c0.5,0,1,0.2,1.4,0.5c0.4,0.4,0.5,0.8,0.5,1.4v3.1c0,0.5-0.1,0.9-0.4,1.3
				c-0.2,0.4-0.5,0.8-0.8,1.2l-22.499,29.6h23.399c0.735,0.108,1.745,0.175,1.9,1.9v2.7c-0.115,0.671-0.187,1.862-1.9,1.9
				C363.505,59.165,331.707,59.165,331.707,59.165z"/>
			<path fill="#F9F9F9" d="M375.005,8.665c-0.6,0-1-0.2-1.4-0.5c-0.4-0.4-0.5-0.8-0.5-1.4v-4.5c0-0.6,0.2-1,0.5-1.4
				c0.4-0.4,0.8-0.6,1.4-0.6h5.2c0.609,0.065,1.83,0.426,2,2v4.5c-0.058,0.649-0.407,1.85-2,1.9H375.005z M375.705,59.165
				c-0.6,0-1-0.2-1.4-0.5c-0.4-0.4-0.5-0.8-0.5-1.4v-39.9c0-0.6,0.2-1,0.5-1.4c0.4-0.4,0.8-0.5,1.4-0.5h4c0.6,0,1,0.2,1.4,0.5
				c0.4,0.4,0.5,0.8,0.5,1.4v39.9c0,0.6-0.2,1-0.5,1.4c-0.4,0.4-0.8,0.5-1.4,0.5H375.705z"/>
			<path fill="#F9F9F9" d="M394.804,59.165c-0.6,0-1-0.2-1.4-0.5c-0.4-0.4-0.5-0.8-0.5-1.4v-39.9c0-0.6,0.2-1,0.5-1.4
				c0.4-0.4,0.8-0.5,1.4-0.5h3.9c0.5,0,1,0.2,1.4,0.5c0.4,0.4,0.5,0.8,0.5,1.4v4.4c1.4-1.9,3.2-3.4,5.4-4.6
				c7.282-3.825,19.564-1.684,23.199,7.1c1.3,2.8,1.9,6,1.9,9.7v23.3c0,0.6-0.2,1-0.5,1.4c-0.4,0.4-0.8,0.5-1.4,0.5h-4.1
				c-0.6,0-1-0.2-1.4-0.5c-0.4-0.4-0.5-0.8-0.5-1.4v-22.9c0-3.9-0.9-6.9-2.8-9c-3.267-4.208-12.598-4.487-16.499,0
				c-2.1,2.2-3.1,5.2-3.1,9v22.9c0,0.6-0.2,1-0.5,1.4c-0.4,0.4-0.8,0.5-1.4,0.5H394.804z"/>
			<path fill="#F9F9F9" d="M459.301,59.465c-5.7,0-10.299-1.7-13.599-5.2c-3.4-3.5-5.2-7.8-5.5-13.8c-0.124-1.06-0.157-3.714,0-5.6
				c0.2-3.9,1.1-7.3,2.7-10.3c1.6-2.9,3.8-5.2,6.6-6.8c5.01-3.123,14.964-3.225,20.299,0.2c2.8,1.8,5,4.3,6.5,7.5
				c1.5,3.3,2.2,7.1,2.2,11.4v1.4c0,0.6-0.2,1.1-0.5,1.4c-0.4,0.3-0.8,0.5-1.4,0.5h-28.599c0,0.149,0,0.048,0,0.7
				c0.201,3.648,1.852,7.85,5.3,10.6c2.485,1.857,7.322,2.419,10.9,0.9c1.3-0.6,2.4-1.6,3.2-2.3c0.8-0.7,1.4-1.3,1.7-1.8
				c0.5-0.7,0.9-1.1,1.2-1.2c0.3-0.1,0.7-0.2,1.3-0.2h4c0.571,0.114,1.753,0.225,1.8,1.8c-0.247,2.033-2.031,4.824-4.8,6.8
				c-1.5,1.2-3.4,2.1-5.6,2.9C464.701,59.165,462.101,59.465,459.301,59.465z M448.001,34.565H470.6v-0.2
				c-0.07-4.134-1.376-8.467-5.3-11.2c-4.923-3.239-13.433-1.837-15.999,4.6c-0.9,1.9-1.3,4.1-1.3,6.6L448.001,34.565
				L448.001,34.565z"/>
		</g>
		<g>
			<path fill="#F9F9F9" d="M21.421,59.365h13.399h3.2c1.3,0,2.5-0.9,2.9-2.2l14.599-50.8c0.4-1.4-0.7-2.9-2.1-2.9H40.02
				c-1.3,0-2.5,0.9-2.9,2.2L21.421,59.365z"/>
			<path fill="#F9F9F9" d="M89.618,3.465H65.119c-1.3,0-2.5,0.9-2.9,2.2l-14.599,50.8c-0.4,1.4,0.7,2.9,2.1,2.9h13.399
				c1.3,0,2.5-0.9,2.9-2.2l5-17.3h3.6l5,17.3c0.4,1.3,1.5,2.2,2.9,2.2h13.399c1.5,0,2.6-1.4,2.1-2.9l-4.8-16.8
				c8.9-1.2,14.699-8.8,14.699-18.1l0,0C107.817,11.665,99.618,3.465,89.618,3.465z M83.718,27.765h-9.2l3.5-12.2h5.7
				c3.4,0,6.1,2.7,6.1,6.1C89.818,25.065,87.018,27.765,83.718,27.765z"/>
			<g>
				<path opacity="0.5" fill="#F9F9F9" enable-background="new    " d="M15.422,57.465l9.4-32l-5.8-19.9c-0.4-1.3-1.5-2.2-2.9-2.2
					H2.722c-1.5,0-2.6,1.4-2.1,2.9C0.622,6.365,15.422,57.365,15.422,57.465z"/>
			</g>
		</g>
	</g>
	<g>
		<path fill="#F9F9F9" d="M91.833,112.174c-2.157,0-3.955-0.413-5.397-1.239c-1.442-0.825-2.535-2.001-3.276-3.527
			c-0.742-1.526-1.141-3.297-1.197-5.313c-0.026-1.124-0.077-2.309,0-5.04c0-2.548,0.21-4.668,0.63-6.363
			c0.42-1.693,1.057-3.079,1.911-4.157c0.853-1.078,1.938-1.96,3.255-2.646c1.316-0.686,2.869-1.287,4.662-1.806
			c1.791-0.518,3.836-1.071,6.132-1.659c0.252-0.056,0.497-0.014,0.735,0.126c0.237,0.141,0.371,0.336,0.399,0.588l0.336,1.722
			c-0.102,0.16,0.332,0.554-0.672,1.051c-2.1,0.532-3.934,0.994-5.502,1.386c-1.568,0.393-2.884,0.848-3.948,1.365
			c-1.791,0.963-3.224,2.159-3.864,5.229c-0.121,0.645-0.247,2.196-0.247,2.196l-0.02,0.263c0,0,0.285-0.381,0.414-0.527
			c0.741-0.841,1.672-1.526,2.793-2.059c1.937-1.019,6.049-1.112,8.462,0.42c1.33,0.813,2.352,1.919,3.066,3.318
			c0.714,1.4,1.113,3.01,1.197,4.83c0.056,0.952,0.056,1.778,0,2.478c-0.193,2.842-1.203,6.281-4.535,8.169
			C95.739,111.776,93.961,112.174,91.833,112.174z M91.833,109.066c1.764,0,3.163-0.552,4.2-1.658
			c1.036-1.106,1.581-2.695,1.638-4.768c0-0.359,0.089-0.303,0-2.1c-0.057-2.128-0.595-3.738-1.617-4.83
			c-1.766-1.975-5.672-2.256-8.211,0c-1.148,1.092-1.764,2.702-1.848,4.83c0.01,0.489-0.09-0.078,0,2.1
			c0.084,2.072,0.644,3.661,1.68,4.768C88.711,108.514,90.097,109.066,91.833,109.066z"/>
		<path fill="#F9F9F9" d="M105.945,111.754c-0.28,0-0.519-0.098-0.714-0.294c-0.196-0.195-0.294-0.434-0.294-0.714v-1.554
			c0-0.616,0.294-0.925,0.882-0.925c0.868-0.027,1.596-0.44,2.184-1.238c0.588-0.799,1.035-2.072,1.344-3.822
			c0.308-1.75,0.462-4.067,0.462-6.951V90.88c0-0.279,0.091-0.511,0.273-0.693c0.182-0.182,0.413-0.272,0.693-0.272h13.355
			c0.279,0,0.51,0.091,0.693,0.272c0.182,0.183,0.273,0.414,0.273,0.693v19.908c-0.144,0.145,0.217,0.668-0.966,0.966h-2.016
			c-0.28,0-0.504-0.091-0.672-0.273c-0.168-0.182-0.252-0.412-0.252-0.692V93.274h-7.56v3.444c0,2.688-0.154,4.991-0.462,6.909
			c-0.309,1.918-0.777,3.473-1.407,4.662c-0.63,1.19-1.428,2.065-2.394,2.625C108.401,111.475,107.26,111.754,105.945,111.754z"/>
		<path fill="#F9F9F9" d="M140.298,112.174c-2.128,0-3.906-0.406-5.334-1.218c-1.428-0.812-2.52-1.938-3.276-3.381
			c-0.756-1.442-1.176-3.087-1.26-4.936c-0.03-0.636-0.074-2.048,0-3.611c0.084-1.876,0.51-3.528,1.281-4.956
			c0.77-1.429,1.869-2.548,3.297-3.36c2.367-1.397,7.531-1.759,10.583,0c1.428,0.813,2.526,1.932,3.297,3.36
			c0.77,1.428,1.197,3.08,1.281,4.956c0.027,0.622,0.077,1.832,0,3.611c-0.192,2.868-1.191,6.385-4.535,8.316
			C144.204,111.768,142.426,112.174,140.298,112.174z M140.298,108.94c1.735,0,3.121-0.552,4.158-1.658
			c1.036-1.106,1.596-2.723,1.68-4.852c0.03-0.585,0.073-1.778,0-3.191c-0.084-2.128-0.645-3.745-1.68-4.852
			c-1.626-1.782-5.932-2.488-8.337,0c-1.05,1.106-1.603,2.724-1.659,4.852c-0.031,0.585-0.073,1.779,0,3.191
			C134.623,105.787,136.04,108.812,140.298,108.94z"/>
		<path fill="#F9F9F9" d="M156.425,111.754c-0.28,0-0.511-0.091-0.693-0.273c-0.182-0.182-0.273-0.412-0.273-0.692V90.88
			c0-0.279,0.091-0.511,0.273-0.693c0.182-0.182,0.413-0.272,0.693-0.272h12.557c0.28,0,0.511,0.091,0.693,0.272
			c0.182,0.183,0.273,0.414,0.273,0.693v1.428c-0.145,0.144,0.218,0.67-0.966,0.966h-9.575v17.515
			c-0.145,0.145,0.217,0.669-0.966,0.966H156.425z"/>
		<path fill="#F9F9F9" d="M192.753,112.174c-2.128,0-3.906-0.406-5.334-1.218c-1.428-0.812-2.52-1.938-3.276-3.381
			c-0.756-1.442-1.176-3.087-1.26-4.936c-0.03-0.636-0.074-2.048,0-3.611c0.084-1.876,0.51-3.528,1.281-4.956
			c0.77-1.429,1.869-2.548,3.297-3.36c2.367-1.397,7.531-1.759,10.583,0c1.428,0.813,2.526,1.932,3.297,3.36
			c0.77,1.428,1.197,3.08,1.281,4.956c0.027,0.622,0.077,1.832,0,3.611c-0.193,2.868-1.191,6.385-4.535,8.316
			C196.659,111.768,194.88,112.174,192.753,112.174z M192.753,108.94c1.735,0,3.121-0.552,4.158-1.658
			c1.036-1.106,1.596-2.723,1.68-4.852c0.03-0.585,0.073-1.778,0-3.191c-0.084-2.128-0.645-3.745-1.68-4.852
			c-1.626-1.782-5.932-2.488-8.337,0c-1.05,1.106-1.603,2.724-1.659,4.852c-0.031,0.585-0.073,1.779,0,3.191
			C187.078,105.787,188.494,108.812,192.753,108.94z"/>
		<path fill="#F9F9F9" d="M225.805,112.174c-1.652,0-3.045-0.203-4.179-0.609c-1.6-0.716-2.929-1.19-4.221-3.527
			c-0.309-0.686-0.477-1.323-0.504-1.911c0-0.252,0.084-0.455,0.252-0.609c0.168-0.153,0.363-0.23,0.588-0.23h1.974
			c0.183,0.154,0.481-0.282,1.008,0.798c0.336,1.092,0.98,1.848,1.932,2.268c1.506,0.473,3.057,0.987,5.964,0.273
			c0.756-0.237,1.351-0.623,1.785-1.155c0.678-0.715,1.035-3.216-0.336-4.578c-0.658-0.588-1.673-0.882-3.045-0.882h-2.31
			c-0.133-0.143-0.622,0.217-0.882-0.924v-1.134c0.134-0.143-0.211-0.635,0.882-0.924h2.058c1.148,0,2.03-0.225,2.646-0.673
			c0.735-0.688,1.343-2.018,0.504-3.821c-0.28-0.532-0.749-0.973-1.407-1.323c-1.038-0.624-4.763-0.8-6.132,0.294
			c-0.658,0.546-1.127,1.352-1.407,2.415c-0.112,0.309-0.245,0.519-0.399,0.63c-0.154,0.112-0.372,0.168-0.651,0.168h-1.89
			c-0.252,0-0.462-0.069-0.63-0.21c-0.168-0.14-0.252-0.336-0.252-0.588c0.027-0.84,0.216-1.638,0.567-2.394
			c0.35-0.757,0.882-1.442,1.596-2.059c0.714-0.615,1.609-1.099,2.688-1.449c1.761-0.648,6.581-0.797,8.777,0.441
			c1.218,0.645,2.093,1.436,2.625,2.373c1.115,2.161,1.467,5.743-1.806,7.371c1.26,0.477,2.128,1.19,2.604,2.142
			c0.476,0.952,0.728,2.059,0.756,3.318c0.027,1.456-0.351,2.66-1.134,3.612c-0.784,0.952-1.869,1.673-3.255,2.162
			C229.185,111.929,227.596,112.174,225.805,112.174z"/>
		<path fill="#F9F9F9" d="M238.446,116.374c-0.144-0.145-0.669,0.218-0.966-0.966v-6.048c0-0.28,0.091-0.511,0.273-0.693
			c0.182-0.182,0.413-0.273,0.693-0.273h0.21c0.756-0.027,1.399-0.454,1.932-1.28c1.437-2.624,1.571-6.421,1.638-10.857V90.88
			c0.145-0.143-0.219-0.669,0.967-0.966h13.397c0.308,0,0.546,0.091,0.714,0.272c0.168,0.183,0.252,0.414,0.252,0.693v17.43h1.975
			c0.308,0,0.546,0.092,0.714,0.273c0.168,0.183,0.252,0.413,0.252,0.693v6.132c-0.161,0.147,0.265,0.679-0.966,0.966h-1.975
			c-0.28,0-0.511-0.092-0.692-0.273c-0.183-0.182-0.273-0.413-0.273-0.692v-3.654h-15.203v3.654c0,0.279-0.091,0.511-0.272,0.692
			c-0.183,0.182-0.414,0.273-0.693,0.273H238.446z M243.654,108.394l9.995-0.084V93.274h-7.601v3.444
			C245.949,100.859,245.889,104.826,243.654,108.394z"/>
		<path fill="#F9F9F9" d="M273.849,112.174c-3.372-0.067-6.62-1.034-8.61-4.599c-0.756-1.442-1.176-3.087-1.26-4.936
			c-0.03-0.636-0.074-2.048,0-3.611c0.084-1.876,0.511-3.528,1.281-4.956c0.77-1.429,1.869-2.548,3.297-3.36
			c2.367-1.397,7.531-1.759,10.583,0c1.428,0.813,2.526,1.932,3.297,3.36c0.77,1.428,1.197,3.08,1.281,4.956
			c0.027,0.622,0.077,1.832,0,3.611C283.672,107.596,280.017,112.419,273.849,112.174z M273.849,108.94
			c1.735,0,3.122-0.552,4.158-1.658c1.035-1.106,1.596-2.723,1.68-4.852c0.03-0.585,0.073-1.778,0-3.191
			c-0.084-2.128-0.645-3.745-1.68-4.852c-1.626-1.781-5.932-2.488-8.337,0c-1.05,1.106-1.603,2.724-1.659,4.852
			c-0.031,0.585-0.073,1.779,0,3.191C268.174,105.787,269.591,108.812,273.849,108.94z"/>
		<path fill="#F9F9F9" d="M290.019,119.735c-0.144-0.145-0.669,0.217-0.967-0.967V90.88c0.145-0.143-0.219-0.669,0.967-0.966h1.932
			c0.279,0,0.511,0.091,0.693,0.272c0.182,0.183,0.272,0.414,0.272,0.693v1.848c0.672-0.924,1.568-1.693,2.688-2.31
			c1.73-0.968,5.658-1.354,8.211-0.126c1.105,0.532,2.016,1.26,2.729,2.184c1.207,1.629,2.071,3.796,2.247,6.931
			c-0.009,0.644,0.09-0.236,0,2.855c-0.056,1.316-0.266,2.569-0.63,3.759c-0.364,1.19-0.902,2.241-1.617,3.15
			c-0.714,0.91-1.624,1.638-2.729,2.184c-1.812,0.895-5.612,1.245-8.106-0.084c-1.106-0.602-2.009-1.351-2.709-2.247v9.744
			c0,0.28-0.084,0.511-0.252,0.693c-0.168,0.182-0.393,0.273-0.672,0.273H290.019z M298.921,108.772
			c1.456,0,2.598-0.314,3.424-0.944c0.825-0.63,1.421-1.456,1.784-2.479c0.364-1.021,0.574-2.121,0.631-3.297
			c0.027-0.812,0.027-1.623,0-2.436c-0.057-1.177-0.267-2.274-0.631-3.297c-0.363-1.022-0.959-1.849-1.784-2.479
			c-1.459-1.02-4.474-1.447-6.762,0.021c-0.854,0.644-1.484,1.463-1.89,2.457c-0.406,0.994-0.638,2.009-0.693,3.045
			c-0.032,0.655-0.072,1.729,0,3.233c0.028,0.98,0.259,1.946,0.693,2.898c0.434,0.952,1.085,1.736,1.953,2.352
			C296.513,108.464,297.605,108.772,298.921,108.772z"/>
		<path fill="#F9F9F9" d="M322.987,112.174c-2.128,0-3.905-0.406-5.334-1.218c-2.594-1.493-4.307-4.393-4.536-8.316
			c-0.029-0.636-0.074-2.048,0-3.611c0.084-1.876,0.511-3.528,1.281-4.956c0.77-1.429,1.869-2.548,3.297-3.36
			c2.367-1.397,7.531-1.759,10.583,0c1.429,0.813,2.527,1.932,3.297,3.36c0.77,1.428,1.197,3.08,1.281,4.956
			c0.027,0.622,0.077,1.832,0,3.611c-0.193,2.868-1.19,6.386-4.536,8.316C326.893,111.768,325.115,112.174,322.987,112.174z
			 M322.987,108.94c3.232,0.002,5.721-2.329,5.838-6.51c0.031-0.585,0.073-1.778,0-3.191c-0.084-2.128-0.644-3.745-1.68-4.852
			c-1.625-1.781-5.932-2.488-8.337,0c-1.05,1.106-1.603,2.724-1.659,4.852c-0.031,0.585-0.073,1.779,0,3.191
			C317.311,105.787,318.729,108.812,322.987,108.94z"/>
		<path fill="#F9F9F9" d="M339.114,111.754c-0.28,0-0.512-0.091-0.693-0.273c-0.183-0.182-0.272-0.412-0.272-0.692V90.88
			c0.145-0.143-0.22-0.67,0.966-0.966h8.735c2.632,0,4.613,0.532,5.943,1.596c1.699,1.292,2.772,4.693,1.281,7.141
			c-0.477,0.644-1.148,1.19-2.017,1.638c6.151,3.146,2.843,12.373-4.871,11.466H339.114z M342.011,99.196h5.586
			c1.345,0,2.415-0.294,3.214-0.883c1.077-0.724,1.951-3.463,0-4.725c-0.799-0.405-1.869-0.609-3.214-0.609h-5.586V99.196z
			 M342.011,108.688h5.838c1.345,0,2.43-0.258,3.256-0.776c1.217-0.706,1.891-3.367,0.104-4.83c-0.756-0.518-1.876-0.777-3.36-0.777
			h-5.838V108.688z"/>
		<path fill="#F9F9F9" d="M362.674,111.754c-0.28,0-0.512-0.091-0.693-0.273c-0.183-0.182-0.272-0.412-0.272-0.692V90.88
			c0.145-0.143-0.22-0.67,0.966-0.966h2.016c0.279,0,0.511,0.091,0.693,0.272c0.182,0.183,0.272,0.414,0.272,0.693v6.174h4.704
			c2.856,0,4.941,0.672,6.258,2.017c2.352,2.16,2.872,8.491-0.21,10.92c-1.456,1.176-3.639,1.764-6.551,1.764H362.674z
			 M365.614,108.604h4.41c1.68,0,2.912-0.3,3.696-0.902c1.333-0.916,1.681-4.805,0.042-6.426c-0.756-0.715-2.002-1.071-3.738-1.071
			h-4.41V108.604z"/>
		<path fill="#F9F9F9" d="M391.485,112.174c-2.912,0-5.222-0.889-6.929-2.667c-1.708-1.777-2.646-4.206-2.814-7.287
			c-0.03-0.505-0.073-1.577,0-2.813c0.112-1.988,0.574-3.731,1.387-5.229c0.811-1.497,1.925-2.652,3.339-3.465
			c2.281-1.397,7.384-1.768,10.332,0.126c2.93,1.851,4.385,5.345,4.43,9.618v0.714c0,0.309-0.091,0.546-0.272,0.714
			c-0.183,0.168-0.414,0.252-0.693,0.252h-14.532c0,0.039,0,0.085,0,0.378c0.056,1.148,0.308,2.22,0.756,3.213
			c0.448,0.994,1.099,1.8,1.953,2.415c1.048,0.788,3.6,1.319,5.523,0.462c0.554-0.265,1.699-0.882,2.477-1.932
			c0.252-0.336,0.448-0.539,0.588-0.609c0.14-0.069,0.364-0.104,0.672-0.104h2.059c0.252,0,0.469,0.077,0.65,0.23
			c0.183,0.154,0.259,0.372,0.231,0.651c-0.028,0.42-0.252,0.932-0.672,1.533c-0.42,0.603-1.016,1.197-1.785,1.785
			c-0.77,0.588-1.722,1.07-2.856,1.448C394.193,111.986,392.913,112.174,391.485,112.174z M385.731,99.238h11.507v-0.126
			c0-1.261-0.23-2.38-0.692-3.36c-0.462-0.979-1.128-1.757-1.995-2.331c-1.322-0.847-4.001-1.336-6.195,0
			c-0.854,0.574-1.505,1.352-1.953,2.331c-0.448,0.98-0.672,2.1-0.672,3.36V99.238z"/>
	</g>
</g>
</svg>
