<?xml version="1.0" encoding="utf-8"?>
<!-- Generator: Adobe Illustrator 23.1.0, SVG Export Plug-In . SVG Version: 6.00 Build 0)  -->
<svg version="1.1" id="Capa_1" xmlns="http://www.w3.org/2000/svg" xmlns:xlink="http://www.w3.org/1999/xlink" x="0px" y="0px"
	 viewBox="0 0 77 91" style="enable-background:new 0 0 77 91;" xml:space="preserve">
<style type="text/css">
	.st0{fill:#595959;}
</style>
<g>
	<path class="st0" d="M75.4,46.1c-0.9-4.1-4.3-7.1-8.3-7.5c-9.5-1.1-19.1-1.1-28.7-1.1s-19.2,0-28.7,1.1c-4,0.4-7.3,3.5-8.3,7.5
		c-1.2,5.8-1.2,12.1-1.2,18.1s0,12.3,1.3,18.1c0.9,4.1,4.3,7.1,8.3,7.5c9.5,1.1,19.1,1.1,28.7,1.1s19.2,0,28.7-1.1
		c4-0.4,7.3-3.5,8.3-7.5c1.3-5.8,1.3-12.1,1.3-18.1C76.7,58.2,76.7,51.9,75.4,46.1z M22,50.6h-5.5V80h-5.1V50.6H6v-4.8h16.1v4.8H22z
		 M36,80h-4.6v-2.8c-1.8,2.1-3.6,3.1-5.3,3.1c-1.5,0-2.5-0.6-3-1.9c-0.3-0.8-0.4-2-0.4-3.8V54.5h4.6v18.8c0,1.1,0,1.6,0,1.8
		c0.1,0.7,0.5,1.1,1.1,1.1c0.9,0,1.9-0.7,2.9-2.2V54.5h4.6L36,80L36,80z M53.6,72.3c0,2.4-0.2,4.1-0.5,5.1c-0.6,1.9-1.9,2.9-3.7,2.9
		c-1.6,0-3.2-0.9-4.8-2.8V80H40V45.8h4.6V57c1.5-1.8,3.1-2.8,4.8-2.8c1.8,0,3.1,1,3.7,2.9c0.3,1,0.5,2.7,0.5,5.1V72.3z M71,68.1
		h-9.3v4.5c0,2.4,0.8,3.5,2.4,3.5c1.1,0,1.8-0.6,2.1-1.9c0-0.3,0.1-1.3,0.1-3.1H71v0.7c0,1.5-0.1,2.5-0.1,3c-0.2,1-0.5,2-1.1,2.8
		c-1.3,1.9-3.2,2.8-5.6,2.8c-2.4,0-4.3-0.9-5.6-2.6c-1-1.3-1.5-3.3-1.5-6v-8.9c0-2.7,0.4-4.7,1.4-6c1.3-1.7,3.2-2.6,5.5-2.6
		c2.3,0,4.2,0.9,5.5,2.6c1,1.3,1.4,3.3,1.4,6L71,68.1L71,68.1z"/>
	<path class="st0" d="M64.1,58.4c-1.5,0-2.3,1.2-2.3,3.5v2.4h4.6v-2.4C66.4,59.5,65.6,58.4,64.1,58.4z"/>
	<path class="st0" d="M46.9,58.4c-0.8,0-1.5,0.4-2.3,1.1v15.6c0.8,0.8,1.5,1.1,2.3,1.1c1.3,0,2-1.1,2-3.4v-11
		C48.9,59.5,48.2,58.4,46.9,58.4z"/>
	<path class="st0" d="M49.5,35.2c1.7,0,3.5-1,5.3-3.2v2.8h4.7V9h-4.7v19.7c-1,1.5-2,2.2-3,2.2c-0.6,0-1-0.4-1.1-1.1
		c-0.1-0.2-0.1-0.7-0.1-1.8V9h-4.5v20.4c0,1.8,0.2,3.1,0.4,3.8C47,34.6,48,35.2,49.5,35.2z"/>
	<path class="st0" d="M17,20.8v14h5.1v-14l6.3-20.6h-5.3l-3.5,13.6L15.9,0.2h-5.5c1.1,3.2,2.2,6.4,3.3,9.6
		C15.4,14.7,16.5,18.3,17,20.8z"/>
	<path class="st0" d="M35.3,35.2c2.3,0,4.2-0.9,5.5-2.6c1-1.3,1.5-3.3,1.5-6.1v-9c0-2.8-0.5-4.8-1.5-6.1c-1.3-1.8-3.1-2.6-5.5-2.6
		c-2.3,0-4.1,0.9-5.4,2.6c-1,1.3-1.5,3.3-1.5,6.1v9c0,2.7,0.5,4.8,1.5,6.1C31.2,34.3,33,35.2,35.3,35.2z M33.1,16.5
		c0-2.4,0.7-3.6,2.2-3.6s2.2,1.2,2.2,3.6v10.9c0,2.4-0.7,3.6-2.2,3.6s-2.2-1.3-2.2-3.7V16.5z"/>
</g>
</svg>
