<?xml version="1.0" standalone="no"?>
<!DOCTYPE svg PUBLIC "-//W3C//DTD SVG 1.1//EN" "http://www.w3.org/Graphics/SVG/1.1/DTD/svg11.dtd" >
<svg xmlns="http://www.w3.org/2000/svg">
<metadata>Generated by IcoMoon</metadata>
<defs>
<font id="icomoon" horiz-adv-x="1024">
<font-face units-per-em="1024" ascent="960" descent="-64" />
<missing-glyph horiz-adv-x="1024" />
<glyph unicode="&#x20;" horiz-adv-x="512" d="" />
<glyph unicode="&#xe900;" glyph-name="aboutus" d="M590.421 378.624c0 0 141.44 102.443 146.304 351.189 0 0 0 156.075-156.075 185.344s-326.784-239.019-287.744-404.864 185.344-151.211 199.979-121.941c0 0 0-243.883-43.904-370.688 0 0-4.864-4.864 9.771-19.499s29.227-19.499 29.227-19.499 141.44 73.173 170.709 282.88c0 0 14.635 63.403-68.267 117.077zM497.749 471.296c-19.499-43.904-87.808-97.536-141.44-43.904s-39.040 258.517 102.443 390.187 312.149 43.904 204.843-214.613c0 0-39.040-121.941-117.077-185.344 0 0-9.771 0 14.635 48.768s97.536 243.883-14.635 278.016v29.269c0 0-14.635 29.269-34.133 34.133 0 0 4.864-292.608-14.635-336.512zM546.517 724.907c0 0 24.405 0 29.269-39.040 4.864-48.768-24.405-82.901-24.405-82.901 4.907 43.904-4.864 121.941-4.864 121.941zM517.248 81.109c19.499 97.536 24.405 282.88 24.405 282.88s73.173 9.771 73.173-68.267c0-92.715-97.579-214.613-97.579-214.613z" />
<glyph unicode="&#xe901;" glyph-name="armchair" d="M298.667-21.333c0-23.552-19.115-42.667-42.667-42.667s-42.667 19.115-42.667 42.667 19.115 42.667 42.667 42.667 42.667-19.115 42.667-42.667zM768 21.333c-23.552 0-42.667-19.115-42.667-42.667s19.115-42.667 42.667-42.667 42.667 19.115 42.667 42.667-19.115 42.667-42.667 42.667zM512 21.333c-23.552 0-42.667-19.115-42.667-42.667s19.115-42.667 42.667-42.667 42.667 19.115 42.667 42.667-19.115 42.667-42.667 42.667zM853.333 576v-42.667h-42.667v-128c0 0 0.811-26.624-3.584-33.152l-85.333-128c-3.968-5.973-10.624-9.515-17.749-9.515h-170.667v-73.259l202.965-121.771-21.931-36.565-181.035 108.587v-47.659h-42.667v47.659l-181.035-108.629-21.931 36.565 202.965 121.771v73.301h-170.667c-7.125 0-13.781 3.541-17.749 9.515l-85.333 128c-4.395 6.528-3.584 33.152-3.584 33.152v128h-42.667v42.667h128v-42.667h-42.667v-128h82.475l-42.667 340.693h194.859v43.307h-33.408c-40.363 0-73.259 32.896-73.259 73.259v24.149c0 40.363 32.896 73.259 73.259 73.259h109.483c40.363 0 73.259-32.896 73.259-73.259v-24.107c0-40.405-32.896-73.301-73.259-73.301h-33.408v-43.307h194.816l-42.667-340.693h82.517v128h-42.667v42.667h128zM566.741 832c16.896 0 30.592 13.739 30.592 30.592v24.149c0 16.853-13.696 30.592-30.592 30.592h-109.483c-16.896 0-30.592-13.739-30.592-30.592v-24.107c0-16.896 13.696-30.635 30.592-30.635h109.483zM381.483 405.333h260.992l37.333 298.027h-335.659l37.333-298.027zM749.44 362.667h-474.88l56.875-85.333h361.131l56.875 85.333z" />
<glyph unicode="&#xe902;" horiz-adv-x="1233" d="M592.239 504.549c0 0-19.104 72.597-133.731 15.284s-91.701-164.299-72.597-183.403 53.493-42.030 103.164 38.209c0 0 7.642-38.209 45.851-61.134 0 0-34.388 38.209-26.746 114.627l-22.925 34.388c0 0-49.672-137.552-87.881-99.343-22.925 22.925 57.313 129.91 156.657 141.373 0 0 15.284 19.104 0-194.866 0 0 34.388 26.746 42.030 129.91 0 0 3.821 42.030 64.955 72.597 0 0-11.463 19.104-38.209 7.642s-30.567-15.284-30.567-15.284z" />
<glyph unicode="&#xe903;" horiz-adv-x="1233" d="M752.716 538.937c0 0-95.522-11.463-95.522-87.881s99.343-34.388 110.806-45.851-49.672-72.597-129.91-64.955c0 0 7.642-30.567 38.209-26.746s114.627 26.746 122.269 64.955-30.567 64.955-57.313 64.955-53.493-3.821-53.493 3.821 15.284 38.209 72.597 64.955c0 0 19.104 11.463-7.642 26.746z" />
<glyph unicode="&#xe904;" horiz-adv-x="1233" d="M810.030 752.907c0 0 19.104-64.955 19.104-187.224l-7.642-256c0 0 30.567-15.284 34.388 91.701 0 0-3.821 76.418 34.388 11.463s80.239-64.955 80.239-64.955 38.209-61.134 114.627-19.104c0 0-7.642-248.358-22.925-328.597 0 0 30.567 84.060 61.134 229.254s45.851 210.149 22.925 286.567c0 0-22.925 19.104-53.493 22.925 0 0-7.642-187.224-68.776-194.866-45.851-7.642-19.104 145.194-19.104 145.194l-34.388 15.284c0 0-26.746-57.313-3.821-137.552 0 0-64.955 45.851-84.060 84.060 0 3.821-3.821 3.821 22.925 42.030s26.746 42.030 30.567 49.672-7.642 38.209-7.642 38.209-57.313-72.597-61.134-72.597 7.642 168.119-26.746 229.254c0 0-7.642 11.463-30.567 15.284z" />
<glyph unicode="&#xe905;" horiz-adv-x="1233" d="M286.567 493.087c0 0 110.806 80.239 114.627 275.104 0 0 0 122.269-122.269 145.194s-256-187.224-225.433-317.134 145.194-118.448 156.657-95.522c0 0 0-191.045-34.388-290.388 0 0-3.821-3.821 7.642-15.284s22.925-15.284 22.925-15.284 110.806 57.313 133.731 221.612c0 0 11.463 49.672-53.493 91.701zM213.97 565.684c-15.284-34.388-68.776-76.418-110.806-34.388s-30.567 202.507 80.239 305.672 244.537 34.388 160.478-168.119c0 0-30.567-95.522-91.701-145.194 0 0-7.642 0 11.463 38.209s76.418 191.045-11.463 217.791v22.925c0 0-11.463 22.925-26.746 26.746 0 0 3.821-229.254-11.463-263.642zM252.179 764.37c0 0 19.104 0 22.925-30.567 3.821-38.209-19.104-64.955-19.104-64.955 3.821 34.388-3.821 95.522-3.821 95.522zM229.254 260.012c15.284 76.418 19.104 221.612 19.104 221.612s57.313 7.642 57.313-53.493c0-72.597-76.418-168.119-76.418-168.119z" />
<glyph unicode="&#xe906;" horiz-adv-x="1233" d="M532.251 660.060h178.818l-0.764-6.113h-176.907z" />
<glyph unicode="&#xe907;" horiz-adv-x="1233" d="M532.251 660.060h178.818l-0.764-6.113h-176.907z" />
<glyph unicode="&#xe908;" horiz-adv-x="1233" d="M532.251 660.060h178.818l-0.764-6.113h-176.907z" />
<glyph unicode="&#xe909;" horiz-adv-x="1233" d="M730.555 734.185l3.439 2.293 3.821 12.991c-1.528 0.382-3.821 0.764-5.731 0.764-8.024 0-15.284-3.439-21.397-8.406-21.397-17.958-72.215-17.194-85.206-16.812-1.91 0-3.821 0-6.113 0-12.991-0.382-64.191-1.146-85.588 16.812-6.113 4.967-13.373 8.406-21.397 8.406-1.91 0-4.203-0.382-5.731-0.764l3.821-13.755 2.293-1.528c36.681-23.69 43.94-50.818 44.322-67.248h128.764c0.764 16.43 7.642 43.94 44.704 67.248z" />
<glyph unicode="&#xe90a;" horiz-adv-x="1233" d="M730.555 734.185l3.439 2.293 3.821 12.991c-1.528 0.382-3.821 0.764-5.731 0.764-8.024 0-15.284-3.439-21.397-8.406-21.397-17.958-72.215-17.194-85.206-16.812-1.91 0-3.821 0-6.113 0-12.991-0.382-64.191-1.146-85.588 16.812-6.113 4.967-13.373 8.406-21.397 8.406-1.91 0-4.203-0.382-5.731-0.764l3.821-13.755 2.293-1.528c36.681-23.69 43.94-50.818 44.322-67.248h128.764c0.764 16.43 7.642 43.94 44.704 67.248z" />
<glyph unicode="&#xe90b;" horiz-adv-x="1233" d="M730.555 734.185l3.439 2.293 3.821 12.991c-1.528 0.382-3.821 0.764-5.731 0.764-8.024 0-15.284-3.439-21.397-8.406-21.397-17.958-72.215-17.194-85.206-16.812-1.91 0-3.821 0-6.113 0-12.991-0.382-64.191-1.146-85.588 16.812-6.113 4.967-13.373 8.406-21.397 8.406-1.91 0-4.203-0.382-5.731-0.764l3.821-13.755 2.293-1.528c36.681-23.69 43.94-50.818 44.322-67.248h128.764c0.764 16.43 7.642 43.94 44.704 67.248z" />
<glyph unicode="&#xe90c;" horiz-adv-x="1233" d="M730.555 734.185l3.439 2.293 3.821 12.991c-1.528 0.382-3.821 0.764-5.731 0.764-8.024 0-15.284-3.439-21.397-8.406-21.397-17.958-72.215-17.194-85.206-16.812-1.91 0-3.821 0-6.113 0-12.991-0.382-64.191-1.146-85.588 16.812-6.113 4.967-13.373 8.406-21.397 8.406-1.91 0-4.203-0.382-5.731-0.764l3.821-13.755 2.293-1.528c36.681-23.69 43.94-50.818 44.322-67.248h128.764c0.764 16.43 7.642 43.94 44.704 67.248z" />
<glyph unicode="&#xe90d;" horiz-adv-x="1233" d="M730.555 734.185l3.439 2.293 3.821 12.991c-1.528 0.382-3.821 0.764-5.731 0.764-8.024 0-15.284-3.439-21.397-8.406-21.397-17.958-72.215-17.194-85.206-16.812-1.91 0-3.821 0-6.113 0-12.991-0.382-64.191-1.146-85.588 16.812-6.113 4.967-13.373 8.406-21.397 8.406-1.91 0-4.203-0.382-5.731-0.764l3.821-13.755 2.293-1.528c36.681-23.69 43.94-50.818 44.322-67.248h128.764c0.764 16.43 7.642 43.94 44.704 67.248z" />
<glyph unicode="&#xe90e;" horiz-adv-x="1233" d="M730.555 734.185l3.439 2.293 3.821 12.991c-1.528 0.382-3.821 0.764-5.731 0.764-8.024 0-15.284-3.439-21.397-8.406-21.397-17.958-72.215-17.194-85.206-16.812-1.91 0-3.821 0-6.113 0-12.991-0.382-64.191-1.146-85.588 16.812-6.113 4.967-13.373 8.406-21.397 8.406-1.91 0-4.203-0.382-5.731-0.764l3.821-13.755 2.293-1.528c36.681-23.69 43.94-50.818 44.322-67.248h128.764c0.764 16.43 7.642 43.94 44.704 67.248z" />
<glyph unicode="&#xe90f;" horiz-adv-x="1233" d="M730.555 734.185l3.439 2.293 3.821 12.991c-1.528 0.382-3.821 0.764-5.731 0.764-8.024 0-15.284-3.439-21.397-8.406-21.397-17.958-72.215-17.194-85.206-16.812-1.91 0-3.821 0-6.113 0-12.991-0.382-64.191-1.146-85.588 16.812-6.113 4.967-13.373 8.406-21.397 8.406-1.91 0-4.203-0.382-5.731-0.764l3.821-13.755 2.293-1.528c36.681-23.69 43.94-50.818 44.322-67.248h128.764c0.764 16.43 7.642 43.94 44.704 67.248z" />
<glyph unicode="&#xe910;" horiz-adv-x="1233" d="M710.687 655.475c4.967 23.69 16.43 53.493 23.69 72.215-49.672-31.713-40.501-69.54-39.355-73.743h15.284l0.382 1.528z" />
<glyph unicode="&#xe911;" horiz-adv-x="1233" d="M710.687 655.475c4.967 23.69 16.43 53.493 23.69 72.215-49.672-31.713-40.501-69.54-39.355-73.743h15.284l0.382 1.528z" />
<glyph unicode="&#xe912;" horiz-adv-x="1233" d="M710.687 655.475c4.967 23.69 16.43 53.493 23.69 72.215-49.672-31.713-40.501-69.54-39.355-73.743h15.284l0.382 1.528z" />
<glyph unicode="&#xe913;" horiz-adv-x="1233" d="M533.015 655.475c-4.967 23.69-16.43 53.493-23.69 72.215 49.672-31.713 40.501-69.54 39.355-73.743h-15.284l-0.382 1.528z" />
<glyph unicode="&#xe914;" horiz-adv-x="1233" d="M533.015 655.475c-4.967 23.69-16.43 53.493-23.69 72.215 49.672-31.713 40.501-69.54 39.355-73.743h-15.284l-0.382 1.528z" />
<glyph unicode="&#xe915;" horiz-adv-x="1233" d="M533.015 655.475c-4.967 23.69-16.43 53.493-23.69 72.215 49.672-31.713 40.501-69.54 39.355-73.743h-15.284l-0.382 1.528z" />
<glyph unicode="&#xe916;" horiz-adv-x="1233" d="M476.848 738.77c8.788 4.203 19.487 0 23.307-9.17 8.024-19.104 20.251-51.2 25.6-75.654h-1.528c-10.699 0-19.487-8.788-19.487-19.487v-6.878c-0.764 0.382-1.146 1.146-1.91 1.528-9.17 9.17-22.543 32.478-35.152 89.791-2.293 8.406 1.91 16.43 9.17 19.869z" />
<glyph unicode="&#xe917;" horiz-adv-x="1233" d="M476.848 738.77c8.788 4.203 19.487 0 23.307-9.17 8.024-19.104 20.251-51.2 25.6-75.654h-1.528c-10.699 0-19.487-8.788-19.487-19.487v-6.878c-0.764 0.382-1.146 1.146-1.91 1.528-9.17 9.17-22.543 32.478-35.152 89.791-2.293 8.406 1.91 16.43 9.17 19.869z" />
<glyph unicode="&#xe918;" horiz-adv-x="1233" d="M476.848 738.77c8.788 4.203 19.487 0 23.307-9.17 8.024-19.104 20.251-51.2 25.6-75.654h-1.528c-10.699 0-19.487-8.788-19.487-19.487v-6.878c-0.764 0.382-1.146 1.146-1.91 1.528-9.17 9.17-22.543 32.478-35.152 89.791-2.293 8.406 1.91 16.43 9.17 19.869z" />
<glyph unicode="&#xe919;" horiz-adv-x="1233" d="M476.848 738.77c8.788 4.203 19.487 0 23.307-9.17 8.024-19.104 20.251-51.2 25.6-75.654h-1.528c-10.699 0-19.487-8.788-19.487-19.487v-6.878c-0.764 0.382-1.146 1.146-1.91 1.528-9.17 9.17-22.543 32.478-35.152 89.791-2.293 8.406 1.91 16.43 9.17 19.869z" />
<glyph unicode="&#xe91a;" horiz-adv-x="1233" d="M476.848 738.77c8.788 4.203 19.487 0 23.307-9.17 8.024-19.104 20.251-51.2 25.6-75.654h-1.528c-10.699 0-19.487-8.788-19.487-19.487v-6.878c-0.764 0.382-1.146 1.146-1.91 1.528-9.17 9.17-22.543 32.478-35.152 89.791-2.293 8.406 1.91 16.43 9.17 19.869z" />
<glyph unicode="&#xe91b;" horiz-adv-x="1233" d="M743.928 849.958c-38.591-18.722-81.767-27.51-104.693-31.331-11.081-1.91-22.161-1.91-33.242 0-22.925 3.821-66.101 12.991-104.31 31.331-3.439 1.91-7.642-1.146-7.26-5.349 4.203-37.445 10.699-84.442 10.699-84.442 1.528 0.382 5.731 1.146 8.024 1.146 8.024 0 15.284-3.439 21.397-8.406 21.397-17.958 72.597-17.194 85.588-16.812 1.91 0 3.821 0 6.113 0 12.991-0.382 63.809-1.146 85.206 16.812 6.113 4.967 13.373 8.406 21.397 8.406 1.91 0 5.349-0.764 6.878-1.146 0 0 8.788 62.663 12.227 84.442 0 3.821-4.203 6.878-8.024 5.349z" />
<glyph unicode="&#xe91c;" horiz-adv-x="1233" d="M743.928 849.958c-38.591-18.722-81.767-27.51-104.693-31.331-11.081-1.91-22.161-1.91-33.242 0-22.925 3.821-66.101 12.991-104.31 31.331-3.439 1.91-7.642-1.146-7.26-5.349 4.203-37.445 10.699-84.442 10.699-84.442 1.528 0.382 5.731 1.146 8.024 1.146 8.024 0 15.284-3.439 21.397-8.406 21.397-17.958 72.597-17.194 85.588-16.812 1.91 0 3.821 0 6.113 0 12.991-0.382 63.809-1.146 85.206 16.812 6.113 4.967 13.373 8.406 21.397 8.406 1.91 0 5.349-0.764 6.878-1.146 0 0 8.788 62.663 12.227 84.442 0 3.821-4.203 6.878-8.024 5.349z" />
<glyph unicode="&#xe91d;" horiz-adv-x="1233" d="M743.928 849.958c-38.591-18.722-81.767-27.51-104.693-31.331-11.081-1.91-22.161-1.91-33.242 0-22.925 3.821-66.101 12.991-104.31 31.331-3.439 1.91-7.642-1.146-7.26-5.349 4.203-37.445 10.699-84.442 10.699-84.442 1.528 0.382 5.731 1.146 8.024 1.146 8.024 0 15.284-3.439 21.397-8.406 21.397-17.958 72.597-17.194 85.588-16.812 1.91 0 3.821 0 6.113 0 12.991-0.382 63.809-1.146 85.206 16.812 6.113 4.967 13.373 8.406 21.397 8.406 1.91 0 5.349-0.764 6.878-1.146 0 0 8.788 62.663 12.227 84.442 0 3.821-4.203 6.878-8.024 5.349z" />
<glyph unicode="&#xe91e;" horiz-adv-x="1233" d="M743.928 849.958c-38.591-18.722-81.767-27.51-104.693-31.331-11.081-1.91-22.161-1.91-33.242 0-22.925 3.821-66.101 12.991-104.31 31.331-3.439 1.91-7.642-1.146-7.26-5.349 4.203-37.445 10.699-84.442 10.699-84.442 1.528 0.382 5.731 1.146 8.024 1.146 8.024 0 15.284-3.439 21.397-8.406 21.397-17.958 72.597-17.194 85.588-16.812 1.91 0 3.821 0 6.113 0 12.991-0.382 63.809-1.146 85.206 16.812 6.113 4.967 13.373 8.406 21.397 8.406 1.91 0 5.349-0.764 6.878-1.146 0 0 8.788 62.663 12.227 84.442 0 3.821-4.203 6.878-8.024 5.349z" />
<glyph unicode="&#xe91f;" horiz-adv-x="1233" d="M743.928 849.958c-38.591-18.722-81.767-27.51-104.693-31.331-11.081-1.91-22.161-1.91-33.242 0-22.925 3.821-66.101 12.991-104.31 31.331-3.439 1.91-7.642-1.146-7.26-5.349 4.203-37.445 10.699-84.442 10.699-84.442 1.528 0.382 5.731 1.146 8.024 1.146 8.024 0 15.284-3.439 21.397-8.406 21.397-17.958 72.597-17.194 85.588-16.812 1.91 0 3.821 0 6.113 0 12.991-0.382 63.809-1.146 85.206 16.812 6.113 4.967 13.373 8.406 21.397 8.406 1.91 0 5.349-0.764 6.878-1.146 0 0 8.788 62.663 12.227 84.442 0 3.821-4.203 6.878-8.024 5.349z" />
<glyph unicode="&#xe920;" horiz-adv-x="1233" d="M743.928 849.958c-38.591-18.722-81.767-27.51-104.693-31.331-11.081-1.91-22.161-1.91-33.242 0-22.925 3.821-66.101 12.991-104.31 31.331-3.439 1.91-7.642-1.146-7.26-5.349 4.203-37.445 10.699-84.442 10.699-84.442 1.528 0.382 5.731 1.146 8.024 1.146 8.024 0 15.284-3.439 21.397-8.406 21.397-17.958 72.597-17.194 85.588-16.812 1.91 0 3.821 0 6.113 0 12.991-0.382 63.809-1.146 85.206 16.812 6.113 4.967 13.373 8.406 21.397 8.406 1.91 0 5.349-0.764 6.878-1.146 0 0 8.788 62.663 12.227 84.442 0 3.821-4.203 6.878-8.024 5.349z" />
<glyph unicode="&#xe921;" horiz-adv-x="1233" d="M743.928 849.958c-38.591-18.722-81.767-27.51-104.693-31.331-11.081-1.91-22.161-1.91-33.242 0-22.925 3.821-66.101 12.991-104.31 31.331-3.439 1.91-7.642-1.146-7.26-5.349 4.203-37.445 10.699-84.442 10.699-84.442 1.528 0.382 5.731 1.146 8.024 1.146 8.024 0 15.284-3.439 21.397-8.406 21.397-17.958 72.597-17.194 85.588-16.812 1.91 0 3.821 0 6.113 0 12.991-0.382 63.809-1.146 85.206 16.812 6.113 4.967 13.373 8.406 21.397 8.406 1.91 0 5.349-0.764 6.878-1.146 0 0 8.788 62.663 12.227 84.442 0 3.821-4.203 6.878-8.024 5.349z" />
<glyph unicode="&#xe922;" horiz-adv-x="1233" d="M743.928 849.958c-38.591-18.722-81.767-27.51-104.693-31.331-11.081-1.91-22.161-1.91-33.242 0-22.925 3.821-66.101 12.991-104.31 31.331-3.439 1.91-7.642-1.146-7.26-5.349 4.203-37.445 10.699-84.442 10.699-84.442 1.528 0.382 5.731 1.146 8.024 1.146 8.024 0 15.284-3.439 21.397-8.406 21.397-17.958 72.597-17.194 85.588-16.812 1.91 0 3.821 0 6.113 0 12.991-0.382 63.809-1.146 85.206 16.812 6.113 4.967 13.373 8.406 21.397 8.406 1.91 0 5.349-0.764 6.878-1.146 0 0 8.788 62.663 12.227 84.442 0 3.821-4.203 6.878-8.024 5.349z" />
<glyph unicode="&#xe923;" horiz-adv-x="1233" d="M743.928 849.958c-38.591-18.722-81.767-27.51-104.693-31.331-11.081-1.91-22.161-1.91-33.242 0-22.925 3.821-66.101 12.991-104.31 31.331-3.439 1.91-7.642-1.146-7.26-5.349 4.203-37.445 10.699-84.442 10.699-84.442 1.528 0.382 5.731 1.146 8.024 1.146 8.024 0 15.284-3.439 21.397-8.406 21.397-17.958 72.597-17.194 85.588-16.812 1.91 0 3.821 0 6.113 0 12.991-0.382 63.809-1.146 85.206 16.812 6.113 4.967 13.373 8.406 21.397 8.406 1.91 0 5.349-0.764 6.878-1.146 0 0 8.788 62.663 12.227 84.442 0 3.821-4.203 6.878-8.024 5.349z" />
<glyph unicode="&#xe924;" horiz-adv-x="1233" d="M740.872 541.612l-7.642 56.931c-1.528 12.227-2.293 17.576-32.478 17.576h-157.039c-30.185 0-30.949-4.967-32.478-17.576l-7.642-56.931-7.642 1.146 7.642 56.931c2.293 16.812 6.878 24.072 40.119 24.072h157.039c33.242 0 37.827-7.26 40.119-24.072l7.642-56.931-7.642-1.146z" />
<glyph unicode="&#xe925;" horiz-adv-x="1233" d="M740.872 541.612l-7.642 56.931c-1.528 12.227-2.293 17.576-32.478 17.576h-157.039c-30.185 0-30.949-4.967-32.478-17.576l-7.642-56.931-7.642 1.146 7.642 56.931c2.293 16.812 6.878 24.072 40.119 24.072h157.039c33.242 0 37.827-7.26 40.119-24.072l7.642-56.931-7.642-1.146z" />
<glyph unicode="&#xe926;" horiz-adv-x="1233" d="M740.872 541.612l-7.642 56.931c-1.528 12.227-2.293 17.576-32.478 17.576h-157.039c-30.185 0-30.949-4.967-32.478-17.576l-7.642-56.931-7.642 1.146 7.642 56.931c2.293 16.812 6.878 24.072 40.119 24.072h157.039c33.242 0 37.827-7.26 40.119-24.072l7.642-56.931-7.642-1.146z" />
<glyph unicode="&#xe927;" horiz-adv-x="1233" d="M541.803 543.14l-5.731 0.764c0 1.146 4.203 30.567 7.26 40.884 3.439 11.463 17.576 11.081 36.681 10.699 3.821 0 8.024 0 12.609 0h64.955c4.585 0 8.788 0 12.609 0 19.104 0.382 33.242 0.764 36.681-10.699 3.057-10.316 7.26-39.737 7.26-40.884l-5.731-0.764c0 0.382-4.203 30.185-7.26 39.737-2.293 6.878-12.227 6.878-30.949 6.496-3.821 0-8.406 0-12.991 0h-64.955c-4.585 0-8.788 0-12.991 0-19.104 0.382-29.039 0.382-30.949-6.496-2.293-9.934-6.113-39.737-6.496-39.737z" />
<glyph unicode="&#xe928;" horiz-adv-x="1233" d="M541.803 543.14l-5.731 0.764c0 1.146 4.203 30.567 7.26 40.884 3.439 11.463 17.576 11.081 36.681 10.699 3.821 0 8.024 0 12.609 0h64.955c4.585 0 8.788 0 12.609 0 19.104 0.382 33.242 0.764 36.681-10.699 3.057-10.316 7.26-39.737 7.26-40.884l-5.731-0.764c0 0.382-4.203 30.185-7.26 39.737-2.293 6.878-12.227 6.878-30.949 6.496-3.821 0-8.406 0-12.991 0h-64.955c-4.585 0-8.788 0-12.991 0-19.104 0.382-29.039 0.382-30.949-6.496-2.293-9.934-6.113-39.737-6.496-39.737z" />
<glyph unicode="&#xe929;" horiz-adv-x="1233" d="M541.803 543.14l-5.731 0.764c0 1.146 4.203 30.567 7.26 40.884 3.439 11.463 17.576 11.081 36.681 10.699 3.821 0 8.024 0 12.609 0h64.955c4.585 0 8.788 0 12.609 0 19.104 0.382 33.242 0.764 36.681-10.699 3.057-10.316 7.26-39.737 7.26-40.884l-5.731-0.764c0 0.382-4.203 30.185-7.26 39.737-2.293 6.878-12.227 6.878-30.949 6.496-3.821 0-8.406 0-12.991 0h-64.955c-4.585 0-8.788 0-12.991 0-19.104 0.382-29.039 0.382-30.949-6.496-2.293-9.934-6.113-39.737-6.496-39.737z" />
<glyph unicode="&#xe92a;" horiz-adv-x="1233" d="M529.194 607.713l20.251-19.869 148.633 1.146 19.104 18.722z" />
<glyph unicode="&#xe92b;" horiz-adv-x="1233" d="M529.194 607.713l20.251-19.869 148.633 1.146 19.104 18.722z" />
<glyph unicode="&#xe92c;" horiz-adv-x="1233" d="M719.475 615.355h-193.719c-6.496 0-11.845 5.349-11.845 11.845v7.26c0 6.496 5.349 11.845 11.845 11.845h193.719c6.496 0 11.845-5.349 11.845-11.845v-7.26c0-6.496-4.967-11.845-11.845-11.845z" />
<glyph unicode="&#xe92d;" horiz-adv-x="1233" d="M719.475 615.355h-193.719c-6.496 0-11.845 5.349-11.845 11.845v7.26c0 6.496 5.349 11.845 11.845 11.845h193.719c6.496 0 11.845-5.349 11.845-11.845v-7.26c0-6.496-4.967-11.845-11.845-11.845z" />
<glyph unicode="&#xe92e;" horiz-adv-x="1233" d="M719.475 615.355h-193.719c-6.496 0-11.845 5.349-11.845 11.845v7.26c0 6.496 5.349 11.845 11.845 11.845h193.719c6.496 0 11.845-5.349 11.845-11.845v-7.26c0-6.496-4.967-11.845-11.845-11.845z" />
<glyph unicode="&#xe92f;" horiz-adv-x="1233" d="M719.475 615.355h-193.719c-6.496 0-11.845 5.349-11.845 11.845v7.26c0 6.496 5.349 11.845 11.845 11.845h193.719c6.496 0 11.845-5.349 11.845-11.845v-7.26c0-6.496-4.967-11.845-11.845-11.845z" />
<glyph unicode="&#xe930;" horiz-adv-x="1233" d="M766.854 738.77c-8.788 4.203-19.487 0-23.307-9.17-8.024-19.104-20.251-51.2-25.6-75.654h1.528c10.699 0 19.487-8.788 19.487-19.487v-6.878c0.764 0.382 1.146 1.146 1.91 1.528 9.17 9.17 22.543 32.478 35.152 89.791 2.293 8.406-1.91 16.43-9.17 19.869z" />
<glyph unicode="&#xe931;" horiz-adv-x="1233" d="M766.854 738.77c-8.788 4.203-19.487 0-23.307-9.17-8.024-19.104-20.251-51.2-25.6-75.654h1.528c10.699 0 19.487-8.788 19.487-19.487v-6.878c0.764 0.382 1.146 1.146 1.91 1.528 9.17 9.17 22.543 32.478 35.152 89.791 2.293 8.406-1.91 16.43-9.17 19.869z" />
<glyph unicode="&#xe932;" horiz-adv-x="1233" d="M766.854 738.77c-8.788 4.203-19.487 0-23.307-9.17-8.024-19.104-20.251-51.2-25.6-75.654h1.528c10.699 0 19.487-8.788 19.487-19.487v-6.878c0.764 0.382 1.146 1.146 1.91 1.528 9.17 9.17 22.543 32.478 35.152 89.791 2.293 8.406-1.91 16.43-9.17 19.869z" />
<glyph unicode="&#xe933;" horiz-adv-x="1233" d="M766.854 738.77c-8.788 4.203-19.487 0-23.307-9.17-8.024-19.104-20.251-51.2-25.6-75.654h1.528c10.699 0 19.487-8.788 19.487-19.487v-6.878c0.764 0.382 1.146 1.146 1.91 1.528 9.17 9.17 22.543 32.478 35.152 89.791 2.293 8.406-1.91 16.43-9.17 19.869z" />
<glyph unicode="&#xe934;" horiz-adv-x="1233" d="M766.854 738.77c-8.788 4.203-19.487 0-23.307-9.17-8.024-19.104-20.251-51.2-25.6-75.654h1.528c10.699 0 19.487-8.788 19.487-19.487v-6.878c0.764 0.382 1.146 1.146 1.91 1.528 9.17 9.17 22.543 32.478 35.152 89.791 2.293 8.406-1.91 16.43-9.17 19.869z" />
<glyph unicode="&#xe935;" glyph-name="barskylogo-red" horiz-adv-x="1233" d="M593.385 505.313c0 0-19.104 72.597-133.731 15.284s-91.701-164.299-72.597-183.403 53.493-42.030 103.164 38.209c0 0 7.642-38.209 45.851-61.134 0 0-34.388 38.209-26.746 114.627l-22.925 34.388c0 0-49.672-137.552-87.881-99.343-22.925 22.925 57.313 129.91 156.657 141.373 0 0 15.284 19.104 0-194.866 0 0 34.388 26.746 42.030 129.91 0 0 3.821 42.030 64.955 72.597 0 0-11.463 19.104-38.209 7.642s-30.567-15.284-30.567-15.284zM753.863 539.701c0 0-95.522-11.463-95.522-87.881s99.343-34.388 110.806-45.851-49.672-72.597-129.91-64.955c0 0 7.642-30.567 38.209-26.746s114.627 26.746 122.269 64.955-30.567 64.955-57.313 64.955-53.493-3.821-53.493 3.821 15.284 38.209 72.597 64.955c0 0 19.104 11.463-7.642 26.746zM811.176 753.672c0 0 19.104-64.955 19.104-187.224l-7.642-256c0 0 30.567-15.284 34.388 91.701 0 0-3.821 76.418 34.388 11.463s80.239-64.955 80.239-64.955 38.209-61.134 114.627-19.104c0 0-7.642-248.358-22.925-328.597 0 0 30.567 84.060 61.134 229.254s45.851 210.149 22.925 286.567c0 0-22.925 19.104-53.493 22.925 0 0-7.642-187.224-68.776-194.866-45.851-7.642-19.104 145.194-19.104 145.194l-34.388 15.284c0 0-26.746-57.313-3.821-137.552 0 0-64.955 45.851-84.060 84.060 0 3.821-3.821 3.821 22.925 42.030s26.746 42.030 30.567 49.672-7.642 38.209-7.642 38.209-57.313-72.597-61.134-72.597 7.642 168.119-26.746 229.254c0 0-7.642 11.463-30.567 15.284zM287.713 493.851c0 0 110.806 80.239 114.627 275.104 0 0 0 122.269-122.269 145.194s-256-187.224-225.433-317.134 145.194-118.448 156.657-95.522c0 0 0-191.045-34.388-290.388 0 0-3.821-3.821 7.642-15.284s22.925-15.284 22.925-15.284 110.806 57.313 133.731 221.612c0 0 11.463 49.672-53.493 91.701zM215.116 566.448c-15.284-34.388-68.776-76.418-110.806-34.388s-30.567 202.507 80.239 305.672 244.537 34.388 160.478-168.119c0 0-30.567-95.522-91.701-145.194 0 0-7.642 0 11.463 38.209s76.418 191.045-11.463 217.791v22.925c0 0-11.463 22.925-26.746 26.746 0 0 3.821-229.254-11.463-263.642zM253.325 765.134c0 0 19.104 0 22.925-30.567 3.821-38.209-19.104-64.955-19.104-64.955 3.821 34.388-3.821 95.522-3.821 95.522zM230.4 260.776c15.284 76.418 19.104 221.612 19.104 221.612s57.313 7.642 57.313-53.493c0-72.597-76.418-168.119-76.418-168.119zM695.403 660.824h-144.43c1.528 12.609-0.382 42.030-40.501 67.63 7.642-18.34 19.104-48.525 23.69-72.215l0.382-1.528h177.29l0.382 1.528c4.967 23.69 16.43 53.493 23.69 72.215-40.119-25.6-42.030-55.021-40.501-67.63zM477.994 739.534c8.788 4.203 19.487 0 23.307-9.17 8.024-19.104 20.251-51.2 25.6-75.654h-1.528c-10.699 0-19.487-8.788-19.487-19.487v-6.878c-0.764 0.382-1.146 1.146-1.91 1.528-9.17 9.17-22.543 32.478-35.152 89.791-2.293 8.024 1.91 16.43 9.17 19.869zM745.457 850.722c-38.591-18.722-81.767-27.51-104.693-31.331-11.081-1.91-22.161-1.91-33.242 0-22.925 3.821-66.101 12.991-104.31 31.331-3.439 1.91-7.642-1.146-7.26-5.349 4.203-37.445 10.699-84.442 10.699-84.442 1.528 0.382 5.731 1.146 8.024 1.146 8.024 0 15.284-3.439 21.397-8.406 21.397-17.958 72.597-17.194 85.588-16.812 1.91 0 3.821 0 6.113 0 12.991-0.382 63.809-1.146 85.206 16.812 6.113 4.967 13.373 8.406 21.397 8.406 1.91 0 5.349-0.764 6.878-1.146 0 0 8.788 62.663 12.227 84.442-0.382 3.821-4.585 6.878-8.024 5.349zM702.663 592.812l16.048 15.666h-188.37l17.958-17.576c-1.528-1.528-2.675-3.439-3.439-5.731-3.057-10.316-7.26-39.737-7.26-40.884l5.731-0.764c0 0.382 4.203 30.185 7.26 39.737 0.764 2.675 2.675 4.203 5.349 4.967l136.788 1.146c6.113-0.764 9.552-2.293 10.699-6.113 3.057-9.934 7.26-39.737 7.26-39.737l5.731 0.764c0 1.146-4.203 30.567-7.26 40.884-1.528 3.439-3.439 6.113-6.496 7.642zM742.018 600.072c-1.528 9.934-3.439 16.43-11.845 20.251 1.528 1.91 2.675 4.585 2.675 7.642v7.26c0 6.496-5.349 11.845-11.845 11.845h-193.719c-6.496 0-11.845-5.349-11.845-11.845v-7.26c0-2.675 0.764-4.967 2.293-6.878-9.17-3.821-11.463-10.316-12.991-20.633l-7.642-56.931 7.642-1.146 7.642 56.931c1.528 9.934 2.293 15.284 18.722 16.812h184.549c16.43-1.528 17.194-6.878 18.722-16.812l7.642-56.931 7.642 1.146-7.642 56.549zM768 739.534c-8.788 4.203-19.487 0-23.307-9.17-8.024-19.104-20.251-51.2-25.6-75.654h1.528c10.699 0 19.487-8.788 19.487-19.487v-6.878c0.764 0.382 1.146 1.146 1.91 1.528 9.17 9.17 22.543 32.478 35.152 89.791 2.293 8.024-1.91 16.43-9.17 19.869z" />
<glyph unicode="&#xe936;" glyph-name="basket" d="M894.891 718.592l-128-384c-2.901-8.704-11.051-14.592-20.224-14.592h-320v42.667h304.64l113.792 341.333h-546.432v42.667h576c6.869 0 13.312-3.285 17.323-8.875 4.011-5.547 5.077-12.715 2.901-19.2zM212.608 816.213c-2.517 9.301-10.965 15.787-20.608 15.787h-149.333v-42.667h132.992l145.067-538.88c2.517-9.301 10.965-15.787 20.608-15.787h426.667v42.667h-410.325l-145.067 538.88zM469.333 106.667c0-47.147-38.187-85.333-85.333-85.333s-85.333 38.187-85.333 85.333 38.187 85.333 85.333 85.333 85.333-38.187 85.333-85.333zM426.667 106.667c0 23.509-19.157 42.667-42.667 42.667s-42.667-19.157-42.667-42.667 19.157-42.667 42.667-42.667 42.667 19.157 42.667 42.667zM768 106.667c0-47.147-38.187-85.333-85.333-85.333s-85.333 38.187-85.333 85.333 38.187 85.333 85.333 85.333 85.333-38.187 85.333-85.333zM725.333 106.667c0 23.509-19.157 42.667-42.667 42.667s-42.667-19.157-42.667-42.667 19.157-42.667 42.667-42.667 42.667 19.157 42.667 42.667z" />
<glyph unicode="&#xe937;" glyph-name="blog" d="M974.293 741.163c-4.48 4.053-10.496 5.845-16.469 5.376l-104.491-10.667v117.461c0 7.595-4.053 14.635-10.624 18.475-6.571 3.797-14.72 3.84-21.291 0.043l-288.085-164.608-288.085 164.608c-6.613 3.797-14.72 3.712-21.291-0.043-6.571-3.84-10.624-10.88-10.624-18.475v-117.461l-104.491 10.667c-5.973 0.384-11.947-1.323-16.469-5.376-4.48-4.053-7.040-9.771-7.040-15.829v-682.667c0-6.4 2.859-12.459 7.851-16.512 3.797-3.157 8.619-4.821 13.483-4.821 1.408 0 2.816 0.128 4.224 0.427l422.443 85.419 422.443-85.419c1.408-0.299 2.816-0.427 4.224-0.427 4.864 0 9.685 1.664 13.483 4.821 4.992 4.053 7.851 10.112 7.851 16.512v682.667c0 6.059-2.56 11.776-7.040 15.829zM810.667 731.52l-181.248-18.517 181.248 103.552v-85.035zM256 816.555l181.248-103.552-181.248 18.517v85.035zM128 701.696l384-39.253v-516.053l-384-77.653v632.96zM938.667 68.736l-384 77.653v516.053l384 39.253v-632.96zM853.333 362.667h-213.333v42.667h213.333v-42.667zM853.333 490.667h-213.333v42.667h213.333v-42.667zM853.333 234.667h-213.333v42.667h213.333v-42.667zM213.333 405.333h213.333v-42.667h-213.333v42.667zM213.333 533.333h213.333v-42.667h-213.333v42.667zM213.333 277.333h213.333v-42.667h-213.333v42.667z" />
<glyph unicode="&#xe938;" glyph-name="cell" d="M291.84 789.333l0.981-0.384 171.136-172.885-102.613-102.571 11.136-26.453c25.643-61.013 117.376-152.661 178.389-178.304l26.411-11.093 20.267 20.267 84.267 82.304 171.179-172.885-93.355-93.312c-18.432-18.432-42.965-27.349-74.965-27.349-158.549 0-416.811 218.581-493.397 417.621-17.152 44.544-39.125 125.995 6.272 171.349l93.355 93.312c0.128 0.128 0.384 0.384 0.939 0.384zM291.84 832c-11.264 0-22.528-4.309-31.104-12.885l-93.355-93.312c-46.293-46.251-51.968-123.264-15.957-216.832 84.139-218.624 355.797-444.971 533.248-444.971 41.344 0 77.568 12.288 105.088 39.808l93.355 93.312c17.195 17.195 17.195 45.013 0 62.208l-171.179 171.051c-8.576 8.576-19.84 12.885-31.104 12.885s-22.528-4.309-31.104-12.885l-82.347-82.304c-50.304 21.12-134.315 104.875-155.605 155.52l82.347 82.304c17.195 17.195 17.195 45.013 0 62.208l-171.179 171.008c-8.576 8.576-19.84 12.885-31.104 12.885v0z" />
<glyph unicode="&#xe939;" glyph-name="collaboration" d="M768 704l8.107-36.48-199.467 72.576c-46.805 20.949-102.613 10.667-138.837-25.643l-10.453-10.453h-171.349l-213.333 42.667v-426.667h98.816l226.603-192.981c13.867-13.867 32.085-20.779 50.304-20.779s36.437 6.912 50.304 20.779c6.827 6.827 11.904 14.72 15.36 23.125 13.781-13.269 31.531-20.011 49.365-20.011 18.219 0 36.437 6.912 50.304 20.779 9.045 9.045 14.805 20.011 17.963 31.531 8.917-3.797 18.432-5.845 27.989-5.845 18.219 0 36.437 6.912 50.304 20.779 9.301 9.301 15.189 20.651 18.261 32.555 8.363-3.243 17.152-4.949 25.984-4.949 18.219 0 36.437 6.912 50.304 20.779 27.691 27.733 27.691 72.832-0.085 100.651l-234.624 232.149-29.952 30.379-96.128-94.379c-15.872-15.915-41.813-15.915-57.771 0-15.915 15.957-15.915 41.856 0 57.813l112 111.915c23.851 23.893 60.416 30.635 92.672 16.256l226.603-82.603 66.091-297.941h128v426.667l-213.333-42.667zM85.333 694.613l119.552-23.893-68.437-308.053h-51.115v331.947zM325.803 602.496c-32.512-32.555-32.512-85.547 0-118.101 16.299-16.299 37.717-24.448 59.136-24.448 21.333 0 42.667 8.107 58.837 24.277l65.621 64.341 234.965-232.491c11.093-11.093 11.093-29.141 0-40.235-11.051-11.051-29.184-11.093-40.107-0.085l-151.893 154.027-30.421-29.952 129.28-131.157c11.093-11.093 9.685-30.123-1.408-41.173-11.136-11.093-29.227-11.051-40.064-0.128l-144.085 146.944-30.507-29.867 120.149-122.496c11.093-11.093 9.344-29.781-1.707-40.875-11.179-11.136-29.227-11.008-39.808-0.469l-125.141 133.205-31.104-29.269 81.877-87.083c11.093-11.093 10.197-29.184-0.896-40.277-11.051-11.008-29.056-11.136-41.515 1.152l-220.501 187.861 70.016 315.136h138.155l-58.88-58.837zM938.667 362.667h-51.115l-68.437 308.053 119.552 23.893v-331.947z" />
<glyph unicode="&#xe93a;" glyph-name="compare-red" d="M512 106.667h298.667v-42.667h-640v42.667h298.667v682.667h-256v42.667h554.667v-42.667h-256v-682.667zM768 704l128-512h-341.333l128 512h85.333zM662.656 448h125.355l-53.333 213.333h-18.688l-53.333-213.333zM426.667 192h-341.333l128 512h85.333l128-512zM193.323 448h125.355l-53.333 213.333h-18.688l-53.333-213.333z" />
<glyph unicode="&#xe93b;" glyph-name="compare" d="M512 106.667h298.667v-42.667h-640v42.667h298.667v682.667h-256v42.667h554.667v-42.667h-256v-682.667zM768 704l128-512h-341.333l128 512h85.333zM841.344 234.667l-106.667 426.667h-18.688l-106.667-426.667h232.021zM426.667 192h-341.333l128 512h85.333l128-512zM139.989 234.667h232.021l-106.667 426.667h-18.688l-106.667-426.667z" />
<glyph unicode="&#xe93c;" glyph-name="contacts" d="M365.312 698.496l95.147-95.147-65.664-65.749 11.093-26.411c18.517-44.117 82.347-107.947 126.464-126.464l26.411-11.093 65.707 65.707 95.147-95.147-52.779-52.779c-9.387-9.472-22.443-14.080-39.808-14.080-92.501 0-262.101 130.603-315.435 269.312-17.323 45.013-16.981 81.109 0.981 99.072l52.736 52.779zM365.312 746.667c-7.509 0-15.019-2.859-20.736-8.576l-62.208-62.208c-30.848-30.848-34.603-82.176-10.624-144.555 56.064-145.749 237.056-296.661 355.285-296.661 27.563 0 51.669 8.192 70.016 26.539l62.208 62.208c11.435 11.435 11.435 30.037 0 41.472l-114.048 114.048c-5.717 5.717-13.227 8.576-20.736 8.576s-15.019-2.859-20.736-8.576l-54.869-54.869c-33.536 14.080-89.472 69.931-103.68 103.68l54.869 54.869c11.435 11.435 11.435 30.037 0 41.472l-114.005 114.005c-5.717 5.717-13.227 8.576-20.736 8.576v0zM853.333 832c23.509 0 42.667-19.157 42.667-42.667v-597.333c0-23.509-19.157-42.667-42.667-42.667h-401.664l-110.336-110.336-110.336 110.336h-60.331c-23.509 0-42.667 19.157-42.667 42.667v597.333c0 23.509 19.157 42.667 42.667 42.667h682.667zM853.333 874.667h-682.667c-47.147 0-85.333-38.187-85.333-85.333v-597.333c0-47.147 38.187-85.333 85.333-85.333h42.667l128-128 128 128h384c47.147 0 85.333 38.187 85.333 85.333v597.333c0 47.147-38.187 85.333-85.333 85.333v0z" />
<glyph unicode="&#xe93d;" glyph-name="delivery" d="M384 832v-128h-183.424l-157.909-293.291v-218.709h85.333v42.667h-42.667v165.291l140.757 261.376h157.909v-469.333h256v42.667h-213.333v170.667h512v-170.667h-42.667v-42.667h85.333v640h-597.333zM426.667 448v341.333h512v-341.333h-512zM256 277.333c-47.147 0-85.333-38.187-85.333-85.333s38.187-85.333 85.333-85.333 85.333 38.187 85.333 85.333-38.187 85.333-85.333 85.333zM256 149.333c-23.509 0-42.667 19.157-42.667 42.667s19.157 42.667 42.667 42.667 42.667-19.157 42.667-42.667-19.157-42.667-42.667-42.667zM768 277.333c-47.147 0-85.333-38.187-85.333-85.333s38.187-85.333 85.333-85.333 85.333 38.187 85.333 85.333-38.187 85.333-85.333 85.333zM768 149.333c-23.509 0-42.667 19.157-42.667 42.667s19.157 42.667 42.667 42.667 42.667-19.157 42.667-42.667-19.157-42.667-42.667-42.667z" />
<glyph unicode="&#xe93e;" glyph-name="facebook" d="M506.99-64l0.751 365.965h-95.186c-12.274 0-22.294 10.020-22.544 22.294l-0.501 117.98c0 12.524 10.020 22.544 22.544 22.544h94.935v113.973c0 132.258 80.658 204.149 198.638 204.149h96.939c12.274 0 22.544-10.020 22.544-22.544v-99.444c0-12.274-10.020-22.544-22.544-22.544h-59.366c-64.125 0-76.65-30.56-76.65-75.147v-98.693h141.025c13.526 0 23.796-11.773 22.294-25.049l-14.027-117.98c-1.252-11.272-11.022-19.789-22.294-19.789h-126.497l-0.751-365.965-159.311 0.25z" />
<glyph unicode="&#xe93f;" glyph-name="favorite-red" d="M512 64c0 0 168.363 131.84 218.795 180.651 39.637 38.357 102.101 100.267 135.808 141.781 29.397 36.224 49.493 76.715 60.373 108.203 7.595 21.888 11.691 45.312 11.691 69.589 0 124.331-80.768 225.109-213.333 225.109-75.392 0-169.344-56.448-213.333-107.477v0c-43.989 51.029-137.941 107.477-213.333 107.477-132.565 0-213.333-100.779-213.333-225.109 0-24.277 4.096-47.701 11.691-69.589 10.923-31.488 30.976-71.979 60.373-108.245 33.707-41.515 96.171-103.424 135.808-141.781 50.432-48.768 218.795-180.608 218.795-180.608v0z" />
<glyph unicode="&#xe940;" glyph-name="favorite" d="M725.333 746.667c117.888 0 170.667-91.648 170.667-182.443 0-19.029-3.157-37.76-9.344-55.637-5.419-15.616-21.419-56.149-53.205-95.275-24.32-29.952-71.339-78.976-132.352-137.984-34.389-33.28-132.011-111.829-189.099-156.971-49.024 38.784-152.619 121.643-189.141 156.971-61.013 59.008-108.032 108.032-132.352 137.984-31.787 39.168-47.787 79.701-53.205 95.275-6.144 17.92-9.301 36.608-9.301 55.637 0 90.795 52.779 182.443 170.667 182.443 59.563 0 143.232-48.853 181.035-92.672 8.107-9.387 19.883-14.805 32.299-14.805s24.192 5.419 32.299 14.805c37.803 43.819 121.472 92.672 181.035 92.672zM725.333 789.333c-75.392 0-169.344-56.448-213.333-107.477 0 0 0 0 0 0v0c-43.989 51.029-137.941 107.477-213.333 107.477-132.565 0-213.333-100.779-213.333-225.109 0-24.277 4.096-47.701 11.691-69.589 10.923-31.488 30.976-71.979 60.373-108.245 33.707-41.515 96.171-103.424 135.808-141.781 50.432-48.768 218.795-180.608 218.795-180.608v0c0 0 168.363 131.84 218.795 180.651 39.637 38.357 102.101 100.267 135.808 141.781 29.397 36.224 49.493 76.715 60.373 108.203 7.595 21.888 11.691 45.312 11.691 69.589 0 124.331-80.768 225.109-213.333 225.109v0z" />
<glyph unicode="&#xe941;" glyph-name="filter16" d="M298.667 576h-42.667v213.333h42.667v-213.333zM256 106.667h42.667v213.333h-42.667v-213.333zM362.667 448c0-47.147-38.187-85.333-85.333-85.333s-85.333 38.187-85.333 85.333 38.187 85.333 85.333 85.333 85.333-38.187 85.333-85.333zM320 448c0 23.509-19.157 42.667-42.667 42.667s-42.667-19.157-42.667-42.667 19.157-42.667 42.667-42.667 42.667 19.157 42.667 42.667zM512 106.667h42.667v85.333h-42.667v-85.333zM554.667 789.333h-42.667v-341.333h42.667v341.333zM618.667 320c0-47.147-38.187-85.333-85.333-85.333s-85.333 38.187-85.333 85.333 38.187 85.333 85.333 85.333 85.333-38.187 85.333-85.333zM576 320c0 23.509-19.157 42.667-42.667 42.667s-42.667-19.157-42.667-42.667 19.157-42.667 42.667-42.667 42.667 19.157 42.667 42.667zM768 789.333h-42.667v-128h42.667v128zM725.333 106.667h42.667v298.667h-42.667v-298.667zM832 533.333c0-47.147-38.187-85.333-85.333-85.333s-85.333 38.187-85.333 85.333 38.187 85.333 85.333 85.333 85.333-38.187 85.333-85.333zM789.333 533.333c0 23.509-19.157 42.667-42.667 42.667s-42.667-19.157-42.667-42.667 19.157-42.667 42.667-42.667 42.667 19.157 42.667 42.667z" />
<glyph unicode="&#xe942;" glyph-name="filter" d="M213.333 704h-42.667v213.333h42.667v-213.333zM170.667-21.333h42.667v341.333h-42.667v-341.333zM298.667 512c0-58.923-47.744-106.667-106.667-106.667s-106.667 47.744-106.667 106.667c0 58.923 47.744 106.667 106.667 106.667s106.667-47.744 106.667-106.667zM256 512c0 35.285-28.715 64-64 64s-64-28.715-64-64 28.715-64 64-64 64 28.715 64 64zM512-21.333h42.667v128h-42.667v-128zM554.667 917.333h-42.667v-426.667h42.667v426.667zM640 298.667c0-58.923-47.744-106.667-106.667-106.667s-106.667 47.744-106.667 106.667c0 58.923 47.744 106.667 106.667 106.667s106.667-47.744 106.667-106.667zM597.333 298.667c0 35.285-28.715 64-64 64s-64-28.715-64-64 28.715-64 64-64 64 28.715 64 64zM896 917.333h-42.667v-128h42.667v128zM853.333-21.333h42.667v426.667h-42.667v-426.667zM981.333 597.333c0-58.923-47.744-106.667-106.667-106.667s-106.667 47.744-106.667 106.667c0 58.923 47.744 106.667 106.667 106.667s106.667-47.744 106.667-106.667zM938.667 597.333c0 35.285-28.715 64-64 64s-64-28.715-64-64 28.715-64 64-64 64 28.715 64 64z" />
<glyph unicode="&#xe943;" glyph-name="furniture" d="M85.333 917.333v-853.333h896v853.333h-896zM938.667 106.667h-810.667v768h810.667v-768zM896 832h-725.333v-682.667h725.333v682.667zM213.333 789.333h298.667v-597.333h-298.667v597.333zM853.333 192h-298.667v597.333h298.667v-597.333zM725.333 21.333h85.333v-42.667h-85.333v42.667zM597.333 448v85.333h42.667v-85.333h-42.667zM469.333 533.333v-85.333h-42.667v85.333h42.667zM213.333 21.333h85.333v-42.667h-85.333v42.667z" />
<glyph unicode="&#xe944;" glyph-name="homepage" horiz-adv-x="736" d="M637.654 461.163l-56.32 46.933v0.683h-0.811l-212.523 177.109-212.523-177.109h-0.811v-0.683l-56.32-46.933 27.349-32.811 28.971 24.192v-242.432h170.667v128h85.333v-128h170.667v242.432l29.013-24.149 27.307 32.768zM538.668 252.779h-85.333v128h-170.667v-128h-85.333v235.349l170.667 142.251 170.667-142.251v-235.349z" />
<glyph unicode="&#xe945;" glyph-name="instagram" d="M719.030 960h-413.874c-168.375 0-305.156-136.781-305.156-305.156v-413.874c0-168.189 136.781-304.97 305.156-304.97h413.874c168.189 0 305.156 136.781 305.156 305.156v413.689c-0.186 168.375-136.967 305.156-305.156 305.156zM921.042 240.97c0-111.506-90.506-202.012-202.012-202.012h-413.874c-111.506 0-202.012 90.506-202.012 202.012v413.874c0 111.506 90.506 202.012 202.012 202.012h413.874c111.506 0 202.012-90.506 202.012-202.012v-413.874zM512 712.828c-146.073 0-264.828-118.754-264.828-264.828s118.754-264.828 264.828-264.828 264.828 118.754 264.828 264.828-118.754 264.828-264.828 264.828zM512 286.13c-89.391 0-161.87 72.479-161.87 161.87s72.479 161.87 161.87 161.87c89.391 0 161.87-72.479 161.87-161.87s-72.479-161.87-161.87-161.87zM840.758 710.783c0-35-28.373-63.373-63.373-63.373s-63.373 28.373-63.373 63.373c0 35 28.373 63.373 63.373 63.373s63.373-28.373 63.373-63.373z" />
<glyph unicode="&#xe946;" glyph-name="location" d="M512 917.333c-164.949 0-298.667-135.68-298.667-303.061s298.667-592.939 298.667-592.939 298.667 425.515 298.667 592.939-133.717 303.061-298.667 303.061zM256 614.272c0 143.573 114.859 260.395 256 260.395s256-116.821 256-260.395c0-110.72-161.707-376.021-256-517.248-94.293 141.227-256 406.528-256 517.248zM512 746.667c-70.699 0-128-57.301-128-128s57.301-128 128-128 128 57.301 128 128-57.301 128-128 128zM512 533.333c-47.061 0-85.333 38.272-85.333 85.333s38.272 85.333 85.333 85.333 85.333-38.272 85.333-85.333-38.272-85.333-85.333-85.333z" />
<glyph unicode="&#xe947;" glyph-name="mail" d="M85.333 746.667v-597.333h853.333v597.333h-853.333zM623.317 484.651l-1.835-1.877-109.483-92.203-109.483 92.203-1.835 1.877-0.213-0.171-260.693 219.52h744.405l-260.693-219.52-0.171 0.171zM369.621 454.656l-241.621-233.685v437.163l241.621-203.477zM402.432 427.051l95.787-80.683c4.011-3.371 8.875-5.035 13.781-5.035s9.771 1.664 13.739 5.035l95.787 80.683 243.072-235.051h-705.195l243.029 235.051zM654.379 454.656l241.621 203.477v-437.163l-241.621 233.685z" />
<glyph unicode="&#xe948;" glyph-name="menu" horiz-adv-x="1182" d="M1063.385 763.077h-945.231c-43.323 0-78.769 35.446-78.769 78.769v0c0 43.323 35.446 78.769 78.769 78.769h945.231c43.323 0 78.769-35.446 78.769-78.769v0c0-43.323-35.446-78.769-78.769-78.769zM909.785 369.231h-795.569c-39.385 0-74.831 31.508-74.831 74.831v11.815c0 39.385 31.508 74.831 74.831 74.831h799.508c39.385 0 74.831-31.508 74.831-74.831v-11.815c-3.938-43.323-35.446-74.831-78.769-74.831zM1063.385-24.615h-945.231c-43.323 0-78.769 35.446-78.769 78.769v0c0 43.323 35.446 78.769 78.769 78.769h945.231c43.323 0 78.769-35.446 78.769-78.769v0c0-43.323-35.446-78.769-78.769-78.769z" />
<glyph unicode="&#xe949;" glyph-name="other" d="M128 618.667c-47.147 0-85.333-38.187-85.333-85.333s38.187-85.333 85.333-85.333 85.333 38.187 85.333 85.333-38.187 85.333-85.333 85.333zM128 490.667c-23.509 0-42.667 19.157-42.667 42.667s19.157 42.667 42.667 42.667 42.667-19.157 42.667-42.667-19.157-42.667-42.667-42.667zM244.224 620.928l-19.115 38.144 256 128 19.072-38.187-255.957-127.957zM580.864 712.96l-31.915-23.936 104.064-208.171 301.227 200.789-207.573 155.691-26.923-20.181-50.603 65.963c-28.8 37.547-83.541 45.355-121.941 17.237-18.816-13.781-31.061-33.92-34.347-56.832-3.285-22.741 2.645-45.355 16.725-63.659l51.285-66.901zM880.427 683.691l-210.773-140.544-66.603 133.163 143.616 107.691 133.76-100.309zM572.373 865.877c19.925 14.549 48.171 10.581 62.976-8.747l50.304-65.621-70.656-52.949-51.541 67.285c-6.997 9.131-9.941 20.395-8.32 31.616 1.621 11.392 7.723 21.504 17.237 28.416zM661.333 192h-161.835l-249.771 249.771-30.165-30.165 228.437-228.437v-84.821l-149.333-58.411v-103.936h512v103.936l-149.333 59.819v92.245zM618.667 105.387l-128 1.109v42.837h128v-43.947zM768-21.333h-426.667v32.384l132.139 52.949h162.432l132.096-52.949v-32.384z" />
<glyph unicode="&#xe94a;" d="M512 682.667c0-35.346-28.654-64-64-64s-64 28.654-64 64c0 35.346 28.654 64 64 64s64-28.654 64-64z" />
<glyph unicode="&#xe94b;" d="M810.667 21.333h-682.667v512h682.667v-85.333h42.667v128h-50.859c16.171 41.344 8.619 90.197-22.912 124.117l-170.112 183.083c-20.437 22.016-47.744 34.133-76.928 34.133v0c-29.184 0-56.533-12.16-76.245-33.451l-315.605-307.883h-55.339v-597.333h768v128h-42.667v-85.333zM486.784 854.101c12.288 13.269 28.544 20.565 45.739 20.565 17.152 0 33.408-7.296 45.696-20.523l170.112-183.083c23.936-25.771 25.771-66.603 5.888-95.061h-552.448l285.013 278.101zM640 405.333c-70.571 0-128-57.429-128-128s57.429-128 128-128h256v256h-256zM853.333 192h-213.333c-47.061 0-85.333 38.272-85.333 85.333s38.272 85.333 85.333 85.333h213.333v-170.667zM277.76 76.757v32.981c-1.792 0-3.029 0-3.029 0s-6.229 1.621-18.731 4.779-24.192 7.936-35.115 14.251c-10.923 6.315-21.163 14.208-30.677 23.723l29.696 33.792c10.411-11.819 21.931-20.651 34.56-26.581s26.411-8.875 41.301-8.875c20.48 0 35.84 3.755 45.952 11.307s15.189 18.987 15.189 34.304v0.256c0 9.771-2.475 17.493-7.381 23.211s-11.264 9.984-19.072 12.843c-7.808 2.816-17.792 5.333-29.909 7.509-0.427 0.128-0.853 0.213-1.195 0.213s-0.768 0.043-1.195 0.213c-0.725 0.128-1.493 0.256-2.261 0.384-0.811 0.128-1.579 0.256-2.304 0.427-19.371 3.413-35.029 7.168-47.019 11.392s-22.272 11.861-30.805 22.912-12.8 26.752-12.8 47.104v0.213c0 19.797 3.84 36.267 11.52 49.365 7.637 13.099 19.115 22.955 34.347 29.525 8.405 3.627 18.219 6.016 28.928 7.637v35.243h44.203v-34.56c4.736-0.469 9.515-0.469 14.208-1.408 9.899-1.963 19.669-4.949 29.355-8.96s19.285-9.003 28.843-14.976l-26.667-34.432c-10.709 6.784-21.163 11.861-31.317 15.189-10.197 3.328-20.267 4.992-30.208 4.992-19.072 0-33.365-3.712-42.923-11.093s-14.293-18.475-14.293-33.28v-0.171c0-10.197 2.731-18.176 8.235-23.936s12.416-9.984 20.693-12.715c8.32-2.688 19.669-5.547 34.133-8.533 0.597-0.128 1.152-0.256 1.749-0.427 0.597-0.128 1.237-0.256 1.963-0.384s1.408-0.256 2.048-0.427c0.64-0.128 1.323-0.256 2.048-0.384 17.067-3.541 31.317-7.851 42.795-12.928 11.52-5.077 21.077-13.269 28.715-24.533 7.68-11.264 11.477-26.624 11.477-45.995v-0.427c0-19.157-3.968-35.072-11.904-47.744s-19.84-22.187-35.627-28.501c-9.515-3.797-20.907-6.059-33.28-7.595v-34.859h-44.245zM725.333 213.333c35.285 0 64 28.715 64 64s-28.715 64-64 64-64-28.715-64-64 28.715-64 64-64zM725.333 298.667c11.776 0 21.333-9.557 21.333-21.333s-9.557-21.333-21.333-21.333-21.333 9.557-21.333 21.333 9.557 21.333 21.333 21.333zM557.269 791.936c25.003-25.003 25.003-65.536 0-90.496-25.003-25.003-65.536-25.003-90.496 0-25.003 25.003-25.003 65.536 0 90.496 24.96 24.96 65.493 24.96 90.496 0z" />
<glyph unicode="&#xe94c;" glyph-name="profile" d="M512 362.667c141.397 0 256 114.603 256 256s-114.603 256-256 256-256-114.603-256-256 114.603-256 256-256zM512 832c117.632 0 213.333-95.701 213.333-213.333s-95.701-213.333-213.333-213.333-213.333 95.701-213.333 213.333 95.701 213.333 213.333 213.333zM938.667 55.125v-33.792h-42.667v33.792c0 122.539-71.893 222.208-160.213 222.208h-447.573c-88.32 0-160.213-99.669-160.213-222.208v-33.792h-42.667v33.792c0 146.048 91.008 264.875 202.88 264.875h447.531c111.915 0 202.923-118.827 202.923-264.875z" />
<glyph unicode="&#xe94d;" glyph-name="sale" d="M256 503.125l225.792-225.792 371.541 105.813-491.52 491.52-105.813-371.541zM768.939 405.035l-274.261-78.080-189.013 189.013 78.123 274.261 385.152-385.195zM256 448l-170.667-170.667 170.667-170.667 170.667 170.667-170.667 170.667zM142.677 277.333l113.323 113.323 113.323-113.323-113.323-113.323-113.323 113.323zM382.421 192l108.245-108.245-105.088-105.088-108.245 108.245 29.824 29.824 78.421-78.464 45.483 45.483-78.421 78.464 29.781 29.781zM723.072 601.387c7.765 39.893-4.736 80.853-33.451 109.525s-69.547 41.216-109.568 33.493l-8.064 41.856c53.888 10.496 109.141-6.485 147.84-45.227 38.741-38.741 55.637-93.995 45.227-147.84l-41.984 8.192zM895.019 595.584l-42.539 3.499c6.144 74.667-21.077 147.883-74.709 200.875-52.779 52.181-126.379 79.104-200.363 74.112l-2.816 42.581c86.741 5.888 171.733-25.643 233.216-86.315 62.592-61.909 94.421-147.456 87.211-234.752z" />
<glyph unicode="&#xe94e;" glyph-name="search" d="M405.333 874.667c-176.725 0-320-143.275-320-320s143.275-320 320-320 320 143.275 320 320-143.275 320-320 320zM405.333 277.333c-152.917 0-277.333 124.416-277.333 277.333s124.416 277.333 277.333 277.333 277.333-124.416 277.333-277.333-124.416-277.333-277.333-277.333zM384 768v-42.667c-82.347 0-149.333-66.987-149.333-149.333h-42.667c0 105.856 86.144 192 192 192zM953.771 36.437l-30.165-30.165-277.333 277.333 30.165 30.165 277.333-277.333z" />
<glyph unicode="&#xe94f;" glyph-name="sorting16" d="M475.563 356.437l30.165-30.165-143.061-143.104-143.104 143.104 30.165 30.165 91.605-91.605v439.168h42.667v-439.168l91.563 91.605zM804.437 591.104l-143.104 143.061-143.104-143.104 30.165-30.165 91.605 91.605v-417.835h42.667v417.835l91.563-91.563 30.208 30.165z" />
<glyph unicode="&#xe950;" glyph-name="sorting" d="M944.896 624.896l-176.896 176.939v-737.835h-42.667v737.835l-176.896-176.896-30.165 30.165 228.395 228.395 228.437-228.437-30.208-30.165zM298.667 94.165v737.835h-42.667v-737.835l-176.896 176.896-30.165-30.165 228.395-228.395 228.437 228.437-30.165 30.165-176.939-176.939z" />
<glyph unicode="&#xe951;" glyph-name="station" d="M981.333 576v298.667h-512v-298.667h170.667v-85.333h-396.501l-151.637 151.637 74.539 104.32 64.981-97.451 164.821 164.779-164.224 109.525-110.080-110.080 19.2-28.8-104.96-146.901 147.029-147.029h-140.501v-170.667h42.667v-384h128v384h42.667v-384h341.333v384h213.333v-384h128v384h42.667v170.667h-170.667v85.333h170.667zM237.355 868.523l91.776-61.184-91.136-91.179-61.184 91.819 60.544 60.544zM170.667-21.333h-42.667v341.333h42.667v-341.333zM554.667-21.333h-256v341.333h256v-341.333zM896-21.333h-42.667v341.333h42.667v-341.333zM938.667 362.667h-853.333v85.333h853.333v-85.333zM682.667 490.667v42.667h85.333v-42.667h-85.333zM512 618.667v213.333h426.667v-213.333h-426.667zM469.333 192h-85.333v42.667h85.333v-42.667zM469.333 64h-85.333v42.667h85.333v-42.667z" />
<glyph unicode="&#xe952;" glyph-name="table" d="M981.333 832h-938.667v-128h42.667v-640h128v469.333h597.333v-469.333h128v640h42.667v128zM170.667 106.667h-42.667v426.667h42.667v-426.667zM896 106.667h-42.667v426.667h42.667v-426.667zM896 576h-768v128h768v-128zM938.667 746.667h-853.333v42.667h853.333v-42.667zM597.333 618.667h-170.667v42.667h170.667v-42.667z" />
<glyph unicode="&#xe953;" horiz-adv-x="4655" d="M1250.211 259.025c-5.585 0-9.309 1.862-13.033 4.655-3.724 3.724-4.655 7.447-4.655 13.033v371.433c0 5.585 1.862 9.309 4.655 13.033 3.724 3.724 7.447 4.655 13.033 4.655h34.444c4.655 0 9.309-1.862 13.033-4.655 3.724-3.724 4.655-7.447 4.655-13.033v-33.513c12.102 15.825 26.996 28.858 44.684 38.167s39.098 13.964 64.233 13.964c57.716 0.931 98.676-23.273 122.88-70.749 12.102 21.411 28.858 39.098 51.2 51.2 22.342 13.033 48.407 19.549 77.265 19.549 26.996 0 51.2-6.516 72.611-18.618s39.098-30.72 51.2-55.855c12.102-25.135 18.618-55.855 18.618-93.091v-222.487c0-5.585-1.862-9.309-4.655-13.033-3.724-3.724-7.447-4.655-13.033-4.655h-36.305c-5.585 0-9.309 1.862-13.033 4.655-3.724 3.724-4.655 7.447-4.655 13.033v215.040c0 28.858-3.724 51.2-12.102 67.956s-19.549 27.927-33.513 34.444c-13.964 6.516-28.858 10.24-45.615 10.24-13.033 0-26.996-3.724-40.96-10.24s-25.135-18.618-34.444-34.444c-9.309-16.756-13.033-39.098-13.033-67.956v-215.040c0-5.585-1.862-9.309-4.655-13.033-3.724-3.724-7.447-4.655-13.033-4.655h-36.305c-5.585 0-9.309 1.862-13.033 4.655-3.724 3.724-4.655 7.447-4.655 13.033v215.040c0 28.858-4.655 51.2-13.033 67.956s-19.549 27.927-33.513 34.444c-13.964 6.516-28.858 10.24-43.753 10.24-13.033 0-26.996-3.724-40.96-10.24s-25.135-18.618-34.444-34.444c-9.309-16.756-13.033-39.098-13.033-67.025v-215.971c0-5.585-1.862-9.309-4.655-13.033-3.724-3.724-7.447-4.655-13.033-4.655h-35.375z" />
<glyph unicode="&#xe954;" horiz-adv-x="4655" d="M2020.073 255.302c-26.065 0-49.338 5.585-69.818 15.825-21.411 10.24-38.167 24.204-51.2 41.891s-19.549 37.236-19.549 59.578c0 35.375 13.964 59.578 42.822 80.058 28.858 21.411 66.095 34.444 112.64 41.891l114.502 15.825v21.411c0 24.204-7.447 43.753-21.411 57.716s-37.236 20.48-68.887 20.48c-22.342 0-40.96-4.655-54.924-13.964s-24.204-21.411-29.789-35.375c-2.793-7.447-8.378-11.171-15.825-11.171h-34.444c-5.585 0-10.24 1.862-13.033 4.655-2.793 3.724-4.655 7.447-4.655 12.102 0 7.447 2.793 16.756 8.378 28.858 5.585 11.171 14.895 22.342 26.996 33.513s27.927 19.549 47.476 26.996c19.549 7.447 42.822 11.171 70.749 11.171 30.72 0 56.785-3.724 77.265-12.102 21.411-8.378 37.236-18.618 49.338-31.651s20.48-28.858 26.065-45.615c5.585-16.756 8.378-34.444 8.378-51.2v-249.484c0-5.585-1.862-9.309-4.655-13.033-3.724-3.724-7.447-4.655-13.033-4.655h-34.444c-5.585 0-10.24 1.862-13.033 4.655-2.793 3.724-4.655 7.447-4.655 13.033v33.513c-6.516-9.309-15.825-13.964-26.996-23.273s-25.135-16.756-41.891-22.342c-16.756-6.516-38.167-9.309-62.371-9.309zM2035.898 313.018c21.411 0 40.029 4.655 57.716 13.033 17.687 9.309 30.72 23.273 40.96 41.891s14.895 39.098 14.895 67.025v22.342l-89.367-13.033c-36.305-5.585-64.233-13.964-81.92-26.065-18.618-12.102-27.927-23.273-27.927-41.891 0-13.964 4.655-26.065 13.033-35.375s19.549-16.756 32.582-21.411c13.033-4.655 26.065-6.516 40.029-6.516z" />
<glyph unicode="&#xe955;" horiz-adv-x="4655" d="M2489.251 89.6c-34.444 0-63.302 4.655-85.644 13.964s-40.029 20.48-52.131 33.513c-13.033 13.033-21.411 26.065-26.996 39.098s-8.378 23.273-9.309 30.72c-0.931 5.585 0.931 9.309 4.655 13.033s8.378 5.585 13.033 5.585h37.236c4.655 0 8.378-0.931 11.171-2.793s5.585-6.516 7.447-13.033c2.793-7.447 7.447-15.825 13.964-26.065 6.516-9.309 15.825-17.687 28.858-24.204s30.72-10.24 53.993-10.24c24.204 0 44.684 3.724 60.509 10.24 16.756 6.516 28.858 17.687 37.236 33.513s13.033 38.167 13.033 66.095v52.131c-12.102-15.825-28.858-28.858-48.407-40.029-19.549-10.24-44.684-15.825-75.404-15.825-28.858 0-53.062 4.655-73.542 14.895s-37.236 23.273-50.269 40.96c-13.033 16.756-23.273 37.236-28.858 58.647-6.516 22.342-10.24 44.684-11.171 68.887-0.931 13.964-0.931 28.858 0 41.891 0.931 24.204 4.655 47.476 11.171 68.887 6.516 22.342 15.825 41.891 28.858 59.578s29.789 30.72 50.269 40.96c20.48 10.24 44.684 14.895 73.542 14.895 30.72 0 55.855-5.585 76.335-16.756s37.236-25.135 49.338-41.891v40.029c0 4.655 1.862 9.309 4.655 13.033 3.724 3.724 7.447 5.585 13.033 5.585h35.375c4.655 0 9.309-1.862 13.033-5.585s5.585-8.378 5.585-13.033v-379.811c0-34.444-5.585-65.164-17.687-91.229-11.171-26.996-30.72-47.476-56.785-63.302-26.065-14.895-61.44-22.342-106.124-22.342zM2487.389 317.673c26.065 0 46.545 5.585 61.44 17.687 15.825 12.102 26.996 26.996 34.444 44.684s11.171 36.305 12.102 54.924c0.931 7.447 0.931 15.825 0.931 26.996 0 10.24 0 19.549-0.931 26.996-0.931 18.618-4.655 36.305-12.102 54.924-7.447 17.687-18.618 32.582-34.444 44.684s-36.305 17.687-61.44 17.687c-26.065 0-46.545-5.585-61.44-17.687-15.825-11.171-26.065-26.996-33.513-45.615-6.516-18.618-10.24-39.098-11.171-60.509-0.931-13.033-0.931-26.996 0-40.96 0.931-21.411 4.655-41.891 11.171-60.509s17.687-33.513 33.513-45.615c15.825-12.102 36.305-17.687 61.44-17.687z" />
<glyph unicode="&#xe956;" horiz-adv-x="4655" d="M2888.611 255.302c-26.065 0-49.338 5.585-69.818 15.825-21.411 10.24-38.167 24.204-51.2 41.891s-19.549 37.236-19.549 59.578c0 35.375 13.964 59.578 42.822 80.058 28.858 21.411 66.095 34.444 112.64 41.891l114.502 15.825v21.411c0 24.204-7.447 43.753-21.411 57.716s-37.236 20.48-68.887 20.48c-22.342 0-40.96-4.655-54.924-13.964s-24.204-21.411-29.789-35.375c-2.793-7.447-8.378-11.171-15.825-11.171h-34.444c-5.585 0-10.24 1.862-13.033 4.655-2.793 3.724-4.655 7.447-4.655 12.102 0 7.447 2.793 16.756 9.309 28.858 5.585 11.171 14.895 22.342 26.996 33.513s27.927 19.549 47.476 26.996c19.549 7.447 42.822 11.171 70.749 11.171 30.72 0 56.785-3.724 77.265-12.102 21.411-8.378 37.236-18.618 49.338-31.651s20.48-28.858 26.065-45.615c5.585-16.756 8.378-34.444 8.378-51.2v-249.484c0-5.585-1.862-9.309-4.655-13.033-3.724-3.724-7.447-4.655-13.033-4.655h-35.375c-5.585 0-10.24 1.862-13.033 4.655-2.793 3.724-4.655 7.447-4.655 13.033v33.513c-6.516-9.309-15.825-13.964-26.996-23.273s-25.135-16.756-41.891-22.342-38.167-9.309-62.371-9.309zM2904.436 313.018c21.411 0 40.029 4.655 57.716 13.033 17.687 9.309 30.72 23.273 40.96 41.891s14.895 39.098 14.895 67.025v22.342l-89.367-13.033c-36.305-5.585-64.233-13.964-81.92-26.065-18.618-12.102-27.927-23.273-27.927-41.891 0-13.964 4.655-26.065 13.033-35.375s19.549-16.756 32.582-21.411c13.033-4.655 26.065-6.516 40.029-6.516z" />
<glyph unicode="&#xe957;" horiz-adv-x="4655" d="M3185.571 259.025c-5.585 0-9.309 1.862-13.033 4.655-3.724 3.724-4.655 7.447-4.655 13.033v26.996c0 4.655 0.931 9.309 3.724 13.033 1.862 3.724 4.655 8.378 7.447 11.171l212.247 276.48h-198.284c-5.585 0-9.309 1.862-13.033 4.655s-4.655 7.447-4.655 13.033v25.135c0 5.585 1.862 9.309 4.655 13.033 3.724 3.724 7.447 4.655 13.033 4.655h273.687c4.655 0 9.309-1.862 13.033-4.655 3.724-3.724 4.655-7.447 4.655-13.033v-28.858c0-4.655-0.931-8.378-3.724-12.102-1.862-3.724-4.655-7.447-7.447-11.171l-209.455-275.549h217.833c5.585 0 10.24-1.862 13.033-4.655s4.655-7.447 4.655-13.033v-25.135c0-5.585-1.862-9.309-4.655-13.033s-7.447-4.655-13.033-4.655h-296.029z" />
<glyph unicode="&#xe958;" horiz-adv-x="4655" d="M3588.655 729.135c-5.585 0-9.309 1.862-13.033 4.655-3.724 3.724-4.655 7.447-4.655 13.033v41.891c0 5.585 1.862 9.309 4.655 13.033 3.724 3.724 7.447 5.585 13.033 5.585h48.407c4.655 0 9.309-1.862 13.033-5.585s5.585-8.378 5.585-13.033v-41.891c0-5.585-1.862-9.309-5.585-13.033s-8.378-4.655-13.033-4.655h-48.407zM3595.171 259.025c-5.585 0-9.309 1.862-13.033 4.655-3.724 3.724-4.655 7.447-4.655 13.033v371.433c0 5.585 1.862 9.309 4.655 13.033 3.724 3.724 7.447 4.655 13.033 4.655h37.236c5.585 0 9.309-1.862 13.033-4.655 3.724-3.724 4.655-7.447 4.655-13.033v-371.433c0-5.585-1.862-9.309-4.655-13.033-3.724-3.724-7.447-4.655-13.033-4.655h-37.236z" />
<glyph unicode="&#xe959;" horiz-adv-x="4655" d="M3772.975 259.025c-5.585 0-9.309 1.862-13.033 4.655-3.724 3.724-4.655 7.447-4.655 13.033v371.433c0 5.585 1.862 9.309 4.655 13.033 3.724 3.724 7.447 4.655 13.033 4.655h36.305c4.655 0 9.309-1.862 13.033-4.655 3.724-3.724 4.655-7.447 4.655-13.033v-40.96c13.033 17.687 29.789 31.651 50.269 42.822s46.545 16.756 78.196 16.756c33.513 0 61.44-7.447 84.713-22.342s40.96-34.444 53.062-60.509c12.102-26.065 17.687-55.855 17.687-90.298v-216.902c0-5.585-1.862-9.309-4.655-13.033-3.724-3.724-7.447-4.655-13.033-4.655h-38.167c-5.585 0-9.309 1.862-13.033 4.655-3.724 3.724-4.655 7.447-4.655 13.033v213.178c0 36.305-8.378 64.233-26.065 83.782-17.687 20.48-42.822 30.72-77.265 30.72-31.651 0-57.716-10.24-76.335-30.72-19.549-20.48-28.858-48.407-28.858-83.782v-213.178c0-5.585-1.862-9.309-4.655-13.033-3.724-3.724-7.447-4.655-13.033-4.655h-38.167z" />
<glyph unicode="&#xe95a;" horiz-adv-x="4655" d="M4373.411 256.233c-53.062 0-95.884 15.825-126.604 48.407-31.651 32.582-48.407 72.611-51.2 128.465-0.931 6.516-0.931 14.895-0.931 26.065 0 10.24 0 19.549 0.931 26.065 1.862 36.305 10.24 67.956 25.135 95.884 14.895 26.996 35.375 48.407 61.44 63.302s55.855 22.342 91.229 22.342c39.098 0 71.68-8.378 97.745-24.204 26.065-16.756 46.545-40.029 60.509-69.818 13.964-30.72 20.48-66.095 20.48-106.124v-13.033c0-5.585-1.862-10.24-4.655-13.033-3.724-2.793-7.447-4.655-13.033-4.655h-266.24c0-0.931 0-1.862 0-2.793s0-2.793 0-3.724c0.931-21.411 5.585-35.375 13.964-53.993s20.48-32.582 35.375-44.684c15.825-11.171 33.513-16.756 54.924-16.756 18.618 0 33.513 2.793 46.545 8.378 12.102 5.585 22.342 14.895 29.789 21.411s13.033 12.102 15.825 16.756c4.655 6.516 8.378 10.24 11.171 11.171s6.516 1.862 12.102 1.862h37.236c4.655 0 8.378-1.862 12.102-4.655s4.655-6.516 4.655-12.102c-0.931-7.447-4.655-19.549-12.102-30.72s-18.618-22.342-32.582-32.582c-13.964-11.171-31.651-19.549-52.131-26.996-21.411-7.447-45.615-10.24-71.68-10.24zM4268.218 488.029h210.385v1.862c0 23.273-4.655 43.753-13.033 61.44s-20.48 32.582-36.305 42.822c-15.825 10.24-34.444 15.825-56.785 15.825s-40.96-5.585-56.785-15.825c-15.825-10.24-27.927-25.135-35.375-42.822-8.378-17.687-12.102-38.167-12.102-61.44v-1.862z" />
<glyph unicode="&#xe95b;" horiz-adv-x="4655" d="M296.96 257.164h154.531c12.102 0 23.273 8.378 26.996 20.48l135.913 472.902c3.724 13.033-6.516 26.996-19.549 26.996h-124.742c-12.102 0-23.273-8.378-26.996-20.48l-146.153-499.898z" />
<glyph unicode="&#xe95c;" horiz-adv-x="4655" d="M931.84 777.542h-228.073c-12.102 0-23.273-8.378-26.996-20.48l-135.913-472.902c-3.724-13.033 6.516-26.996 19.549-26.996h124.742c12.102 0 23.273 8.378 26.996 20.48l46.545 161.047h33.513l46.545-161.047c3.724-12.102 13.964-20.48 26.996-20.48h124.742c13.964 0 24.204 13.033 19.549 26.996l-44.684 156.393c82.851 11.171 136.844 81.92 136.844 168.495v0c-0.931 92.16-77.265 168.495-170.356 168.495zM876.916 551.331h-85.644l32.582 113.571h53.062c31.651 0 56.785-25.135 56.785-56.785s-26.065-56.785-56.785-56.785z" />
<glyph unicode="&#xe95d;" horiz-adv-x="4655" d="M241.105 274.851l87.505 297.891-53.993 185.251c-3.724 12.102-13.964 20.48-26.996 20.48h-124.742c-13.964 0-24.204-13.033-19.549-26.996 0-0.931 137.775-475.695 137.775-476.625z" />
<glyph unicode="&#xe95e;" glyph-name="youtube" d="M929.164 441.791c-10.161 46.289-48.547 80.159-93.707 84.675-107.255 12.419-215.638 12.419-324.022 12.419s-216.767 0-324.022-12.419c-45.16-4.516-82.417-39.515-93.707-84.675-13.548-65.482-13.548-136.609-13.548-204.348s0-138.867 14.677-204.348c10.161-46.289 48.547-80.159 93.707-84.675 107.255-12.419 215.638-12.419 324.022-12.419s216.767 0 324.022 12.419c45.16 4.516 82.417 39.515 93.707 84.675 14.677 65.482 14.677 136.609 14.677 204.348-1.129 67.74-1.129 138.867-15.806 204.348zM326.28 390.986h-62.095v-331.925h-57.579v331.925h-60.966v54.192h181.768v-54.192zM484.34 59.061h-51.934v31.612c-20.322-23.709-40.644-34.999-59.837-34.999-16.935 0-28.225 6.774-33.87 21.451-3.387 9.032-4.516 22.58-4.516 42.902v226.928h51.934v-212.251c0-12.419 0-18.064 0-20.322 1.129-7.903 5.645-12.419 12.419-12.419 10.161 0 21.451 7.903 32.741 24.838v220.154h51.934l1.129-287.894zM683.043 144.864c0-27.096-2.258-46.289-5.645-57.579-6.774-21.451-21.451-32.741-41.773-32.741-18.064 0-36.128 10.161-54.192 31.612v-28.225h-51.934v387.246h51.934v-126.448c16.935 20.322 34.999 31.612 54.192 31.612 20.322 0 34.999-11.29 41.773-32.741 3.387-11.29 5.645-30.483 5.645-57.579v-115.158zM879.488 193.411h-104.997v-50.805c0-27.096 9.032-39.515 27.096-39.515 12.419 0 20.322 6.774 23.709 21.451 0 3.387 1.129 14.677 1.129 34.999h53.063v-7.903c0-16.935-1.129-28.225-1.129-33.87-2.258-11.29-5.645-22.58-12.419-31.612-14.677-21.451-36.128-31.612-63.224-31.612s-48.547 10.161-63.224 29.354c-11.29 14.677-16.935 37.257-16.935 67.74v100.481c0 30.483 4.516 53.063 15.806 67.74 14.677 19.193 36.128 29.354 62.095 29.354s47.418-10.161 62.095-29.354c11.29-14.677 15.806-37.257 15.806-67.74l1.129-58.708zM801.588 302.924c-16.935 0-25.967-13.548-25.967-39.515v-27.096h51.934v27.096c0 27.096-9.032 39.515-25.967 39.515zM607.4 302.924c-9.032 0-16.935-4.516-25.967-12.419v-176.123c9.032-9.032 16.935-12.419 25.967-12.419 14.677 0 22.58 12.419 22.58 38.386v124.19c0 25.967-7.903 38.386-22.58 38.386zM636.754 564.851c19.193 0 39.515 11.29 59.837 36.128v-31.612h53.063v291.281h-53.063v-222.412c-11.29-16.935-22.58-24.838-33.87-24.838-6.774 0-11.29 4.516-12.419 12.419-1.129 2.258-1.129 7.903-1.129 20.322v214.509h-50.805v-230.315c0-20.322 2.258-34.999 4.516-42.902 5.645-15.806 16.935-22.58 33.87-22.58zM269.83 727.427v-158.060h57.579v158.060l71.127 232.573h-59.837l-39.515-153.544-41.773 153.544h-62.095c12.419-36.128 24.838-72.256 37.257-108.384 19.193-55.321 31.612-95.965 37.257-124.19zM476.437 564.851c25.967 0 47.418 10.161 62.095 29.354 11.29 14.677 16.935 37.257 16.935 68.869v101.61c0 31.612-5.645 54.192-16.935 68.869-14.677 20.322-34.999 29.354-62.095 29.354-25.967 0-46.289-10.161-60.966-29.354-11.29-14.677-16.935-37.257-16.935-68.869v-101.61c0-30.483 5.645-54.192 16.935-68.869 14.677-19.193 34.999-29.354 60.966-29.354zM451.599 775.974c0 27.096 7.903 40.644 24.838 40.644s24.838-13.548 24.838-40.644v-123.061c0-27.096-7.903-40.644-24.838-40.644s-24.838 14.677-24.838 41.773v121.932z" />
<glyph unicode="&#xea10;" glyph-name="checkmark" d="M864 832l-480-480-224 224-160-160 384-384 640 640z" />
</font>
</defs>
</svg>
